999
dxfrw 0.6.3
  0
SECTION
  2
HEADER
  9
$ACADVER
  1
AC1014
  9
$DWGCODEPAGE
  3
ANSI_1252
  9
$INSBASE
 10
0
 20
0
 30
0
  9
$EXTMIN
 10
2.077284876931305
 20
3.634819166114482
 30
0
  9
$EXTMAX
 10
85.20710843630141
 20
74.27195108911485
 30
0
  9
$LIMMIN
 10
0
 20
0
  9
$LIMMAX
 10
420
 20
297
  9
$ORTHOMODE
 70
    0
  9
$REGENMODE
 70
    1
  9
$FILLMODE
 70
    1
  9
$QTEXTMODE
 70
    0
  9
$MIRRTEXT
 70
    0
  9
$LTSCALE
 40
1
  9
$ATTMODE
 70
    0
  9
$TEXTSIZE
 40
2.5
  9
$TRACEWID
 40
15.68
  9
$TEXTSTYLE
  7
STANDARD
  9
$CLAYER
  8
MILL
  9
$CELTYPE
  6
BYLAYER
  9
$CECOLOR
 62
  256
  9
$CELTSCALE
 40
1
  9
$DISPSILH
 70
    0
  9
$DIMSCALE
 40
2.5
  9
$DIMASZ
 40
2.5
  9
$DIMEXO
 40
0.625
  9
$DIMDLI
 40
3.75
  9
$DIMRND
 40
0
  9
$DIMDLE
 40
0
  9
$DIMEXE
 40
1.25
  9
$DIMTP
 40
0
  9
$DIMTM
 40
0
  9
$DIMTXT
 40
2.5
  9
$DIMCEN
 40
2.5
  9
$DIMTSZ
 40
0
  9
$DIMTOL
 70
    0
  9
$DIMLIM
 70
    0
  9
$DIMTIH
 70
    0
  9
$DIMTOH
 70
    0
  9
$DIMSE1
 70
    0
  9
$DIMSE2
 70
    0
  9
$DIMTAD
 70
    1
  9
$DIMZIN
 70
    8
  9
$DIMBLK
  1

  9
$DIMASO
 70
    1
  9
$DIMSHO
 70
    1
  9
$DIMPOST
  1

  9
$DIMAPOST
  1

  9
$DIMALT
 70
    0
  9
$DIMALTD
 70
    3
  9
$DIMALTF
 40
0.03937
  9
$DIMLFAC
 40
1
  9
$DIMTOFL
 70
    1
  9
$DIMTVP
 40
0
  9
$DIMTIX
 70
    0
  9
$DIMSOXD
 70
    0
  9
$DIMSAH
 70
    0
  9
$DIMBLK1
  1

  9
$DIMBLK2
  1

  9
$DIMSTYLE
  2
STANDARD
  9
$DIMCLRD
 70
    0
  9
$DIMCLRE
 70
    0
  9
$DIMCLRT
 70
    0
  9
$DIMTFAC
 40
1
  9
$DIMGAP
 40
0.625
  9
$DIMJUST
 70
    0
  9
$DIMSD1
 70
    0
  9
$DIMSD2
 70
    0
  9
$DIMTOLJ
 70
    0
  9
$DIMTZIN
 70
    8
  9
$DIMALTZ
 70
    0
  9
$DIMALTTZ
 70
    0
  9
$DIMUPT
 70
    0
  9
$DIMDEC
 70
    2
  9
$DIMTDEC
 70
    2
  9
$DIMALTU
 70
    2
  9
$DIMALTTD
 70
    3
  9
$DIMTXSTY
  7
STANDARD
  9
$DIMAUNIT
 70
    0
  9
$DIMADEC
 70
    0
  9
$DIMALTRND
 40
0
  9
$DIMAZIN
 70
    0
  9
$DIMDSEP
 70
   44
  9
$DIMATFIT
 70
    3
  9
$DIMFRAC
 70
    0
  9
$DIMLDRBLK
  1
STANDARD
  9
$DIMUNIT
 70
    2
  9
$DIMLWD
 70
   -2
  9
$DIMLWE
 70
   -2
  9
$DIMTMOVE
 70
    0
  9
$LUNITS
 70
    2
  9
$LUPREC
 70
    4
  9
$SKETCHINC
 40
1
  9
$FILLETRAD
 40
0
  9
$AUNITS
 70
    0
  9
$AUPREC
 70
    2
  9
$MENU
  1
.
  9
$ELEVATION
 40
0
  9
$PELEVATION
 40
0
  9
$THICKNESS
 40
0
  9
$LIMCHECK
 70
    0
  9
$BLIPMODE
 70
    0
  9
$CHAMFERA
 40
0
  9
$CHAMFERB
 40
0
  9
$CHAMFERC
 40
0
  9
$CHAMFERD
 40
0
  9
$SKPOLY
 70
    0
  9
$USRTIMER
 70
    1
  9
$ANGBASE
 50
0
  9
$ANGDIR
 70
    0
  9
$PDMODE
 70
   34
  9
$PDSIZE
 40
0
  9
$PLINEWID
 40
0
  9
$SPLFRAME
 70
    0
  9
$SPLINETYPE
 70
    2
  9
$SPLINESEGS
 70
    8
  9
$HANDSEED
  5
20000
  9
$SURFTAB1
 70
    6
  9
$SURFTAB2
 70
    6
  9
$SURFTYPE
 70
    6
  9
$SURFU
 70
    6
  9
$SURFV
 70
    6
  9
$UCSBASE
  2

  9
$UCSNAME
  2

  9
$UCSORG
 10
0
 20
0
 30
0
  9
$UCSXDIR
 10
1
 20
0
 30
0
  9
$UCSYDIR
 10
0
 20
1
 30
0
  9
$UCSORTHOREF
  2

  9
$UCSORTHOVIEW
 70
    0
  9
$UCSORGTOP
 10
0
 20
0
 30
0
  9
$UCSORGBOTTOM
 10
0
 20
0
 30
0
  9
$UCSORGLEFT
 10
0
 20
0
 30
0
  9
$UCSORGRIGHT
 10
0
 20
0
 30
0
  9
$UCSORGFRONT
 10
0
 20
0
 30
0
  9
$UCSORGBACK
 10
0
 20
0
 30
0
  9
$PUCSBASE
  2

  9
$PUCSNAME
  2

  9
$PUCSORG
 10
0
 20
0
 30
0
  9
$PUCSXDIR
 10
1
 20
0
 30
0
  9
$PUCSYDIR
 10
0
 20
1
 30
0
  9
$PUCSORTHOREF
  2

  9
$PUCSORTHOVIEW
 70
    0
  9
$PUCSORGTOP
 10
0
 20
0
 30
0
  9
$PUCSORGBOTTOM
 10
0
 20
0
 30
0
  9
$PUCSORGLEFT
 10
0
 20
0
 30
0
  9
$PUCSORGRIGHT
 10
0
 20
0
 30
0
  9
$PUCSORGFRONT
 10
0
 20
0
 30
0
  9
$PUCSORGBACK
 10
0
 20
0
 30
0
  9
$USERI1
 70
    0
  9
$USERI2
 70
    0
  9
$USERI3
 70
    0
  9
$USERI4
 70
    0
  9
$USERI5
 70
    0
  9
$USERR1
 40
0
  9
$USERR2
 40
0
  9
$USERR3
 40
0
  9
$USERR4
 40
0
  9
$USERR5
 40
0
  9
$WORLDVIEW
 70
    1
  9
$SHADEDGE
 70
    3
  9
$SHADEDIF
 70
   70
  9
$TILEMODE
 70
    1
  9
$MAXACTVP
 70
   64
  9
$PINSBASE
 10
0
 20
0
 30
0
  9
$PLIMCHECK
 70
    0
  9
$PEXTMIN
 10
0
 20
0
 30
0
  9
$PEXTMAX
 10
0
 20
0
 30
0
  9
$GRIDMODE
 70
    1
  9
$SNAPSTYLE
 70
    0
  9
$PLIMMIN
 10
0
 20
0
  9
$PLIMMAX
 10
210
 20
297
  9
$UNITMODE
 70
    0
  9
$VISRETAIN
 70
    1
  9
$PLINEGEN
 70
    0
  9
$PSLTSCALE
 70
    1
  9
$TREEDEPTH
 70
 3020
  9
$CMLSTYLE
  2
Standard
  9
$CMLJUST
 70
    0
  9
$CMLSCALE
 40
20
  9
$PROXYGRAPHICS
 70
    1
  9
$MEASUREMENT
 70
    1
  9
$CELWEIGHT
370
   -1
  9
$ENDCAPS
280
    0
  9
$JOINSTYLE
280
    0
  9
$LWDISPLAY
290
    0
  9
$HYPERLINKBASE
  1

  9
$STYLESHEET
  1

  9
$XEDIT
290
    1
  9
$CEPSNTYPE
380
    0
  9
$PSTYLEMODE
290
    1
  9
$EXTNAMES
290
    1
  9
$PSVPSCALE
 40
1
  9
$OLESTARTUP
290
    0
  0
ENDSEC
  0
SECTION
  2
CLASSES
  0
ENDSEC
  0
SECTION
  2
TABLES
  0
TABLE
  2
VPORT
  5
8
100
AcDbSymbolTable
 70
    1
  0
VPORT
  5
31
330
2
100
AcDbSymbolTableRecord
100
AcDbViewportTableRecord
  2
*ACTIVE
 70
    0
 10
0
 20
0
 11
1
 21
1
 12
50.76764791178977
 22
37.55109225489463
 13
0
 23
0
 14
10
 24
10
 15
10
 25
10
 16
0
 26
0
 36
1
 17
0
 27
0
 37
0
 40
72.42315295771593
 41
1.598027127003699
 42
50
 43
0
 44
0
 50
0
 51
0
 71
    0
 72
  100
 73
    1
 74
    3
 75
    0
 76
    1
 77
    0
 78
    0
  0
ENDTAB
  0
TABLE
  2
LTYPE
  5
5
100
AcDbSymbolTable
 70
    4
  0
LTYPE
  5
14
100
AcDbSymbolTableRecord
100
AcDbLinetypeTableRecord
  2
ByBlock
 70
    0
  3

 72
   65
 73
    0
 40
0
  0
LTYPE
  5
15
100
AcDbSymbolTableRecord
100
AcDbLinetypeTableRecord
  2
ByLayer
 70
    0
  3

 72
   65
 73
    0
 40
0
  0
LTYPE
  5
16
100
AcDbSymbolTableRecord
100
AcDbLinetypeTableRecord
  2
Continuous
 70
    0
  3
Solid line
 72
   65
 73
    0
 40
0
  0
LTYPE
  5
32
330
5
100
AcDbSymbolTableRecord
100
AcDbLinetypeTableRecord
  2
DOT
 70
    0
  3
Dot . . . . . . . . . . . . . . . . . . . . . .
 72
   65
 73
    2
 40
6.35
 49
0
 74
    0
 49
-6.35
 74
    0
  0
LTYPE
  5
33
330
5
100
AcDbSymbolTableRecord
100
AcDbLinetypeTableRecord
  2
DOTTINY
 70
    0
  3
Dot (.15x) .....................................
 72
   65
 73
    2
 40
0.9525
 49
0
 74
    0
 49
-0.9525
 74
    0
  0
LTYPE
  5
34
330
5
100
AcDbSymbolTableRecord
100
AcDbLinetypeTableRecord
  2
DOT2
 70
    0
  3
Dot (.5x) .....................................
 72
   65
 73
    2
 40
3.175
 49
0
 74
    0
 49
-3.175
 74
    0
  0
LTYPE
  5
35
330
5
100
AcDbSymbolTableRecord
100
AcDbLinetypeTableRecord
  2
DOTX2
 70
    0
  3
Dot (2x) .  .  .  .  .  .  .  .  .  .  .  .  .
 72
   65
 73
    2
 40
12.7
 49
0
 74
    0
 49
-12.7
 74
    0
  0
LTYPE
  5
36
330
5
100
AcDbSymbolTableRecord
100
AcDbLinetypeTableRecord
  2
DASHED
 70
    0
  3
Dashed _ _ _ _ _ _ _ _ _ _ _ _ _ _ _ _ _
 72
   65
 73
    2
 40
19.05
 49
12.7
 74
    0
 49
-6.35
 74
    0
  0
LTYPE
  5
37
330
5
100
AcDbSymbolTableRecord
100
AcDbLinetypeTableRecord
  2
DASHEDTINY
 70
    0
  3
Dashed (.15x) _ _ _ _ _ _ _ _ _ _ _ _ _ _ _ _ _
 72
   65
 73
    2
 40
2.8575
 49
1.905
 74
    0
 49
-0.9525
 74
    0
  0
LTYPE
  5
38
330
5
100
AcDbSymbolTableRecord
100
AcDbLinetypeTableRecord
  2
DASHED2
 70
    0
  3
Dashed (.5x) _ _ _ _ _ _ _ _ _ _ _ _ _ _ _ _ _
 72
   65
 73
    2
 40
9.524999999999999
 49
6.35
 74
    0
 49
-3.175
 74
    0
  0
LTYPE
  5
39
330
5
100
AcDbSymbolTableRecord
100
AcDbLinetypeTableRecord
  2
DASHEDX2
 70
    0
  3
Dashed (2x) ____  ____  ____  ____  ____  ___
 72
   65
 73
    2
 40
38.09999999999999
 49
25.4
 74
    0
 49
-12.7
 74
    0
  0
LTYPE
  5
3A
330
5
100
AcDbSymbolTableRecord
100
AcDbLinetypeTableRecord
  2
DASHDOT
 70
    0
  3
Dash dot __ . __ . __ . __ . __ . __ . __ . __
 72
   65
 73
    4
 40
25.4
 49
12.7
 74
    0
 49
-6.35
 74
    0
 49
0
 74
    0
 49
-6.35
 74
    0
  0
LTYPE
  5
3B
330
5
100
AcDbSymbolTableRecord
100
AcDbLinetypeTableRecord
  2
DASHDOTTINY
 70
    0
  3
Dash dot (.15x) _._._._._._._._._._._._._._._.
 72
   65
 73
    4
 40
3.81
 49
1.905
 74
    0
 49
-0.9525
 74
    0
 49
0
 74
    0
 49
-0.9525
 74
    0
  0
LTYPE
  5
3C
330
5
100
AcDbSymbolTableRecord
100
AcDbLinetypeTableRecord
  2
DASHDOT2
 70
    0
  3
Dash dot (.5x) _._._._._._._._._._._._._._._.
 72
   65
 73
    4
 40
12.7
 49
6.35
 74
    0
 49
-3.175
 74
    0
 49
0
 74
    0
 49
-3.175
 74
    0
  0
LTYPE
  5
3D
330
5
100
AcDbSymbolTableRecord
100
AcDbLinetypeTableRecord
  2
DASHDOTX2
 70
    0
  3
Dash dot (2x) ____  .  ____  .  ____  .  ___
 72
   65
 73
    4
 40
50.8
 49
25.4
 74
    0
 49
-12.7
 74
    0
 49
0
 74
    0
 49
-12.7
 74
    0
  0
LTYPE
  5
3E
330
5
100
AcDbSymbolTableRecord
100
AcDbLinetypeTableRecord
  2
DIVIDE
 70
    0
  3
Divide ____ . . ____ . . ____ . . ____ . . ____
 72
   65
 73
    6
 40
31.75
 49
12.7
 74
    0
 49
-6.35
 74
    0
 49
0
 74
    0
 49
-6.35
 74
    0
 49
0
 74
    0
 49
-6.35
 74
    0
  0
LTYPE
  5
3F
330
5
100
AcDbSymbolTableRecord
100
AcDbLinetypeTableRecord
  2
DIVIDETINY
 70
    0
  3
Divide (.15x) __..__..__..__..__..__..__..__.._
 72
   65
 73
    6
 40
4.7625
 49
1.905
 74
    0
 49
-0.9525
 74
    0
 49
0
 74
    0
 49
-0.9525
 74
    0
 49
0
 74
    0
 49
-0.9525
 74
    0
  0
LTYPE
  5
40
330
5
100
AcDbSymbolTableRecord
100
AcDbLinetypeTableRecord
  2
DIVIDE2
 70
    0
  3
Divide (.5x) __..__..__..__..__..__..__..__.._
 72
   65
 73
    6
 40
15.875
 49
6.35
 74
    0
 49
-3.175
 74
    0
 49
0
 74
    0
 49
-3.175
 74
    0
 49
0
 74
    0
 49
-3.175
 74
    0
  0
LTYPE
  5
41
330
5
100
AcDbSymbolTableRecord
100
AcDbLinetypeTableRecord
  2
DIVIDEX2
 70
    0
  3
Divide (2x) ________  .  .  ________  .  .  _
 72
   65
 73
    6
 40
63.5
 49
25.4
 74
    0
 49
-12.7
 74
    0
 49
0
 74
    0
 49
-12.7
 74
    0
 49
0
 74
    0
 49
-12.7
 74
    0
  0
LTYPE
  5
42
330
5
100
AcDbSymbolTableRecord
100
AcDbLinetypeTableRecord
  2
BORDER
 70
    0
  3
Border __ __ . __ __ . __ __ . __ __ . __ __ .
 72
   65
 73
    6
 40
44.45
 49
12.7
 74
    0
 49
-6.35
 74
    0
 49
12.7
 74
    0
 49
-6.35
 74
    0
 49
0
 74
    0
 49
-6.35
 74
    0
  0
LTYPE
  5
43
330
5
100
AcDbSymbolTableRecord
100
AcDbLinetypeTableRecord
  2
BORDERTINY
 70
    0
  3
Border (.15x) __.__.__.__.__.__.__.__.__.__.__.
 72
   65
 73
    6
 40
6.6675
 49
1.905
 74
    0
 49
-0.9525
 74
    0
 49
1.905
 74
    0
 49
-0.9525
 74
    0
 49
0
 74
    0
 49
-0.9525
 74
    0
  0
LTYPE
  5
44
330
5
100
AcDbSymbolTableRecord
100
AcDbLinetypeTableRecord
  2
BORDER2
 70
    0
  3
Border (.5x) __.__.__.__.__.__.__.__.__.__.__.
 72
   65
 73
    6
 40
22.225
 49
6.35
 74
    0
 49
-3.175
 74
    0
 49
6.35
 74
    0
 49
-3.175
 74
    0
 49
0
 74
    0
 49
-3.175
 74
    0
  0
LTYPE
  5
45
330
5
100
AcDbSymbolTableRecord
100
AcDbLinetypeTableRecord
  2
BORDERX2
 70
    0
  3
Border (2x) ____  ____  .  ____  ____  .  ___
 72
   65
 73
    6
 40
88.89999999999999
 49
25.4
 74
    0
 49
-12.7
 74
    0
 49
25.4
 74
    0
 49
-12.7
 74
    0
 49
0
 74
    0
 49
-12.7
 74
    0
  0
LTYPE
  5
46
330
5
100
AcDbSymbolTableRecord
100
AcDbLinetypeTableRecord
  2
CENTER
 70
    0
  3
Center ____ _ ____ _ ____ _ ____ _ ____ _ ____
 72
   65
 73
    4
 40
50.8
 49
31.75
 74
    0
 49
-6.35
 74
    0
 49
6.35
 74
    0
 49
-6.35
 74
    0
  0
LTYPE
  5
47
330
5
100
AcDbSymbolTableRecord
100
AcDbLinetypeTableRecord
  2
CENTERTINY
 70
    0
  3
Center (.15x) ___ _ ___ _ ___ _ ___ _ ___ _ ___
 72
   65
 73
    4
 40
7.619999999999999
 49
4.7625
 74
    0
 49
-0.9525
 74
    0
 49
0.9525
 74
    0
 49
-0.9525
 74
    0
  0
LTYPE
  5
48
330
5
100
AcDbSymbolTableRecord
100
AcDbLinetypeTableRecord
  2
CENTER2
 70
    0
  3
Center (.5x) ___ _ ___ _ ___ _ ___ _ ___ _ ___
 72
   65
 73
    4
 40
28.575
 49
19.05
 74
    0
 49
-3.175
 74
    0
 49
3.175
 74
    0
 49
-3.175
 74
    0
  0
LTYPE
  5
49
330
5
100
AcDbSymbolTableRecord
100
AcDbLinetypeTableRecord
  2
CENTERX2
 70
    0
  3
Center (2x) ________  __  ________  __  _____
 72
   65
 73
    4
 40
101.6
 49
63.5
 74
    0
 49
-12.7
 74
    0
 49
12.7
 74
    0
 49
-12.7
 74
    0
  0
ENDTAB
  0
TABLE
  2
LAYER
  5
2
100
AcDbSymbolTable
 70
    1
  0
LAYER
  5
10
330
2
100
AcDbSymbolTableRecord
100
AcDbLayerTableRecord
  2
0
 70
    1
 62
    7
  6
CONTINUOUS
370
    0
390
F
  0
LAYER
  5
4A
330
2
100
AcDbSymbolTableRecord
100
AcDbLayerTableRecord
  2
MILL
 70
    0
 62
    1
  6
CONTINUOUS
370
    0
390
F
  0
ENDTAB
  0
TABLE
  2
STYLE
  5
3
100
AcDbSymbolTable
 70
    3
  0
STYLE
  5
4B
330
2
100
AcDbSymbolTableRecord
100
AcDbTextStyleTableRecord
  2
Standard
 70
    0
 40
0
 41
1
 50
0
 71
    0
 42
1
  3
txt
  4

  0
ENDTAB
  0
TABLE
  2
VIEW
  5
6
100
AcDbSymbolTable
 70
    0
  0
ENDTAB
  0
TABLE
  2
UCS
  5
7
100
AcDbSymbolTable
 70
    0
  0
ENDTAB
  0
TABLE
  2
APPID
  5
9
100
AcDbSymbolTable
 70
    1
  0
APPID
  5
12
100
AcDbSymbolTableRecord
100
AcDbRegAppTableRecord
  2
ACAD
 70
    0
  0
APPID
  5
4C
100
AcDbSymbolTableRecord
100
AcDbRegAppTableRecord
  2
LibreCad
 70
    0
  0
ENDTAB
  0
TABLE
  2
DIMSTYLE
  5
A
100
AcDbSymbolTable
 70
    1
  0
DIMSTYLE
105
4D
330
A
100
AcDbSymbolTableRecord
100
AcDbDimStyleTableRecord
  2
Standard
 70
    0
 40
1
 41
2.5
 42
0.625
 43
0.38
 44
1.25
 45
0
 46
0
 47
0
 48
0
 49
1
140
2.5
141
0.09
142
2.5
143
25.4
144
1
145
0
146
1
147
0.625
 71
    0
 72
    0
 73
    0
 74
    1
 75
    0
 76
    0
 77
    0
 78
    1
170
    0
171
    2
172
    0
173
    0
174
    0
175
    0
176
    0
177
    0
178
    0
270
    2
271
    2
272
    4
273
    2
274
    2
275
    0
280
    0
281
    0
282
    0
283
    1
284
    0
285
    0
286
    0
287
    3
288
    0
340
standard
  0
ENDTAB
  0
TABLE
  2
BLOCK_RECORD
  5
1
100
AcDbSymbolTable
 70
    2
  0
BLOCK_RECORD
  5
1F
100
AcDbSymbolTableRecord
100
AcDbBlockTableRecord
  2
*Model_Space
  0
BLOCK_RECORD
  5
1E
100
AcDbSymbolTableRecord
100
AcDbBlockTableRecord
  2
*Paper_Space
  0
ENDTAB
  0
ENDSEC
  0
SECTION
  2
BLOCKS
  0
BLOCK
  5
20
100
AcDbEntity
  8
0
100
AcDbBlockBegin
  2
*Model_Space
 70
    0
 10
0
 20
0
 30
0
  3
*Model_Space
  1

  0
ENDBLK
  5
21
100
AcDbEntity
  8
0
100
AcDbBlockEnd
  0
BLOCK
  5
1C
100
AcDbEntity
  8
0
100
AcDbBlockBegin
  2
*Paper_Space
 70
    0
 10
0
 20
0
 30
0
  3
*Paper_Space
  1

  0
ENDBLK
  5
1D
100
AcDbEntity
  8
0
100
AcDbBlockEnd
  0
ENDSEC
  0
SECTION
  2
ENTITIES
  0
IMAGE
  5
50
100
AcDbEntity
  8
0
  6
ByLayer
 62
  256
100
AcDbRasterImage
 10
0.5
 20
-0.5
 30
0
 11
1
 21
0
 31
0
 12
6.123233995736766e-17
 22
1
 32
0
 13
1588
 23
1057
340
4E
 70
    1
280
    0
281
   50
282
   50
283
    0
360
4F
  0
LINE
  5
51
100
AcDbEntity
  8
MILL
  6
ByLayer
 62
  256
100
AcDbLine
 10
33.10581531799762
 20
32.07661898686816
 11
32.89327790293333
 21
33.011783613151
  0
LINE
  5
52
100
AcDbEntity
  8
MILL
  6
ByLayer
 62
  256
100
AcDbLine
 10
32.89327790293333
 20
33.011783613151
 11
32.68074048786906
 21
33.94694823943384
  0
LINE
  5
53
100
AcDbEntity
  8
MILL
  6
ByLayer
 62
  256
100
AcDbLine
 10
32.68074048786906
 20
33.94694823943384
 11
32.46820307280478
 21
34.88211286571667
  0
LINE
  5
54
100
AcDbEntity
  8
MILL
  6
ByLayer
 62
  256
100
AcDbLine
 10
32.46820307280478
 20
34.88211286571667
 11
32.2556656577405
 21
35.81727749199951
  0
LINE
  5
55
100
AcDbEntity
  8
MILL
  6
ByLayer
 62
  256
100
AcDbLine
 10
32.2556656577405
 20
35.81727749199951
 11
32.04312824267621
 21
36.75244211828235
  0
LINE
  5
56
100
AcDbEntity
  8
MILL
  6
ByLayer
 62
  256
100
AcDbLine
 10
32.04312824267621
 20
36.75244211828235
 11
31.83059082761194
 21
37.68760674456519
  0
LINE
  5
57
100
AcDbEntity
  8
MILL
  6
ByLayer
 62
  256
100
AcDbLine
 10
31.83059082761194
 20
37.68760674456519
 11
31.61805341254765
 21
38.62277137084803
  0
LINE
  5
58
100
AcDbEntity
  8
MILL
  6
ByLayer
 62
  256
100
AcDbLine
 10
31.61805341254765
 20
38.62277137084803
 11
31.40551599748337
 21
39.55793599713086
  0
LINE
  5
59
100
AcDbEntity
  8
MILL
  6
ByLayer
 62
  256
100
AcDbLine
 10
31.40551599748337
 20
39.55793599713086
 11
31.05472192049848
 21
40.038828734246
  0
LINE
  5
5A
100
AcDbEntity
  8
MILL
  6
ByLayer
 62
  256
100
AcDbLine
 10
31.05472192049848
 20
40.038828734246
 11
30.6934083148892
 21
40.485157305881
  0
LINE
  5
5B
100
AcDbEntity
  8
MILL
  6
ByLayer
 62
  256
100
AcDbLine
 10
30.6934083148892
 20
40.485157305881
 11
30.33209470927992
 21
40.93148587751598
  0
LINE
  5
5C
100
AcDbEntity
  8
MILL
  6
ByLayer
 62
  256
100
AcDbLine
 10
30.33209470927992
 20
40.93148587751598
 11
29.97078110367064
 21
41.37781444915097
  0
LINE
  5
5D
100
AcDbEntity
  8
MILL
  6
ByLayer
 62
  256
100
AcDbLine
 10
29.97078110367064
 20
41.37781444915097
 11
29.60946749806136
 21
41.82414302078597
  0
LINE
  5
5E
100
AcDbEntity
  8
MILL
  6
ByLayer
 62
  256
100
AcDbLine
 10
29.60946749806136
 20
41.82414302078597
 11
29.24815389245208
 21
42.27047159242096
  0
LINE
  5
5F
100
AcDbEntity
  8
MILL
  6
ByLayer
 62
  256
100
AcDbLine
 10
29.24815389245208
 20
42.27047159242096
 11
28.88684028684281
 21
42.71680016405595
  0
LINE
  5
60
100
AcDbEntity
  8
MILL
  6
ByLayer
 62
  256
100
AcDbLine
 10
28.88684028684281
 20
42.71680016405595
 11
28.52552668123352
 21
43.16312873569095
  0
LINE
  5
61
100
AcDbEntity
  8
MILL
  6
ByLayer
 62
  256
100
AcDbLine
 10
28.52552668123352
 20
43.16312873569095
 11
28.32844653271938
 21
43.29923855503514
  0
LINE
  5
62
100
AcDbEntity
  8
MILL
  6
ByLayer
 62
  256
100
AcDbLine
 10
28.32844653271938
 20
43.29923855503514
 11
28.15841660066796
 21
43.38425352106086
  0
LINE
  5
63
100
AcDbEntity
  8
MILL
  6
ByLayer
 62
  256
100
AcDbLine
 10
28.15841660066796
 20
43.38425352106086
 11
27.98838666861652
 21
43.46926848708657
  0
LINE
  5
64
100
AcDbEntity
  8
MILL
  6
ByLayer
 62
  256
100
AcDbLine
 10
27.98838666861652
 20
43.46926848708657
 11
27.8183567365651
 21
43.55428345311228
  0
LINE
  5
65
100
AcDbEntity
  8
MILL
  6
ByLayer
 62
  256
100
AcDbLine
 10
27.8183567365651
 20
43.55428345311228
 11
27.64832680451368
 21
43.63929841913799
  0
LINE
  5
66
100
AcDbEntity
  8
MILL
  6
ByLayer
 62
  256
100
AcDbLine
 10
27.64832680451368
 20
43.63929841913799
 11
27.47829687246225
 21
43.7243133851637
  0
LINE
  5
67
100
AcDbEntity
  8
MILL
  6
ByLayer
 62
  256
100
AcDbLine
 10
27.47829687246225
 20
43.7243133851637
 11
27.30826694041083
 21
43.80932835118941
  0
LINE
  5
68
100
AcDbEntity
  8
MILL
  6
ByLayer
 62
  256
100
AcDbLine
 10
27.30826694041083
 20
43.80932835118941
 11
27.13823700835941
 21
43.89434331721512
  0
LINE
  5
69
100
AcDbEntity
  8
MILL
  6
ByLayer
 62
  256
100
AcDbLine
 10
27.13823700835941
 20
43.89434331721512
 11
27.00169782049993
 21
43.878886050665
  0
LINE
  5
6A
100
AcDbEntity
  8
MILL
  6
ByLayer
 62
  256
100
AcDbLine
 10
27.00169782049993
 20
43.878886050665
 11
26.87417537146136
 21
43.83637856765214
  0
LINE
  5
6B
100
AcDbEntity
  8
MILL
  6
ByLayer
 62
  256
100
AcDbLine
 10
26.87417537146136
 20
43.83637856765214
 11
26.74665292242279
 21
43.79387108463928
  0
LINE
  5
6C
100
AcDbEntity
  8
MILL
  6
ByLayer
 62
  256
100
AcDbLine
 10
26.74665292242279
 20
43.79387108463928
 11
26.61913047338422
 21
43.75136360162642
  0
LINE
  5
6D
100
AcDbEntity
  8
MILL
  6
ByLayer
 62
  256
100
AcDbLine
 10
26.61913047338422
 20
43.75136360162642
 11
26.49160802434566
 21
43.70885611861357
  0
LINE
  5
6E
100
AcDbEntity
  8
MILL
  6
ByLayer
 62
  256
100
AcDbLine
 10
26.49160802434566
 20
43.70885611861357
 11
26.36408557530708
 21
43.66634863560072
  0
LINE
  5
6F
100
AcDbEntity
  8
MILL
  6
ByLayer
 62
  256
100
AcDbLine
 10
26.36408557530708
 20
43.66634863560072
 11
26.23656312626852
 21
43.62384115258786
  0
LINE
  5
70
100
AcDbEntity
  8
MILL
  6
ByLayer
 62
  256
100
AcDbLine
 10
26.23656312626852
 20
43.62384115258786
 11
26.10904067722995
 21
43.581333669575
  0
LINE
  5
71
100
AcDbEntity
  8
MILL
  6
ByLayer
 62
  256
100
AcDbLine
 10
26.10904067722995
 20
43.581333669575
 11
25.95103306360641
 21
43.52358360426965
  0
LINE
  5
72
100
AcDbEntity
  8
MILL
  6
ByLayer
 62
  256
100
AcDbLine
 10
25.95103306360641
 20
43.52358360426965
 11
25.78100313155498
 21
43.45982237975037
  0
LINE
  5
73
100
AcDbEntity
  8
MILL
  6
ByLayer
 62
  256
100
AcDbLine
 10
25.78100313155498
 20
43.45982237975037
 11
25.61097319950355
 21
43.39606115523109
  0
LINE
  5
74
100
AcDbEntity
  8
MILL
  6
ByLayer
 62
  256
100
AcDbLine
 10
25.61097319950355
 20
43.39606115523109
 11
25.44094326745212
 21
43.33229993071181
  0
LINE
  5
75
100
AcDbEntity
  8
MILL
  6
ByLayer
 62
  256
100
AcDbLine
 10
25.44094326745212
 20
43.33229993071181
 11
25.2709133354007
 21
43.26853870619252
  0
LINE
  5
76
100
AcDbEntity
  8
MILL
  6
ByLayer
 62
  256
100
AcDbLine
 10
25.2709133354007
 20
43.26853870619252
 11
25.10088340334927
 21
43.20477748167323
  0
LINE
  5
77
100
AcDbEntity
  8
MILL
  6
ByLayer
 62
  256
100
AcDbLine
 10
25.10088340334927
 20
43.20477748167323
 11
24.93085347129785
 21
43.14101625715395
  0
LINE
  5
78
100
AcDbEntity
  8
MILL
  6
ByLayer
 62
  256
100
AcDbLine
 10
24.93085347129785
 20
43.14101625715395
 11
24.76082353924642
 21
43.07725503263467
  0
LINE
  5
79
100
AcDbEntity
  8
MILL
  6
ByLayer
 62
  256
100
AcDbLine
 10
24.76082353924642
 20
43.07725503263467
 11
24.45339568230496
 21
43.02723360060439
  0
LINE
  5
7A
100
AcDbEntity
  8
MILL
  6
ByLayer
 62
  256
100
AcDbLine
 10
24.45339568230496
 20
43.02723360060439
 11
24.07082833518926
 21
42.98472611759153
  0
LINE
  5
7B
100
AcDbEntity
  8
MILL
  6
ByLayer
 62
  256
100
AcDbLine
 10
24.07082833518926
 20
42.98472611759153
 11
23.68826098807355
 21
42.94221863457867
  0
LINE
  5
7C
100
AcDbEntity
  8
MILL
  6
ByLayer
 62
  256
100
AcDbLine
 10
23.68826098807355
 20
42.94221863457867
 11
23.30569364095784
 21
42.89971115156582
  0
LINE
  5
7D
100
AcDbEntity
  8
MILL
  6
ByLayer
 62
  256
100
AcDbLine
 10
23.30569364095784
 20
42.89971115156582
 11
22.92312629384215
 21
42.85720366855296
  0
LINE
  5
7E
100
AcDbEntity
  8
MILL
  6
ByLayer
 62
  256
100
AcDbLine
 10
22.92312629384215
 20
42.85720366855296
 11
22.54055894672643
 21
42.8146961855401
  0
LINE
  5
7F
100
AcDbEntity
  8
MILL
  6
ByLayer
 62
  256
100
AcDbLine
 10
22.54055894672643
 20
42.8146961855401
 11
22.15799159961074
 21
42.77218870252725
  0
LINE
  5
80
100
AcDbEntity
  8
MILL
  6
ByLayer
 62
  256
100
AcDbLine
 10
22.15799159961074
 20
42.77218870252725
 11
21.77542425249503
 21
42.72968121951439
  0
LINE
  5
81
100
AcDbEntity
  8
MILL
  6
ByLayer
 62
  256
100
AcDbLine
 10
21.77542425249503
 20
42.72968121951439
 11
21.41733091075036
 21
42.80954376335671
  0
LINE
  5
82
100
AcDbEntity
  8
MILL
  6
ByLayer
 62
  256
100
AcDbLine
 10
21.41733091075036
 20
42.80954376335671
 11
21.07727104664751
 21
42.97957369540814
  0
LINE
  5
83
100
AcDbEntity
  8
MILL
  6
ByLayer
 62
  256
100
AcDbLine
 10
21.07727104664751
 20
42.97957369540814
 11
20.73721118254466
 21
43.14960362745957
  0
LINE
  5
84
100
AcDbEntity
  8
MILL
  6
ByLayer
 62
  256
100
AcDbLine
 10
20.73721118254466
 20
43.14960362745957
 11
20.39715131844181
 21
43.31963355951099
  0
LINE
  5
85
100
AcDbEntity
  8
MILL
  6
ByLayer
 62
  256
100
AcDbLine
 10
20.39715131844181
 20
43.31963355951099
 11
20.05709145433896
 21
43.48966349156242
  0
LINE
  5
86
100
AcDbEntity
  8
MILL
  6
ByLayer
 62
  256
100
AcDbLine
 10
20.05709145433896
 20
43.48966349156242
 11
19.71703159023612
 21
43.65969342361385
  0
LINE
  5
87
100
AcDbEntity
  8
MILL
  6
ByLayer
 62
  256
100
AcDbLine
 10
19.71703159023612
 20
43.65969342361385
 11
19.37697172613326
 21
43.82972335566527
  0
LINE
  5
88
100
AcDbEntity
  8
MILL
  6
ByLayer
 62
  256
100
AcDbLine
 10
19.37697172613326
 20
43.82972335566527
 11
19.03691186203042
 21
43.99975328771669
  0
LINE
  5
89
100
AcDbEntity
  8
MILL
  6
ByLayer
 62
  256
100
AcDbLine
 10
19.03691186203042
 20
43.99975328771669
 11
18.76125727521977
 21
44.15904900688609
  0
LINE
  5
8A
100
AcDbEntity
  8
MILL
  6
ByLayer
 62
  256
100
AcDbLine
 10
18.76125727521977
 20
44.15904900688609
 11
18.54871986015548
 21
44.30782519743108
  0
LINE
  5
8B
100
AcDbEntity
  8
MILL
  6
ByLayer
 62
  256
100
AcDbLine
 10
18.54871986015548
 20
44.30782519743108
 11
18.3361824450912
 21
44.45660138797609
  0
LINE
  5
8C
100
AcDbEntity
  8
MILL
  6
ByLayer
 62
  256
100
AcDbLine
 10
18.3361824450912
 20
44.45660138797609
 11
18.12364503002692
 21
44.60537757852108
  0
LINE
  5
8D
100
AcDbEntity
  8
MILL
  6
ByLayer
 62
  256
100
AcDbLine
 10
18.12364503002692
 20
44.60537757852108
 11
17.91110761496265
 21
44.75415376906607
  0
LINE
  5
8E
100
AcDbEntity
  8
MILL
  6
ByLayer
 62
  256
100
AcDbLine
 10
17.91110761496265
 20
44.75415376906607
 11
17.69857019989836
 21
44.90292995961106
  0
LINE
  5
8F
100
AcDbEntity
  8
MILL
  6
ByLayer
 62
  256
100
AcDbLine
 10
17.69857019989836
 20
44.90292995961106
 11
17.48603278483408
 21
45.05170615015606
  0
LINE
  5
90
100
AcDbEntity
  8
MILL
  6
ByLayer
 62
  256
100
AcDbLine
 10
17.48603278483408
 20
45.05170615015606
 11
17.2734953697698
 21
45.20048234070106
  0
LINE
  5
91
100
AcDbEntity
  8
MILL
  6
ByLayer
 62
  256
100
AcDbLine
 10
17.2734953697698
 20
45.20048234070106
 11
17.08865222394116
 21
45.31233283893187
  0
LINE
  5
92
100
AcDbEntity
  8
MILL
  6
ByLayer
 62
  256
100
AcDbLine
 10
17.08865222394116
 20
45.31233283893187
 11
16.93987603339617
 21
45.37609406345115
  0
LINE
  5
93
100
AcDbEntity
  8
MILL
  6
ByLayer
 62
  256
100
AcDbLine
 10
16.93987603339617
 20
45.37609406345115
 11
16.79109984285117
 21
45.43985528797043
  0
LINE
  5
94
100
AcDbEntity
  8
MILL
  6
ByLayer
 62
  256
100
AcDbLine
 10
16.79109984285117
 20
45.43985528797043
 11
16.64232365230617
 21
45.50361651248971
  0
LINE
  5
95
100
AcDbEntity
  8
MILL
  6
ByLayer
 62
  256
100
AcDbLine
 10
16.64232365230617
 20
45.50361651248971
 11
16.49354746176118
 21
45.567377737009
  0
LINE
  5
96
100
AcDbEntity
  8
MILL
  6
ByLayer
 62
  256
100
AcDbLine
 10
16.49354746176118
 20
45.567377737009
 11
16.34477127121618
 21
45.63113896152828
  0
LINE
  5
97
100
AcDbEntity
  8
MILL
  6
ByLayer
 62
  256
100
AcDbLine
 10
16.34477127121618
 20
45.63113896152828
 11
16.19599508067118
 21
45.69490018604756
  0
LINE
  5
98
100
AcDbEntity
  8
MILL
  6
ByLayer
 62
  256
100
AcDbLine
 10
16.19599508067118
 20
45.69490018604756
 11
16.04721889012619
 21
45.75866141056684
  0
LINE
  5
99
100
AcDbEntity
  8
MILL
  6
ByLayer
 62
  256
100
AcDbLine
 10
16.04721889012619
 20
45.75866141056684
 11
15.88298543303106
 21
45.77605083543577
  0
LINE
  5
9A
100
AcDbEntity
  8
MILL
  6
ByLayer
 62
  256
100
AcDbLine
 10
15.88298543303106
 20
45.77605083543577
 11
15.69170175947321
 21
45.71228961091649
  0
LINE
  5
9B
100
AcDbEntity
  8
MILL
  6
ByLayer
 62
  256
100
AcDbLine
 10
15.69170175947321
 20
45.71228961091649
 11
15.50041808591536
 21
45.6485283863972
  0
LINE
  5
9C
100
AcDbEntity
  8
MILL
  6
ByLayer
 62
  256
100
AcDbLine
 10
15.50041808591536
 20
45.6485283863972
 11
15.3091344123575
 21
45.58476716187791
  0
LINE
  5
9D
100
AcDbEntity
  8
MILL
  6
ByLayer
 62
  256
100
AcDbLine
 10
15.3091344123575
 20
45.58476716187791
 11
15.11785073879966
 21
45.52100593735862
  0
LINE
  5
9E
100
AcDbEntity
  8
MILL
  6
ByLayer
 62
  256
100
AcDbLine
 10
15.11785073879966
 20
45.52100593735862
 11
14.9265670652418
 21
45.45724471283934
  0
LINE
  5
9F
100
AcDbEntity
  8
MILL
  6
ByLayer
 62
  256
100
AcDbLine
 10
14.9265670652418
 20
45.45724471283934
 11
14.73528339168395
 21
45.39348348832006
  0
LINE
  5
A0
100
AcDbEntity
  8
MILL
  6
ByLayer
 62
  256
100
AcDbLine
 10
14.73528339168395
 20
45.39348348832006
 11
14.5439997181261
 21
45.32972226380078
  0
LINE
  5
A1
100
AcDbEntity
  8
MILL
  6
ByLayer
 62
  256
100
AcDbLine
 10
14.5439997181261
 20
45.32972226380078
 11
14.32781267068194
 21
45.23483182192361
  0
LINE
  5
A2
100
AcDbEntity
  8
MILL
  6
ByLayer
 62
  256
100
AcDbLine
 10
14.32781267068194
 20
45.23483182192361
 11
14.05151403109837
 21
45.06480188987219
  0
LINE
  5
A3
100
AcDbEntity
  8
MILL
  6
ByLayer
 62
  256
100
AcDbLine
 10
14.05151403109837
 20
45.06480188987219
 11
13.7752153915148
 21
44.89477195782075
  0
LINE
  5
A4
100
AcDbEntity
  8
MILL
  6
ByLayer
 62
  256
100
AcDbLine
 10
13.7752153915148
 20
44.89477195782075
 11
13.49891675193125
 21
44.72474202576933
  0
LINE
  5
A5
100
AcDbEntity
  8
MILL
  6
ByLayer
 62
  256
100
AcDbLine
 10
13.49891675193125
 20
44.72474202576933
 11
13.22261811234767
 21
44.55471209371791
  0
LINE
  5
A6
100
AcDbEntity
  8
MILL
  6
ByLayer
 62
  256
100
AcDbLine
 10
13.22261811234767
 20
44.55471209371791
 11
12.94631947276411
 21
44.38468216166648
  0
LINE
  5
A7
100
AcDbEntity
  8
MILL
  6
ByLayer
 62
  256
100
AcDbLine
 10
12.94631947276411
 20
44.38468216166648
 11
12.67002083318055
 21
44.21465222961506
  0
LINE
  5
A8
100
AcDbEntity
  8
MILL
  6
ByLayer
 62
  256
100
AcDbLine
 10
12.67002083318055
 20
44.21465222961506
 11
12.39372219359698
 21
44.04462229756363
  0
LINE
  5
A9
100
AcDbEntity
  8
MILL
  6
ByLayer
 62
  256
100
AcDbLine
 10
12.39372219359698
 20
44.04462229756363
 11
12.05130080266014
 21
43.92182290219312
  0
LINE
  5
AA
100
AcDbEntity
  8
MILL
  6
ByLayer
 62
  256
100
AcDbLine
 10
12.05130080266014
 20
43.92182290219312
 11
11.47744978198658
 21
43.96433038520598
  0
LINE
  5
AB
100
AcDbEntity
  8
MILL
  6
ByLayer
 62
  256
100
AcDbLine
 10
11.47744978198658
 20
43.96433038520598
 11
10.90359876131302
 21
44.00683786821884
  0
LINE
  5
AC
100
AcDbEntity
  8
MILL
  6
ByLayer
 62
  256
100
AcDbLine
 10
10.90359876131302
 20
44.00683786821884
 11
10.32974774063946
 21
44.04934535123169
  0
LINE
  5
AD
100
AcDbEntity
  8
MILL
  6
ByLayer
 62
  256
100
AcDbLine
 10
10.32974774063946
 20
44.04934535123169
 11
9.755896719965904
 21
44.09185283424455
  0
LINE
  5
AE
100
AcDbEntity
  8
MILL
  6
ByLayer
 62
  256
100
AcDbLine
 10
9.755896719965904
 20
44.09185283424455
 11
9.182045699292349
 21
44.1343603172574
  0
LINE
  5
AF
100
AcDbEntity
  8
MILL
  6
ByLayer
 62
  256
100
AcDbLine
 10
9.182045699292349
 20
44.1343603172574
 11
8.608194678618782
 21
44.17686780027026
  0
LINE
  5
B0
100
AcDbEntity
  8
MILL
  6
ByLayer
 62
  256
100
AcDbLine
 10
8.608194678618782
 20
44.17686780027026
 11
8.034343657945227
 21
44.21937528328311
  0
LINE
  5
B1
100
AcDbEntity
  8
MILL
  6
ByLayer
 62
  256
100
AcDbLine
 10
8.034343657945227
 20
44.21937528328311
 11
7.508796595240756
 21
44.31018672426507
  0
LINE
  5
B2
100
AcDbEntity
  8
MILL
  6
ByLayer
 62
  256
100
AcDbLine
 10
7.508796595240756
 20
44.31018672426507
 11
7.253751697163626
 21
44.67150032987435
  0
LINE
  5
B3
100
AcDbEntity
  8
MILL
  6
ByLayer
 62
  256
100
AcDbLine
 10
7.253751697163626
 20
44.67150032987435
 11
6.998706799086489
 21
45.03281393548363
  0
LINE
  5
B4
100
AcDbEntity
  8
MILL
  6
ByLayer
 62
  256
100
AcDbLine
 10
6.998706799086489
 20
45.03281393548363
 11
6.743661901009353
 21
45.3941275410929
  0
LINE
  5
B5
100
AcDbEntity
  8
MILL
  6
ByLayer
 62
  256
100
AcDbLine
 10
6.743661901009353
 20
45.3941275410929
 11
6.488617002932211
 21
45.75544114670218
  0
LINE
  5
B6
100
AcDbEntity
  8
MILL
  6
ByLayer
 62
  256
100
AcDbLine
 10
6.488617002932211
 20
45.75544114670218
 11
6.23357210485508
 21
46.11675475231146
  0
LINE
  5
B7
100
AcDbEntity
  8
MILL
  6
ByLayer
 62
  256
100
AcDbLine
 10
6.23357210485508
 20
46.11675475231146
 11
5.978527206777944
 21
46.47806835792073
  0
LINE
  5
B8
100
AcDbEntity
  8
MILL
  6
ByLayer
 62
  256
100
AcDbLine
 10
5.978527206777944
 20
46.47806835792073
 11
5.723482308700802
 21
46.83938196353
  0
LINE
  5
B9
100
AcDbEntity
  8
MILL
  6
ByLayer
 62
  256
100
AcDbLine
 10
5.723482308700802
 20
46.83938196353
 11
5.490764573418239
 21
47.20928293944488
  0
LINE
  5
BA
100
AcDbEntity
  8
MILL
  6
ByLayer
 62
  256
100
AcDbLine
 10
5.490764573418239
 20
47.20928293944488
 11
5.51201831492466
 21
47.6768652525863
  0
LINE
  5
BB
100
AcDbEntity
  8
MILL
  6
ByLayer
 62
  256
100
AcDbLine
 10
5.51201831492466
 20
47.6768652525863
 11
5.533272056431094
 21
48.14444756572772
  0
LINE
  5
BC
100
AcDbEntity
  8
MILL
  6
ByLayer
 62
  256
100
AcDbLine
 10
5.533272056431094
 20
48.14444756572772
 11
5.554525797937521
 21
48.61202987886915
  0
LINE
  5
BD
100
AcDbEntity
  8
MILL
  6
ByLayer
 62
  256
100
AcDbLine
 10
5.554525797937521
 20
48.61202987886915
 11
5.575779539443954
 21
49.07961219201056
  0
LINE
  5
BE
100
AcDbEntity
  8
MILL
  6
ByLayer
 62
  256
100
AcDbLine
 10
5.575779539443954
 20
49.07961219201056
 11
5.597033280950376
 21
49.54719450515199
  0
LINE
  5
BF
100
AcDbEntity
  8
MILL
  6
ByLayer
 62
  256
100
AcDbLine
 10
5.597033280950376
 20
49.54719450515199
 11
5.618287022456804
 21
50.01477681829339
  0
LINE
  5
C0
100
AcDbEntity
  8
MILL
  6
ByLayer
 62
  256
100
AcDbLine
 10
5.618287022456804
 20
50.01477681829339
 11
5.639540763963232
 21
50.48235913143481
  0
LINE
  5
C1
100
AcDbEntity
  8
MILL
  6
ByLayer
 62
  256
100
AcDbLine
 10
5.639540763963232
 20
50.48235913143481
 11
5.663370716561281
 21
50.94886802328804
  0
LINE
  5
C2
100
AcDbEntity
  8
MILL
  6
ByLayer
 62
  256
100
AcDbLine
 10
5.663370716561281
 20
50.94886802328804
 11
5.939669356144851
 21
51.31018162889733
  0
LINE
  5
C3
100
AcDbEntity
  8
MILL
  6
ByLayer
 62
  256
100
AcDbLine
 10
5.939669356144851
 20
51.31018162889733
 11
6.215967995728414
 21
51.6714952345066
  0
LINE
  5
C4
100
AcDbEntity
  8
MILL
  6
ByLayer
 62
  256
100
AcDbLine
 10
6.215967995728414
 20
51.6714952345066
 11
6.492266635311978
 21
52.03280884011588
  0
LINE
  5
C5
100
AcDbEntity
  8
MILL
  6
ByLayer
 62
  256
100
AcDbLine
 10
6.492266635311978
 20
52.03280884011588
 11
6.768565274895548
 21
52.39412244572516
  0
LINE
  5
C6
100
AcDbEntity
  8
MILL
  6
ByLayer
 62
  256
100
AcDbLine
 10
6.768565274895548
 20
52.39412244572516
 11
7.044863914479112
 21
52.75543605133443
  0
LINE
  5
C7
100
AcDbEntity
  8
MILL
  6
ByLayer
 62
  256
100
AcDbLine
 10
7.044863914479112
 20
52.75543605133443
 11
7.321162554062676
 21
53.11674965694371
  0
LINE
  5
C8
100
AcDbEntity
  8
MILL
  6
ByLayer
 62
  256
100
AcDbLine
 10
7.321162554062676
 20
53.11674965694371
 11
7.59746119364624
 21
53.47806326255299
  0
LINE
  5
C9
100
AcDbEntity
  8
MILL
  6
ByLayer
 62
  256
100
AcDbLine
 10
7.59746119364624
 20
53.47806326255299
 11
7.873759833229804
 21
53.83937686816227
  0
LINE
  5
CA
100
AcDbEntity
  8
MILL
  6
ByLayer
 62
  256
100
AcDbLine
 10
7.873759833229804
 20
53.83937686816227
 11
8.349714832419147
 21
54.02099975012634
  0
LINE
  5
CB
100
AcDbEntity
  8
MILL
  6
ByLayer
 62
  256
100
AcDbLine
 10
8.349714832419147
 20
54.02099975012634
 11
8.838550887066999
 21
54.19102968217776
  0
LINE
  5
CC
100
AcDbEntity
  8
MILL
  6
ByLayer
 62
  256
100
AcDbLine
 10
8.838550887066999
 20
54.19102968217776
 11
9.327386941714838
 21
54.36105961422919
  0
LINE
  5
CD
100
AcDbEntity
  8
MILL
  6
ByLayer
 62
  256
100
AcDbLine
 10
9.327386941714838
 20
54.36105961422919
 11
9.816222996362683
 21
54.53108954628061
  0
LINE
  5
CE
100
AcDbEntity
  8
MILL
  6
ByLayer
 62
  256
100
AcDbLine
 10
9.816222996362683
 20
54.53108954628061
 11
10.30505905101053
 21
54.70111947833205
  0
LINE
  5
CF
100
AcDbEntity
  8
MILL
  6
ByLayer
 62
  256
100
AcDbLine
 10
10.30505905101053
 20
54.70111947833205
 11
10.79389510565837
 21
54.87114941038347
  0
LINE
  5
D0
100
AcDbEntity
  8
MILL
  6
ByLayer
 62
  256
100
AcDbLine
 10
10.79389510565837
 20
54.87114941038347
 11
11.28273116030623
 21
55.04117934243489
  0
LINE
  5
D1
100
AcDbEntity
  8
MILL
  6
ByLayer
 62
  256
100
AcDbLine
 10
11.28273116030623
 20
55.04117934243489
 11
11.77156721495407
 21
55.21120927448632
  0
LINE
  5
D2
100
AcDbEntity
  8
MILL
  6
ByLayer
 62
  256
100
AcDbLine
 10
11.77156721495407
 20
55.21120927448632
 11
12.18655188497355
 21
55.5104791296374
  0
LINE
  5
D3
100
AcDbEntity
  8
MILL
  6
ByLayer
 62
  256
100
AcDbLine
 10
12.18655188497355
 20
55.5104791296374
 11
12.59037297359569
 21
55.82928525223382
  0
LINE
  5
D4
100
AcDbEntity
  8
MILL
  6
ByLayer
 62
  256
100
AcDbLine
 10
12.59037297359569
 20
55.82928525223382
 11
12.99419406221782
 21
56.14809137483024
  0
LINE
  5
D5
100
AcDbEntity
  8
MILL
  6
ByLayer
 62
  256
100
AcDbLine
 10
12.99419406221782
 20
56.14809137483024
 11
13.39801515083996
 21
56.46689749742667
  0
LINE
  5
D6
100
AcDbEntity
  8
MILL
  6
ByLayer
 62
  256
100
AcDbLine
 10
13.39801515083996
 20
56.46689749742667
 11
13.8018362394621
 21
56.7857036200231
  0
LINE
  5
D7
100
AcDbEntity
  8
MILL
  6
ByLayer
 62
  256
100
AcDbLine
 10
13.8018362394621
 20
56.7857036200231
 11
14.20565732808424
 21
57.10450974261952
  0
LINE
  5
D8
100
AcDbEntity
  8
MILL
  6
ByLayer
 62
  256
100
AcDbLine
 10
14.20565732808424
 20
57.10450974261952
 11
14.60947841670638
 21
57.42331586521595
  0
LINE
  5
D9
100
AcDbEntity
  8
MILL
  6
ByLayer
 62
  256
100
AcDbLine
 10
14.60947841670638
 20
57.42331586521595
 11
15.01329950532852
 21
57.74212198781237
  0
LINE
  5
DA
100
AcDbEntity
  8
MILL
  6
ByLayer
 62
  256
100
AcDbLine
 10
15.01329950532852
 20
57.74212198781237
 11
15.17967980500012
 21
58.01004794134797
  0
LINE
  5
DB
100
AcDbEntity
  8
MILL
  6
ByLayer
 62
  256
100
AcDbLine
 10
15.17967980500012
 20
58.01004794134797
 11
15.28594851253226
 21
58.26509283942511
  0
LINE
  5
DC
100
AcDbEntity
  8
MILL
  6
ByLayer
 62
  256
100
AcDbLine
 10
15.28594851253226
 20
58.26509283942511
 11
15.39221722006441
 21
58.52013773750224
  0
LINE
  5
DD
100
AcDbEntity
  8
MILL
  6
ByLayer
 62
  256
100
AcDbLine
 10
15.39221722006441
 20
58.52013773750224
 11
15.49848592759655
 21
58.7751826355794
  0
LINE
  5
DE
100
AcDbEntity
  8
MILL
  6
ByLayer
 62
  256
100
AcDbLine
 10
15.49848592759655
 20
58.7751826355794
 11
15.60475463512869
 21
59.03022753365653
  0
LINE
  5
DF
100
AcDbEntity
  8
MILL
  6
ByLayer
 62
  256
100
AcDbLine
 10
15.60475463512869
 20
59.03022753365653
 11
15.71102334266083
 21
59.28527243173367
  0
LINE
  5
E0
100
AcDbEntity
  8
MILL
  6
ByLayer
 62
  256
100
AcDbLine
 10
15.71102334266083
 20
59.28527243173367
 11
15.81729205019298
 21
59.54031732981081
  0
LINE
  5
E1
100
AcDbEntity
  8
MILL
  6
ByLayer
 62
  256
100
AcDbLine
 10
15.81729205019298
 20
59.54031732981081
 11
15.92356075772511
 21
59.79536222788794
  0
LINE
  5
E2
100
AcDbEntity
  8
MILL
  6
ByLayer
 62
  256
100
AcDbLine
 10
15.92356075772511
 20
59.79536222788794
 11
15.68976960115447
 21
59.92674899356408
  0
LINE
  5
E3
100
AcDbEntity
  8
MILL
  6
ByLayer
 62
  256
100
AcDbLine
 10
15.68976960115447
 20
59.92674899356408
 11
15.32845599554519
 21
60.01176395958979
  0
LINE
  5
E4
100
AcDbEntity
  8
MILL
  6
ByLayer
 62
  256
100
AcDbLine
 10
15.32845599554519
 20
60.01176395958979
 11
14.96714238993591
 21
60.0967789256155
  0
LINE
  5
E5
100
AcDbEntity
  8
MILL
  6
ByLayer
 62
  256
100
AcDbLine
 10
14.96714238993591
 20
60.0967789256155
 11
14.60582878432662
 21
60.18179389164121
  0
LINE
  5
E6
100
AcDbEntity
  8
MILL
  6
ByLayer
 62
  256
100
AcDbLine
 10
14.60582878432662
 20
60.18179389164121
 11
14.24451517871734
 21
60.26680885766692
  0
LINE
  5
E7
100
AcDbEntity
  8
MILL
  6
ByLayer
 62
  256
100
AcDbLine
 10
14.24451517871734
 20
60.26680885766692
 11
13.88320157310806
 21
60.35182382369263
  0
LINE
  5
E8
100
AcDbEntity
  8
MILL
  6
ByLayer
 62
  256
100
AcDbLine
 10
13.88320157310806
 20
60.35182382369263
 11
13.52188796749878
 21
60.43683878971836
  0
LINE
  5
E9
100
AcDbEntity
  8
MILL
  6
ByLayer
 62
  256
100
AcDbLine
 10
13.52188796749878
 20
60.43683878971836
 11
13.1605743618895
 21
60.52185375574408
  0
LINE
  5
EA
100
AcDbEntity
  8
MILL
  6
ByLayer
 62
  256
100
AcDbLine
 10
13.1605743618895
 20
60.52185375574408
 11
12.46435331436076
 21
60.67664110550301
  0
LINE
  5
EB
100
AcDbEntity
  8
MILL
  6
ByLayer
 62
  256
100
AcDbLine
 10
12.46435331436076
 20
60.67664110550301
 11
11.59294991259719
 21
60.86792477906086
  0
LINE
  5
EC
100
AcDbEntity
  8
MILL
  6
ByLayer
 62
  256
100
AcDbLine
 10
11.59294991259719
 20
60.86792477906086
 11
10.72154651083363
 21
61.05920845261872
  0
LINE
  5
ED
100
AcDbEntity
  8
MILL
  6
ByLayer
 62
  256
100
AcDbLine
 10
10.72154651083363
 20
61.05920845261872
 11
9.85014310907007
 21
61.25049212617657
  0
LINE
  5
EE
100
AcDbEntity
  8
MILL
  6
ByLayer
 62
  256
100
AcDbLine
 10
9.85014310907007
 20
61.25049212617657
 11
8.978739707306501
 21
61.44177579973442
  0
LINE
  5
EF
100
AcDbEntity
  8
MILL
  6
ByLayer
 62
  256
100
AcDbLine
 10
8.978739707306501
 20
61.44177579973442
 11
8.107336305542942
 21
61.63305947329227
  0
LINE
  5
F0
100
AcDbEntity
  8
MILL
  6
ByLayer
 62
  256
100
AcDbLine
 10
8.107336305542942
 20
61.63305947329227
 11
7.235932903779378
 21
61.82434314685013
  0
LINE
  5
F1
100
AcDbEntity
  8
MILL
  6
ByLayer
 62
  256
100
AcDbLine
 10
7.235932903779378
 20
61.82434314685013
 11
6.364529502015813
 21
62.01562682040799
  0
LINE
  5
F2
100
AcDbEntity
  8
MILL
  6
ByLayer
 62
  256
100
AcDbLine
 10
6.364529502015813
 20
62.01562682040799
 11
5.804418273831266
 21
62.26916892868164
  0
LINE
  5
F3
100
AcDbEntity
  8
MILL
  6
ByLayer
 62
  256
100
AcDbLine
 10
5.804418273831266
 20
62.26916892868164
 11
5.464358409728419
 21
62.56672130977165
  0
LINE
  5
F4
100
AcDbEntity
  8
MILL
  6
ByLayer
 62
  256
100
AcDbLine
 10
5.464358409728419
 20
62.56672130977165
 11
5.124298545625561
 21
62.86427369086164
  0
LINE
  5
F5
100
AcDbEntity
  8
MILL
  6
ByLayer
 62
  256
100
AcDbLine
 10
5.124298545625561
 20
62.86427369086164
 11
4.784238681522709
 21
63.16182607195162
  0
LINE
  5
F6
100
AcDbEntity
  8
MILL
  6
ByLayer
 62
  256
100
AcDbLine
 10
4.784238681522709
 20
63.16182607195162
 11
4.444178817419856
 21
63.45937845304164
  0
LINE
  5
F7
100
AcDbEntity
  8
MILL
  6
ByLayer
 62
  256
100
AcDbLine
 10
4.444178817419856
 20
63.45937845304164
 11
4.104118953317005
 21
63.75693083413162
  0
LINE
  5
F8
100
AcDbEntity
  8
MILL
  6
ByLayer
 62
  256
100
AcDbLine
 10
4.104118953317005
 20
63.75693083413162
 11
3.764059089214146
 21
64.05448321522162
  0
LINE
  5
F9
100
AcDbEntity
  8
MILL
  6
ByLayer
 62
  256
100
AcDbLine
 10
3.764059089214146
 20
64.05448321522162
 11
3.423999225111294
 21
64.35203559631161
  0
LINE
  5
FA
100
AcDbEntity
  8
MILL
  6
ByLayer
 62
  256
100
AcDbLine
 10
3.423999225111294
 20
64.35203559631161
 11
3.182479435265543
 21
64.68243466882066
  0
LINE
  5
FB
100
AcDbEntity
  8
MILL
  6
ByLayer
 62
  256
100
AcDbLine
 10
3.182479435265543
 20
64.68243466882066
 11
3.033703244720545
 21
65.04374827442994
  0
LINE
  5
FC
100
AcDbEntity
  8
MILL
  6
ByLayer
 62
  256
100
AcDbLine
 10
3.033703244720545
 20
65.04374827442994
 11
2.884927054175546
 21
65.40506188003921
  0
LINE
  5
FD
100
AcDbEntity
  8
MILL
  6
ByLayer
 62
  256
100
AcDbLine
 10
2.884927054175546
 20
65.40506188003921
 11
2.736150863630547
 21
65.7663754856485
  0
LINE
  5
FE
100
AcDbEntity
  8
MILL
  6
ByLayer
 62
  256
100
AcDbLine
 10
2.736150863630547
 20
65.7663754856485
 11
2.587374673085549
 21
66.12768909125778
  0
LINE
  5
FF
100
AcDbEntity
  8
MILL
  6
ByLayer
 62
  256
100
AcDbLine
 10
2.587374673085549
 20
66.12768909125778
 11
2.43859848254055
 21
66.48900269686706
  0
LINE
  5
100
100
AcDbEntity
  8
MILL
  6
ByLayer
 62
  256
100
AcDbLine
 10
2.43859848254055
 20
66.48900269686706
 11
2.289822291995552
 21
66.85031630247634
  0
LINE
  5
101
100
AcDbEntity
  8
MILL
  6
ByLayer
 62
  256
100
AcDbLine
 10
2.289822291995552
 20
66.85031630247634
 11
2.141046101450547
 21
67.21162990808561
  0
LINE
  5
102
100
AcDbEntity
  8
MILL
  6
ByLayer
 62
  256
100
AcDbLine
 10
2.141046101450547
 20
67.21162990808561
 11
2.077284876931305
 21
67.48792854766914
  0
LINE
  5
103
100
AcDbEntity
  8
MILL
  6
ByLayer
 62
  256
100
AcDbLine
 10
2.077284876931305
 20
67.48792854766914
 11
2.119792359944165
 21
67.65795847972059
  0
LINE
  5
104
100
AcDbEntity
  8
MILL
  6
ByLayer
 62
  256
100
AcDbLine
 10
2.119792359944165
 20
67.65795847972059
 11
2.16229984295702
 21
67.82798841177201
  0
LINE
  5
105
100
AcDbEntity
  8
MILL
  6
ByLayer
 62
  256
100
AcDbLine
 10
2.16229984295702
 20
67.82798841177201
 11
2.204807325969875
 21
67.99801834382343
  0
LINE
  5
106
100
AcDbEntity
  8
MILL
  6
ByLayer
 62
  256
100
AcDbLine
 10
2.204807325969875
 20
67.99801834382343
 11
2.247314808982736
 21
68.16804827587487
  0
LINE
  5
107
100
AcDbEntity
  8
MILL
  6
ByLayer
 62
  256
100
AcDbLine
 10
2.247314808982736
 20
68.16804827587487
 11
2.289822291995591
 21
68.33807820792629
  0
LINE
  5
108
100
AcDbEntity
  8
MILL
  6
ByLayer
 62
  256
100
AcDbLine
 10
2.289822291995591
 20
68.33807820792629
 11
2.332329775008446
 21
68.50810813997771
  0
LINE
  5
109
100
AcDbEntity
  8
MILL
  6
ByLayer
 62
  256
100
AcDbLine
 10
2.332329775008446
 20
68.50810813997771
 11
2.374837258021307
 21
68.67813807202916
  0
LINE
  5
10A
100
AcDbEntity
  8
MILL
  6
ByLayer
 62
  256
100
AcDbLine
 10
2.374837258021307
 20
68.67813807202916
 11
2.496777916361282
 21
68.80845141641701
  0
LINE
  5
10B
100
AcDbEntity
  8
MILL
  6
ByLayer
 62
  256
100
AcDbLine
 10
2.496777916361282
 20
68.80845141641701
 11
2.751822814438424
 21
68.8722126409363
  0
LINE
  5
10C
100
AcDbEntity
  8
MILL
  6
ByLayer
 62
  256
100
AcDbLine
 10
2.751822814438424
 20
68.8722126409363
 11
3.006867712515566
 21
68.93597386545559
  0
LINE
  5
10D
100
AcDbEntity
  8
MILL
  6
ByLayer
 62
  256
100
AcDbLine
 10
3.006867712515566
 20
68.93597386545559
 11
3.261912610592702
 21
68.99973508997486
  0
LINE
  5
10E
100
AcDbEntity
  8
MILL
  6
ByLayer
 62
  256
100
AcDbLine
 10
3.261912610592702
 20
68.99973508997486
 11
3.51695750866985
 21
69.06349631449416
  0
LINE
  5
10F
100
AcDbEntity
  8
MILL
  6
ByLayer
 62
  256
100
AcDbLine
 10
3.51695750866985
 20
69.06349631449416
 11
3.772002406746987
 21
69.12725753901343
  0
LINE
  5
110
100
AcDbEntity
  8
MILL
  6
ByLayer
 62
  256
100
AcDbLine
 10
3.772002406746987
 20
69.12725753901343
 11
4.027047304824129
 21
69.19101876353272
  0
LINE
  5
111
100
AcDbEntity
  8
MILL
  6
ByLayer
 62
  256
100
AcDbLine
 10
4.027047304824129
 20
69.19101876353272
 11
4.282092202901265
 21
69.25477998805199
  0
LINE
  5
112
100
AcDbEntity
  8
MILL
  6
ByLayer
 62
  256
100
AcDbLine
 10
4.282092202901265
 20
69.25477998805199
 11
4.562899211895325
 21
69.29277910165438
  0
LINE
  5
113
100
AcDbEntity
  8
MILL
  6
ByLayer
 62
  256
100
AcDbLine
 10
4.562899211895325
 20
69.29277910165438
 11
4.902959075998183
 21
69.27152536014795
  0
LINE
  5
114
100
AcDbEntity
  8
MILL
  6
ByLayer
 62
  256
100
AcDbLine
 10
4.902959075998183
 20
69.27152536014795
 11
5.243018940101035
 21
69.25027161864151
  0
LINE
  5
115
100
AcDbEntity
  8
MILL
  6
ByLayer
 62
  256
100
AcDbLine
 10
5.243018940101035
 20
69.25027161864151
 11
5.583078804203888
 21
69.22901787713509
  0
LINE
  5
116
100
AcDbEntity
  8
MILL
  6
ByLayer
 62
  256
100
AcDbLine
 10
5.583078804203888
 20
69.22901787713509
 11
5.92313866830674
 21
69.20776413562865
  0
LINE
  5
117
100
AcDbEntity
  8
MILL
  6
ByLayer
 62
  256
100
AcDbLine
 10
5.92313866830674
 20
69.20776413562865
 11
6.263198532409593
 21
69.18651039412224
  0
LINE
  5
118
100
AcDbEntity
  8
MILL
  6
ByLayer
 62
  256
100
AcDbLine
 10
6.263198532409593
 20
69.18651039412224
 11
6.603258396512445
 21
69.1652566526158
  0
LINE
  5
119
100
AcDbEntity
  8
MILL
  6
ByLayer
 62
  256
100
AcDbLine
 10
6.603258396512445
 20
69.1652566526158
 11
6.943318260615303
 21
69.14400291110938
  0
LINE
  5
11A
100
AcDbEntity
  8
MILL
  6
ByLayer
 62
  256
100
AcDbLine
 10
6.943318260615303
 20
69.14400291110938
 11
7.258689435089429
 21
69.10793595582571
  0
LINE
  5
11B
100
AcDbEntity
  8
MILL
  6
ByLayer
 62
  256
100
AcDbLine
 10
7.258689435089429
 20
69.10793595582571
 11
7.492480591660137
 21
69.0229209898
  0
LINE
  5
11C
100
AcDbEntity
  8
MILL
  6
ByLayer
 62
  256
100
AcDbLine
 10
7.492480591660137
 20
69.0229209898
 11
7.726271748230852
 21
68.93790602377429
  0
LINE
  5
11D
100
AcDbEntity
  8
MILL
  6
ByLayer
 62
  256
100
AcDbLine
 10
7.726271748230852
 20
68.93790602377429
 11
7.960062904801567
 21
68.85289105774858
  0
LINE
  5
11E
100
AcDbEntity
  8
MILL
  6
ByLayer
 62
  256
100
AcDbLine
 10
7.960062904801567
 20
68.85289105774858
 11
8.193854061372269
 21
68.76787609172287
  0
LINE
  5
11F
100
AcDbEntity
  8
MILL
  6
ByLayer
 62
  256
100
AcDbLine
 10
8.193854061372269
 20
68.76787609172287
 11
8.427645217942985
 21
68.68286112569716
  0
LINE
  5
120
100
AcDbEntity
  8
MILL
  6
ByLayer
 62
  256
100
AcDbLine
 10
8.427645217942985
 20
68.68286112569716
 11
8.661436374513698
 21
68.59784615967145
  0
LINE
  5
121
100
AcDbEntity
  8
MILL
  6
ByLayer
 62
  256
100
AcDbLine
 10
8.661436374513698
 20
68.59784615967145
 11
8.895227531084414
 21
68.51283119364574
  0
LINE
  5
122
100
AcDbEntity
  8
MILL
  6
ByLayer
 62
  256
100
AcDbLine
 10
8.895227531084414
 20
68.51283119364574
 11
9.118713843288328
 21
68.43468612386452
  0
LINE
  5
123
100
AcDbEntity
  8
MILL
  6
ByLayer
 62
  256
100
AcDbLine
 10
9.118713843288328
 20
68.43468612386452
 11
9.288743775339759
 21
68.39217864085167
  0
LINE
  5
124
100
AcDbEntity
  8
MILL
  6
ByLayer
 62
  256
100
AcDbLine
 10
9.288743775339759
 20
68.39217864085167
 11
9.458773707391192
 21
68.34967115783881
  0
LINE
  5
125
100
AcDbEntity
  8
MILL
  6
ByLayer
 62
  256
100
AcDbLine
 10
9.458773707391192
 20
68.34967115783881
 11
9.628803639442612
 21
68.30716367482596
  0
LINE
  5
126
100
AcDbEntity
  8
MILL
  6
ByLayer
 62
  256
100
AcDbLine
 10
9.628803639442612
 20
68.30716367482596
 11
9.798833571494038
 21
68.2646561918131
  0
LINE
  5
127
100
AcDbEntity
  8
MILL
  6
ByLayer
 62
  256
100
AcDbLine
 10
9.798833571494038
 20
68.2646561918131
 11
9.968863503545471
 21
68.22214870880025
  0
LINE
  5
128
100
AcDbEntity
  8
MILL
  6
ByLayer
 62
  256
100
AcDbLine
 10
9.968863503545471
 20
68.22214870880025
 11
10.1388934355969
 21
68.17964122578739
  0
LINE
  5
129
100
AcDbEntity
  8
MILL
  6
ByLayer
 62
  256
100
AcDbLine
 10
10.1388934355969
 20
68.17964122578739
 11
10.30892336764832
 21
68.13713374277454
  0
LINE
  5
12A
100
AcDbEntity
  8
MILL
  6
ByLayer
 62
  256
100
AcDbLine
 10
10.30892336764832
 20
68.13713374277454
 11
10.47702114138097
 21
68.11008352631191
  0
LINE
  5
12B
100
AcDbEntity
  8
MILL
  6
ByLayer
 62
  256
100
AcDbLine
 10
10.47702114138097
 20
68.11008352631191
 11
10.62579733192596
 21
68.23760597535049
  0
LINE
  5
12C
100
AcDbEntity
  8
MILL
  6
ByLayer
 62
  256
100
AcDbLine
 10
10.62579733192596
 20
68.23760597535049
 11
10.77457352247097
 21
68.36512842438906
  0
LINE
  5
12D
100
AcDbEntity
  8
MILL
  6
ByLayer
 62
  256
100
AcDbLine
 10
10.77457352247097
 20
68.36512842438906
 11
10.92334971301597
 21
68.49265087342762
  0
LINE
  5
12E
100
AcDbEntity
  8
MILL
  6
ByLayer
 62
  256
100
AcDbLine
 10
10.92334971301597
 20
68.49265087342762
 11
11.07212590356097
 21
68.62017332246619
  0
LINE
  5
12F
100
AcDbEntity
  8
MILL
  6
ByLayer
 62
  256
100
AcDbLine
 10
11.07212590356097
 20
68.62017332246619
 11
11.22090209410596
 21
68.74769577150475
  0
LINE
  5
130
100
AcDbEntity
  8
MILL
  6
ByLayer
 62
  256
100
AcDbLine
 10
11.22090209410596
 20
68.74769577150475
 11
11.36967828465096
 21
68.87521822054335
  0
LINE
  5
131
100
AcDbEntity
  8
MILL
  6
ByLayer
 62
  256
100
AcDbLine
 10
11.36967828465096
 20
68.87521822054335
 11
11.51845447519596
 21
69.00274066958191
  0
LINE
  5
132
100
AcDbEntity
  8
MILL
  6
ByLayer
 62
  256
100
AcDbLine
 10
11.51845447519596
 20
69.00274066958191
 11
11.66808940277155
 21
69.12768690752868
  0
LINE
  5
133
100
AcDbEntity
  8
MILL
  6
ByLayer
 62
  256
100
AcDbLine
 10
11.66808940277155
 20
69.12768690752868
 11
11.8593730763294
 21
69.12768690752868
  0
LINE
  5
134
100
AcDbEntity
  8
MILL
  6
ByLayer
 62
  256
100
AcDbLine
 10
11.8593730763294
 20
69.12768690752868
 11
12.05065674988727
 21
69.12768690752868
  0
LINE
  5
135
100
AcDbEntity
  8
MILL
  6
ByLayer
 62
  256
100
AcDbLine
 10
12.05065674988727
 20
69.12768690752868
 11
12.24194042344512
 21
69.12768690752868
  0
LINE
  5
136
100
AcDbEntity
  8
MILL
  6
ByLayer
 62
  256
100
AcDbLine
 10
12.24194042344512
 20
69.12768690752868
 11
12.43322409700297
 21
69.12768690752868
  0
LINE
  5
137
100
AcDbEntity
  8
MILL
  6
ByLayer
 62
  256
100
AcDbLine
 10
12.43322409700297
 20
69.12768690752868
 11
12.62450777056083
 21
69.12768690752868
  0
LINE
  5
138
100
AcDbEntity
  8
MILL
  6
ByLayer
 62
  256
100
AcDbLine
 10
12.62450777056083
 20
69.12768690752868
 11
12.81579144411869
 21
69.12768690752868
  0
LINE
  5
139
100
AcDbEntity
  8
MILL
  6
ByLayer
 62
  256
100
AcDbLine
 10
12.81579144411869
 20
69.12768690752868
 11
13.00707511767654
 21
69.12768690752868
  0
LINE
  5
13A
100
AcDbEntity
  8
MILL
  6
ByLayer
 62
  256
100
AcDbLine
 10
13.00707511767654
 20
69.12768690752868
 11
13.1983587912344
 21
69.12768690752868
  0
LINE
  5
13B
100
AcDbEntity
  8
MILL
  6
ByLayer
 62
  256
100
AcDbLine
 10
13.1983587912344
 20
69.12768690752868
 11
13.43000310522874
 21
69.12768690752868
  0
LINE
  5
13C
100
AcDbEntity
  8
MILL
  6
ByLayer
 62
  256
100
AcDbLine
 10
13.43000310522874
 20
69.12768690752868
 11
13.66379426179945
 21
69.12768690752868
  0
LINE
  5
13D
100
AcDbEntity
  8
MILL
  6
ByLayer
 62
  256
100
AcDbLine
 10
13.66379426179945
 20
69.12768690752868
 11
13.89758541837016
 21
69.12768690752868
  0
LINE
  5
13E
100
AcDbEntity
  8
MILL
  6
ByLayer
 62
  256
100
AcDbLine
 10
13.89758541837016
 20
69.12768690752868
 11
14.13137657494087
 21
69.12768690752868
  0
LINE
  5
13F
100
AcDbEntity
  8
MILL
  6
ByLayer
 62
  256
100
AcDbLine
 10
14.13137657494087
 20
69.12768690752868
 11
14.36516773151158
 21
69.12768690752868
  0
LINE
  5
140
100
AcDbEntity
  8
MILL
  6
ByLayer
 62
  256
100
AcDbLine
 10
14.36516773151158
 20
69.12768690752868
 11
14.5989588880823
 21
69.12768690752868
  0
LINE
  5
141
100
AcDbEntity
  8
MILL
  6
ByLayer
 62
  256
100
AcDbLine
 10
14.5989588880823
 20
69.12768690752868
 11
14.83275004465301
 21
69.12768690752868
  0
LINE
  5
142
100
AcDbEntity
  8
MILL
  6
ByLayer
 62
  256
100
AcDbLine
 10
14.83275004465301
 20
69.12768690752868
 11
15.06654120122372
 21
69.12768690752868
  0
LINE
  5
143
100
AcDbEntity
  8
MILL
  6
ByLayer
 62
  256
100
AcDbLine
 10
15.06654120122372
 20
69.12768690752868
 11
15.16958964489111
 21
68.92223407296633
  0
LINE
  5
144
100
AcDbEntity
  8
MILL
  6
ByLayer
 62
  256
100
AcDbLine
 10
15.16958964489111
 20
68.92223407296633
 11
15.25460461091683
 21
68.68844291639562
  0
LINE
  5
145
100
AcDbEntity
  8
MILL
  6
ByLayer
 62
  256
100
AcDbLine
 10
15.25460461091683
 20
68.68844291639562
 11
15.33961957694254
 21
68.4546517598249
  0
LINE
  5
146
100
AcDbEntity
  8
MILL
  6
ByLayer
 62
  256
100
AcDbLine
 10
15.33961957694254
 20
68.4546517598249
 11
15.42463454296825
 21
68.2208606032542
  0
LINE
  5
147
100
AcDbEntity
  8
MILL
  6
ByLayer
 62
  256
100
AcDbLine
 10
15.42463454296825
 20
68.2208606032542
 11
15.50964950899397
 21
67.98706944668348
  0
LINE
  5
148
100
AcDbEntity
  8
MILL
  6
ByLayer
 62
  256
100
AcDbLine
 10
15.50964950899397
 20
67.98706944668348
 11
15.59466447501968
 21
67.75327829011279
  0
LINE
  5
149
100
AcDbEntity
  8
MILL
  6
ByLayer
 62
  256
100
AcDbLine
 10
15.59466447501968
 20
67.75327829011279
 11
15.67967944104539
 21
67.51948713354207
  0
LINE
  5
14A
100
AcDbEntity
  8
MILL
  6
ByLayer
 62
  256
100
AcDbLine
 10
15.67967944104539
 20
67.51948713354207
 11
15.76469440707111
 21
67.28569597697135
  0
LINE
  5
14B
100
AcDbEntity
  8
MILL
  6
ByLayer
 62
  256
100
AcDbLine
 10
15.76469440707111
 20
67.28569597697135
 11
15.8668841137081
 21
67.05190482040064
  0
LINE
  5
14C
100
AcDbEntity
  8
MILL
  6
ByLayer
 62
  256
100
AcDbLine
 10
15.8668841137081
 20
67.05190482040064
 11
15.97315282124024
 21
66.81811366382992
  0
LINE
  5
14D
100
AcDbEntity
  8
MILL
  6
ByLayer
 62
  256
100
AcDbLine
 10
15.97315282124024
 20
66.81811366382992
 11
16.07942152877238
 21
66.58432250725922
  0
LINE
  5
14E
100
AcDbEntity
  8
MILL
  6
ByLayer
 62
  256
100
AcDbLine
 10
16.07942152877238
 20
66.58432250725922
 11
16.18569023630453
 21
66.3505313506885
  0
LINE
  5
14F
100
AcDbEntity
  8
MILL
  6
ByLayer
 62
  256
100
AcDbLine
 10
16.18569023630453
 20
66.3505313506885
 11
16.29195894383666
 21
66.11674019411778
  0
LINE
  5
150
100
AcDbEntity
  8
MILL
  6
ByLayer
 62
  256
100
AcDbLine
 10
16.29195894383666
 20
66.11674019411778
 11
16.39822765136881
 21
65.88294903754706
  0
LINE
  5
151
100
AcDbEntity
  8
MILL
  6
ByLayer
 62
  256
100
AcDbLine
 10
16.39822765136881
 20
65.88294903754706
 11
16.50449635890095
 21
65.64915788097638
  0
LINE
  5
152
100
AcDbEntity
  8
MILL
  6
ByLayer
 62
  256
100
AcDbLine
 10
16.50449635890095
 20
65.64915788097638
 11
16.6107650664331
 21
65.41536672440566
  0
LINE
  5
153
100
AcDbEntity
  8
MILL
  6
ByLayer
 62
  256
100
AcDbLine
 10
16.6107650664331
 20
65.41536672440566
 11
16.84240938042759
 21
65.27560727268171
  0
LINE
  5
154
100
AcDbEntity
  8
MILL
  6
ByLayer
 62
  256
100
AcDbLine
 10
16.84240938042759
 20
65.27560727268171
 11
17.11870802001115
 21
65.16933856514957
  0
LINE
  5
155
100
AcDbEntity
  8
MILL
  6
ByLayer
 62
  256
100
AcDbLine
 10
17.11870802001115
 20
65.16933856514957
 11
17.39500665959471
 21
65.06306985761742
  0
LINE
  5
156
100
AcDbEntity
  8
MILL
  6
ByLayer
 62
  256
100
AcDbLine
 10
17.39500665959471
 20
65.06306985761742
 11
17.67130529917827
 21
64.9568011500853
  0
LINE
  5
157
100
AcDbEntity
  8
MILL
  6
ByLayer
 62
  256
100
AcDbLine
 10
17.67130529917827
 20
64.9568011500853
 11
17.94760393876183
 21
64.85053244255315
  0
LINE
  5
158
100
AcDbEntity
  8
MILL
  6
ByLayer
 62
  256
100
AcDbLine
 10
17.94760393876183
 20
64.85053244255315
 11
18.2239025783454
 21
64.74426373502102
  0
LINE
  5
159
100
AcDbEntity
  8
MILL
  6
ByLayer
 62
  256
100
AcDbLine
 10
18.2239025783454
 20
64.74426373502102
 11
18.50020121792896
 21
64.63799502748887
  0
LINE
  5
15A
100
AcDbEntity
  8
MILL
  6
ByLayer
 62
  256
100
AcDbLine
 10
18.50020121792896
 20
64.63799502748887
 11
18.77649985751252
 21
64.53172631995675
  0
LINE
  5
15B
100
AcDbEntity
  8
MILL
  6
ByLayer
 62
  256
100
AcDbLine
 10
18.77649985751252
 20
64.53172631995675
 11
19.18032094613483
 21
64.48213425644182
  0
LINE
  5
15C
100
AcDbEntity
  8
MILL
  6
ByLayer
 62
  256
100
AcDbLine
 10
19.18032094613483
 20
64.48213425644182
 11
19.64790325927625
 21
64.4608805149354
  0
LINE
  5
15D
100
AcDbEntity
  8
MILL
  6
ByLayer
 62
  256
100
AcDbLine
 10
19.64790325927625
 20
64.4608805149354
 11
20.11548557241765
 21
64.43962677342896
  0
LINE
  5
15E
100
AcDbEntity
  8
MILL
  6
ByLayer
 62
  256
100
AcDbLine
 10
20.11548557241765
 20
64.43962677342896
 11
20.58306788555907
 21
64.41837303192254
  0
LINE
  5
15F
100
AcDbEntity
  8
MILL
  6
ByLayer
 62
  256
100
AcDbLine
 10
20.58306788555907
 20
64.41837303192254
 11
21.05065019870048
 21
64.39711929041611
  0
LINE
  5
160
100
AcDbEntity
  8
MILL
  6
ByLayer
 62
  256
100
AcDbLine
 10
21.05065019870048
 20
64.39711929041611
 11
21.51823251184188
 21
64.37586554890969
  0
LINE
  5
161
100
AcDbEntity
  8
MILL
  6
ByLayer
 62
  256
100
AcDbLine
 10
21.51823251184188
 20
64.37586554890969
 11
21.9858148249833
 21
64.35461180740326
  0
LINE
  5
162
100
AcDbEntity
  8
MILL
  6
ByLayer
 62
  256
100
AcDbLine
 10
21.9858148249833
 20
64.35461180740326
 11
22.45339713812471
 21
64.33335806589683
  0
LINE
  5
163
100
AcDbEntity
  8
MILL
  6
ByLayer
 62
  256
100
AcDbLine
 10
22.45339713812471
 20
64.33335806589683
 11
22.73098388325384
 21
64.46410077880023
  0
LINE
  5
164
100
AcDbEntity
  8
MILL
  6
ByLayer
 62
  256
100
AcDbLine
 10
22.73098388325384
 20
64.46410077880023
 11
22.87976007379883
 21
64.69789193537092
  0
LINE
  5
165
100
AcDbEntity
  8
MILL
  6
ByLayer
 62
  256
100
AcDbLine
 10
22.87976007379883
 20
64.69789193537092
 11
23.02853626434383
 21
64.93168309194164
  0
LINE
  5
166
100
AcDbEntity
  8
MILL
  6
ByLayer
 62
  256
100
AcDbLine
 10
23.02853626434383
 20
64.93168309194164
 11
23.17731245488882
 21
65.16547424851233
  0
LINE
  5
167
100
AcDbEntity
  8
MILL
  6
ByLayer
 62
  256
100
AcDbLine
 10
23.17731245488882
 20
65.16547424851233
 11
23.32608864543382
 21
65.39926540508304
  0
LINE
  5
168
100
AcDbEntity
  8
MILL
  6
ByLayer
 62
  256
100
AcDbLine
 10
23.32608864543382
 20
65.39926540508304
 11
23.47486483597882
 21
65.63305656165373
  0
LINE
  5
169
100
AcDbEntity
  8
MILL
  6
ByLayer
 62
  256
100
AcDbLine
 10
23.47486483597882
 20
65.63305656165373
 11
23.62364102652381
 21
65.86684771822445
  0
LINE
  5
16A
100
AcDbEntity
  8
MILL
  6
ByLayer
 62
  256
100
AcDbLine
 10
23.62364102652381
 20
65.86684771822445
 11
23.7724172170688
 21
66.10063887479517
  0
LINE
  5
16B
100
AcDbEntity
  8
MILL
  6
ByLayer
 62
  256
100
AcDbLine
 10
23.7724172170688
 20
66.10063887479517
 11
23.80955759364049
 21
66.3121028685712
  0
LINE
  5
16C
100
AcDbEntity
  8
MILL
  6
ByLayer
 62
  256
100
AcDbLine
 10
23.80955759364049
 20
66.3121028685712
 11
23.74579636912121
 21
66.50338654212906
  0
LINE
  5
16D
100
AcDbEntity
  8
MILL
  6
ByLayer
 62
  256
100
AcDbLine
 10
23.74579636912121
 20
66.50338654212906
 11
23.68203514460193
 21
66.6946702156869
  0
LINE
  5
16E
100
AcDbEntity
  8
MILL
  6
ByLayer
 62
  256
100
AcDbLine
 10
23.68203514460193
 20
66.6946702156869
 11
23.61827392008264
 21
66.88595388924476
  0
LINE
  5
16F
100
AcDbEntity
  8
MILL
  6
ByLayer
 62
  256
100
AcDbLine
 10
23.61827392008264
 20
66.88595388924476
 11
23.55451269556336
 21
67.07723756280261
  0
LINE
  5
170
100
AcDbEntity
  8
MILL
  6
ByLayer
 62
  256
100
AcDbLine
 10
23.55451269556336
 20
67.07723756280261
 11
23.49075147104407
 21
67.26852123636046
  0
LINE
  5
171
100
AcDbEntity
  8
MILL
  6
ByLayer
 62
  256
100
AcDbLine
 10
23.49075147104407
 20
67.26852123636046
 11
23.42699024652479
 21
67.4598049099183
  0
LINE
  5
172
100
AcDbEntity
  8
MILL
  6
ByLayer
 62
  256
100
AcDbLine
 10
23.42699024652479
 20
67.4598049099183
 11
23.3632290220055
 21
67.65108858347615
  0
LINE
  5
173
100
AcDbEntity
  8
MILL
  6
ByLayer
 62
  256
100
AcDbLine
 10
23.3632290220055
 20
67.65108858347615
 11
23.28014621429853
 21
67.86169384022169
  0
LINE
  5
174
100
AcDbEntity
  8
MILL
  6
ByLayer
 62
  256
100
AcDbLine
 10
23.28014621429853
 20
67.86169384022169
 11
23.1738775067664
 21
68.09548499679241
  0
LINE
  5
175
100
AcDbEntity
  8
MILL
  6
ByLayer
 62
  256
100
AcDbLine
 10
23.1738775067664
 20
68.09548499679241
 11
23.06760879923426
 21
68.3292761533631
  0
LINE
  5
176
100
AcDbEntity
  8
MILL
  6
ByLayer
 62
  256
100
AcDbLine
 10
23.06760879923426
 20
68.3292761533631
 11
22.96134009170212
 21
68.56306730993381
  0
LINE
  5
177
100
AcDbEntity
  8
MILL
  6
ByLayer
 62
  256
100
AcDbLine
 10
22.96134009170212
 20
68.56306730993381
 11
22.85507138416998
 21
68.7968584665045
  0
LINE
  5
178
100
AcDbEntity
  8
MILL
  6
ByLayer
 62
  256
100
AcDbLine
 10
22.85507138416998
 20
68.7968584665045
 11
22.74880267663784
 21
69.03064962307522
  0
LINE
  5
179
100
AcDbEntity
  8
MILL
  6
ByLayer
 62
  256
100
AcDbLine
 10
22.74880267663784
 20
69.03064962307522
 11
22.64253396910571
 21
69.26444077964591
  0
LINE
  5
17A
100
AcDbEntity
  8
MILL
  6
ByLayer
 62
  256
100
AcDbLine
 10
22.64253396910571
 20
69.26444077964591
 11
22.53626526157357
 21
69.49823193621663
  0
LINE
  5
17B
100
AcDbEntity
  8
MILL
  6
ByLayer
 62
  256
100
AcDbLine
 10
22.53626526157357
 20
69.49823193621663
 11
22.5442085791064
 21
69.72386509099697
  0
LINE
  5
17C
100
AcDbEntity
  8
MILL
  6
ByLayer
 62
  256
100
AcDbLine
 10
22.5442085791064
 20
69.72386509099697
 11
22.73549225266425
 21
69.93640250606124
  0
LINE
  5
17D
100
AcDbEntity
  8
MILL
  6
ByLayer
 62
  256
100
AcDbLine
 10
22.73549225266425
 20
69.93640250606124
 11
22.92677592622209
 21
70.14893992112555
  0
LINE
  5
17E
100
AcDbEntity
  8
MILL
  6
ByLayer
 62
  256
100
AcDbLine
 10
22.92677592622209
 20
70.14893992112555
 11
23.11805959977995
 21
70.36147733618982
  0
LINE
  5
17F
100
AcDbEntity
  8
MILL
  6
ByLayer
 62
  256
100
AcDbLine
 10
23.11805959977995
 20
70.36147733618982
 11
23.3093432733378
 21
70.5740147512541
  0
LINE
  5
180
100
AcDbEntity
  8
MILL
  6
ByLayer
 62
  256
100
AcDbLine
 10
23.3093432733378
 20
70.5740147512541
 11
23.50062694689565
 21
70.78655216631837
  0
LINE
  5
181
100
AcDbEntity
  8
MILL
  6
ByLayer
 62
  256
100
AcDbLine
 10
23.50062694689565
 20
70.78655216631837
 11
23.6919106204535
 21
70.99908958138265
  0
LINE
  5
182
100
AcDbEntity
  8
MILL
  6
ByLayer
 62
  256
100
AcDbLine
 10
23.6919106204535
 20
70.99908958138265
 11
23.88319429401135
 21
71.21162699644692
  0
LINE
  5
183
100
AcDbEntity
  8
MILL
  6
ByLayer
 62
  256
100
AcDbLine
 10
23.88319429401135
 20
71.21162699644692
 11
24.10775402750354
 21
71.34430186766879
  0
LINE
  5
184
100
AcDbEntity
  8
MILL
  6
ByLayer
 62
  256
100
AcDbLine
 10
24.10775402750354
 20
71.34430186766879
 11
24.40530640859352
 21
71.30179438465593
  0
LINE
  5
185
100
AcDbEntity
  8
MILL
  6
ByLayer
 62
  256
100
AcDbLine
 10
24.40530640859352
 20
71.30179438465593
 11
24.70285878968351
 21
71.25928690164308
  0
LINE
  5
186
100
AcDbEntity
  8
MILL
  6
ByLayer
 62
  256
100
AcDbLine
 10
24.70285878968351
 20
71.25928690164308
 11
25.0004111707735
 21
71.21677941863022
  0
LINE
  5
187
100
AcDbEntity
  8
MILL
  6
ByLayer
 62
  256
100
AcDbLine
 10
25.0004111707735
 20
71.21677941863022
 11
25.29796355186349
 21
71.17427193561737
  0
LINE
  5
188
100
AcDbEntity
  8
MILL
  6
ByLayer
 62
  256
100
AcDbLine
 10
25.29796355186349
 20
71.17427193561737
 11
25.59551593295347
 21
71.13176445260451
  0
LINE
  5
189
100
AcDbEntity
  8
MILL
  6
ByLayer
 62
  256
100
AcDbLine
 10
25.59551593295347
 20
71.13176445260451
 11
25.89306831404347
 21
71.08925696959166
  0
LINE
  5
18A
100
AcDbEntity
  8
MILL
  6
ByLayer
 62
  256
100
AcDbLine
 10
25.89306831404347
 20
71.08925696959166
 11
26.19062069513345
 21
71.0467494865788
  0
LINE
  5
18B
100
AcDbEntity
  8
MILL
  6
ByLayer
 62
  256
100
AcDbLine
 10
26.19062069513345
 20
71.0467494865788
 11
26.48302065404006
 21
71.00939442574932
  0
LINE
  5
18C
100
AcDbEntity
  8
MILL
  6
ByLayer
 62
  256
100
AcDbLine
 10
26.48302065404006
 20
71.00939442574932
 11
26.75931929362362
 21
70.98814068424291
  0
LINE
  5
18D
100
AcDbEntity
  8
MILL
  6
ByLayer
 62
  256
100
AcDbLine
 10
26.75931929362362
 20
70.98814068424291
 11
27.03561793320719
 21
70.96688694273647
  0
LINE
  5
18E
100
AcDbEntity
  8
MILL
  6
ByLayer
 62
  256
100
AcDbLine
 10
27.03561793320719
 20
70.96688694273647
 11
27.31191657279075
 21
70.94563320123005
  0
LINE
  5
18F
100
AcDbEntity
  8
MILL
  6
ByLayer
 62
  256
100
AcDbLine
 10
27.31191657279075
 20
70.94563320123005
 11
27.58821521237432
 21
70.92437945972361
  0
LINE
  5
190
100
AcDbEntity
  8
MILL
  6
ByLayer
 62
  256
100
AcDbLine
 10
27.58821521237432
 20
70.92437945972361
 11
27.86451385195787
 21
70.9031257182172
  0
LINE
  5
191
100
AcDbEntity
  8
MILL
  6
ByLayer
 62
  256
100
AcDbLine
 10
27.86451385195787
 20
70.9031257182172
 11
28.14081249154143
 21
70.88187197671076
  0
LINE
  5
192
100
AcDbEntity
  8
MILL
  6
ByLayer
 62
  256
100
AcDbLine
 10
28.14081249154143
 20
70.88187197671076
 11
28.41711113112499
 21
70.86061823520434
  0
LINE
  5
193
100
AcDbEntity
  8
MILL
  6
ByLayer
 62
  256
100
AcDbLine
 10
28.41711113112499
 20
70.86061823520434
 11
28.68246087356888
 21
70.85396302321747
  0
LINE
  5
194
100
AcDbEntity
  8
MILL
  6
ByLayer
 62
  256
100
AcDbLine
 10
28.68246087356888
 20
70.85396302321747
 11
28.89499828863316
 21
70.91772424773676
  0
LINE
  5
195
100
AcDbEntity
  8
MILL
  6
ByLayer
 62
  256
100
AcDbLine
 10
28.89499828863316
 20
70.91772424773676
 11
29.10753570369744
 21
70.98148547225604
  0
LINE
  5
196
100
AcDbEntity
  8
MILL
  6
ByLayer
 62
  256
100
AcDbLine
 10
29.10753570369744
 20
70.98148547225604
 11
29.32007311876172
 21
71.04524669677532
  0
LINE
  5
197
100
AcDbEntity
  8
MILL
  6
ByLayer
 62
  256
100
AcDbLine
 10
29.32007311876172
 20
71.04524669677532
 11
29.53261053382599
 21
71.10900792129461
  0
LINE
  5
198
100
AcDbEntity
  8
MILL
  6
ByLayer
 62
  256
100
AcDbLine
 10
29.53261053382599
 20
71.10900792129461
 11
29.74514794889027
 21
71.17276914581389
  0
LINE
  5
199
100
AcDbEntity
  8
MILL
  6
ByLayer
 62
  256
100
AcDbLine
 10
29.74514794889027
 20
71.17276914581389
 11
29.95768536395455
 21
71.23653037033317
  0
LINE
  5
19A
100
AcDbEntity
  8
MILL
  6
ByLayer
 62
  256
100
AcDbLine
 10
29.95768536395455
 20
71.23653037033317
 11
30.17022277901882
 21
71.30029159485245
  0
LINE
  5
19B
100
AcDbEntity
  8
MILL
  6
ByLayer
 62
  256
100
AcDbLine
 10
30.17022277901882
 20
71.30029159485245
 11
30.3784665089303
 21
71.38981493028859
  0
LINE
  5
19C
100
AcDbEntity
  8
MILL
  6
ByLayer
 62
  256
100
AcDbLine
 10
30.3784665089303
 20
71.38981493028859
 11
30.54849644098172
 21
71.70862105288499
  0
LINE
  5
19D
100
AcDbEntity
  8
MILL
  6
ByLayer
 62
  256
100
AcDbLine
 10
30.54849644098172
 20
71.70862105288499
 11
30.71852637303314
 21
72.02742717548142
  0
LINE
  5
19E
100
AcDbEntity
  8
MILL
  6
ByLayer
 62
  256
100
AcDbLine
 10
30.71852637303314
 20
72.02742717548142
 11
30.88855630508456
 21
72.34623329807782
  0
LINE
  5
19F
100
AcDbEntity
  8
MILL
  6
ByLayer
 62
  256
100
AcDbLine
 10
30.88855630508456
 20
72.34623329807782
 11
31.05858623713598
 21
72.66503942067425
  0
LINE
  5
1A0
100
AcDbEntity
  8
MILL
  6
ByLayer
 62
  256
100
AcDbLine
 10
31.05858623713598
 20
72.66503942067425
 11
31.2286161691874
 21
72.98384554327065
  0
LINE
  5
1A1
100
AcDbEntity
  8
MILL
  6
ByLayer
 62
  256
100
AcDbLine
 10
31.2286161691874
 20
72.98384554327065
 11
31.39864610123883
 21
73.30265166586707
  0
LINE
  5
1A2
100
AcDbEntity
  8
MILL
  6
ByLayer
 62
  256
100
AcDbLine
 10
31.39864610123883
 20
73.30265166586707
 11
31.56867603329024
 21
73.6214577884635
  0
LINE
  5
1A3
100
AcDbEntity
  8
MILL
  6
ByLayer
 62
  256
100
AcDbLine
 10
31.56867603329024
 20
73.6214577884635
 11
31.74321433475208
 21
73.93189122501201
  0
LINE
  5
1A4
100
AcDbEntity
  8
MILL
  6
ByLayer
 62
  256
100
AcDbLine
 10
31.74321433475208
 20
73.93189122501201
 11
32.0620204573485
 21
73.97439870802486
  0
LINE
  5
1A5
100
AcDbEntity
  8
MILL
  6
ByLayer
 62
  256
100
AcDbLine
 10
32.0620204573485
 20
73.97439870802486
 11
32.3808265799449
 21
74.01690619103772
  0
LINE
  5
1A6
100
AcDbEntity
  8
MILL
  6
ByLayer
 62
  256
100
AcDbLine
 10
32.3808265799449
 20
74.01690619103772
 11
32.69963270254133
 21
74.05941367405057
  0
LINE
  5
1A7
100
AcDbEntity
  8
MILL
  6
ByLayer
 62
  256
100
AcDbLine
 10
32.69963270254133
 20
74.05941367405057
 11
33.01843882513776
 21
74.10192115706343
  0
LINE
  5
1A8
100
AcDbEntity
  8
MILL
  6
ByLayer
 62
  256
100
AcDbLine
 10
33.01843882513776
 20
74.10192115706343
 11
33.33724494773416
 21
74.14442864007628
  0
LINE
  5
1A9
100
AcDbEntity
  8
MILL
  6
ByLayer
 62
  256
100
AcDbLine
 10
33.33724494773416
 20
74.14442864007628
 11
33.65605107033058
 21
74.18693612308914
  0
LINE
  5
1AA
100
AcDbEntity
  8
MILL
  6
ByLayer
 62
  256
100
AcDbLine
 10
33.65605107033058
 20
74.18693612308914
 11
33.974857192927
 21
74.229443606102
  0
LINE
  5
1AB
100
AcDbEntity
  8
MILL
  6
ByLayer
 62
  256
100
AcDbLine
 10
33.974857192927
 20
74.229443606102
 11
34.29366331552342
 21
74.27195108911485
  0
LINE
  5
1AC
100
AcDbEntity
  8
MILL
  6
ByLayer
 62
  256
100
AcDbLine
 10
34.29366331552342
 20
74.27195108911485
 11
34.63286444259568
 21
74.15129853632087
  0
LINE
  5
1AD
100
AcDbEntity
  8
MILL
  6
ByLayer
 62
  256
100
AcDbLine
 10
34.63286444259568
 20
74.15129853632087
 11
34.97292430669853
 21
74.0237760872823
  0
LINE
  5
1AE
100
AcDbEntity
  8
MILL
  6
ByLayer
 62
  256
100
AcDbLine
 10
34.97292430669853
 20
74.0237760872823
 11
35.31298417080137
 21
73.89625363824373
  0
LINE
  5
1AF
100
AcDbEntity
  8
MILL
  6
ByLayer
 62
  256
100
AcDbLine
 10
35.31298417080137
 20
73.89625363824373
 11
35.65304403490421
 21
73.76873118920517
  0
LINE
  5
1B0
100
AcDbEntity
  8
MILL
  6
ByLayer
 62
  256
100
AcDbLine
 10
35.65304403490421
 20
73.76873118920517
 11
35.99310389900705
 21
73.6412087401666
  0
LINE
  5
1B1
100
AcDbEntity
  8
MILL
  6
ByLayer
 62
  256
100
AcDbLine
 10
35.99310389900705
 20
73.6412087401666
 11
36.33316376310991
 21
73.51368629112804
  0
LINE
  5
1B2
100
AcDbEntity
  8
MILL
  6
ByLayer
 62
  256
100
AcDbLine
 10
36.33316376310991
 20
73.51368629112804
 11
36.67322362721276
 21
73.38616384208947
  0
LINE
  5
1B3
100
AcDbEntity
  8
MILL
  6
ByLayer
 62
  256
100
AcDbLine
 10
36.67322362721276
 20
73.38616384208947
 11
37.01328349131559
 21
73.25864139305088
  0
LINE
  5
1B4
100
AcDbEntity
  8
MILL
  6
ByLayer
 62
  256
100
AcDbLine
 10
37.01328349131559
 20
73.25864139305088
 11
37.18331342336712
 21
73.13111894401234
  0
LINE
  5
1B5
100
AcDbEntity
  8
MILL
  6
ByLayer
 62
  256
100
AcDbLine
 10
37.18331342336712
 20
73.13111894401234
 11
37.33208961391212
 21
73.00359649497375
  0
LINE
  5
1B6
100
AcDbEntity
  8
MILL
  6
ByLayer
 62
  256
100
AcDbLine
 10
37.33208961391212
 20
73.00359649497375
 11
37.48086580445711
 21
72.87607404593521
  0
LINE
  5
1B7
100
AcDbEntity
  8
MILL
  6
ByLayer
 62
  256
100
AcDbLine
 10
37.48086580445711
 20
72.87607404593521
 11
37.6296419950021
 21
72.74855159689662
  0
LINE
  5
1B8
100
AcDbEntity
  8
MILL
  6
ByLayer
 62
  256
100
AcDbLine
 10
37.6296419950021
 20
72.74855159689662
 11
37.7784181855471
 21
72.62102914785805
  0
LINE
  5
1B9
100
AcDbEntity
  8
MILL
  6
ByLayer
 62
  256
100
AcDbLine
 10
37.7784181855471
 20
72.62102914785805
 11
37.92719437609209
 21
72.49350669881949
  0
LINE
  5
1BA
100
AcDbEntity
  8
MILL
  6
ByLayer
 62
  256
100
AcDbLine
 10
37.92719437609209
 20
72.49350669881949
 11
38.07597056663709
 21
72.36598424978092
  0
LINE
  5
1BB
100
AcDbEntity
  8
MILL
  6
ByLayer
 62
  256
100
AcDbLine
 10
38.07597056663709
 20
72.36598424978092
 11
38.22474675718208
 21
72.23846180074236
  0
LINE
  5
1BC
100
AcDbEntity
  8
MILL
  6
ByLayer
 62
  256
100
AcDbLine
 10
38.22474675718208
 20
72.23846180074236
 11
38.40830179746484
 21
72.12832877657267
  0
LINE
  5
1BD
100
AcDbEntity
  8
MILL
  6
ByLayer
 62
  256
100
AcDbLine
 10
38.40830179746484
 20
72.12832877657267
 11
38.59958547102269
 21
72.02206006904053
  0
LINE
  5
1BE
100
AcDbEntity
  8
MILL
  6
ByLayer
 62
  256
100
AcDbLine
 10
38.59958547102269
 20
72.02206006904053
 11
38.79086914458054
 21
71.9157913615084
  0
LINE
  5
1BF
100
AcDbEntity
  8
MILL
  6
ByLayer
 62
  256
100
AcDbLine
 10
38.79086914458054
 20
71.9157913615084
 11
38.98215281813838
 21
71.80952265397626
  0
LINE
  5
1C0
100
AcDbEntity
  8
MILL
  6
ByLayer
 62
  256
100
AcDbLine
 10
38.98215281813838
 20
71.80952265397626
 11
39.17343649169624
 21
71.70325394644412
  0
LINE
  5
1C1
100
AcDbEntity
  8
MILL
  6
ByLayer
 62
  256
100
AcDbLine
 10
39.17343649169624
 20
71.70325394644412
 11
39.36472016525408
 21
71.59698523891198
  0
LINE
  5
1C2
100
AcDbEntity
  8
MILL
  6
ByLayer
 62
  256
100
AcDbLine
 10
39.36472016525408
 20
71.59698523891198
 11
39.55600383881195
 21
71.49071653137985
  0
LINE
  5
1C3
100
AcDbEntity
  8
MILL
  6
ByLayer
 62
  256
100
AcDbLine
 10
39.55600383881195
 20
71.49071653137985
 11
39.74728751236979
 21
71.38444782384771
  0
LINE
  5
1C4
100
AcDbEntity
  8
MILL
  6
ByLayer
 62
  256
100
AcDbLine
 10
39.74728751236979
 20
71.38444782384771
 11
39.98623109112381
 21
71.43704546696949
  0
LINE
  5
1C5
100
AcDbEntity
  8
MILL
  6
ByLayer
 62
  256
100
AcDbLine
 10
39.98623109112381
 20
71.43704546696949
 11
40.24127598920094
 21
71.54331417450165
  0
LINE
  5
1C6
100
AcDbEntity
  8
MILL
  6
ByLayer
 62
  256
100
AcDbLine
 10
40.24127598920094
 20
71.54331417450165
 11
40.49632088727808
 21
71.64958288203377
  0
LINE
  5
1C7
100
AcDbEntity
  8
MILL
  6
ByLayer
 62
  256
100
AcDbLine
 10
40.49632088727808
 20
71.64958288203377
 11
40.75136578535523
 21
71.75585158956589
  0
LINE
  5
1C8
100
AcDbEntity
  8
MILL
  6
ByLayer
 62
  256
100
AcDbLine
 10
40.75136578535523
 20
71.75585158956589
 11
41.00641068343236
 21
71.86212029709804
  0
LINE
  5
1C9
100
AcDbEntity
  8
MILL
  6
ByLayer
 62
  256
100
AcDbLine
 10
41.00641068343236
 20
71.86212029709804
 11
41.26145558150949
 21
71.9683890046302
  0
LINE
  5
1CA
100
AcDbEntity
  8
MILL
  6
ByLayer
 62
  256
100
AcDbLine
 10
41.26145558150949
 20
71.9683890046302
 11
41.5165004795866
 21
72.07465771216232
  0
LINE
  5
1CB
100
AcDbEntity
  8
MILL
  6
ByLayer
 62
  256
100
AcDbLine
 10
41.5165004795866
 20
72.07465771216232
 11
41.77154537766375
 21
72.18092641969447
  0
LINE
  5
1CC
100
AcDbEntity
  8
MILL
  6
ByLayer
 62
  256
100
AcDbLine
 10
41.77154537766375
 20
72.18092641969447
 11
42.05535796626469
 21
72.21527590091708
  0
LINE
  5
1CD
100
AcDbEntity
  8
MILL
  6
ByLayer
 62
  256
100
AcDbLine
 10
42.05535796626469
 20
72.21527590091708
 11
42.35291034735468
 21
72.21527590091708
  0
LINE
  5
1CE
100
AcDbEntity
  8
MILL
  6
ByLayer
 62
  256
100
AcDbLine
 10
42.35291034735468
 20
72.21527590091708
 11
42.65046272844467
 21
72.21527590091708
  0
LINE
  5
1CF
100
AcDbEntity
  8
MILL
  6
ByLayer
 62
  256
100
AcDbLine
 10
42.65046272844467
 20
72.21527590091708
 11
42.94801510953465
 21
72.21527590091708
  0
LINE
  5
1D0
100
AcDbEntity
  8
MILL
  6
ByLayer
 62
  256
100
AcDbLine
 10
42.94801510953465
 20
72.21527590091708
 11
43.24556749062464
 21
72.21527590091708
  0
LINE
  5
1D1
100
AcDbEntity
  8
MILL
  6
ByLayer
 62
  256
100
AcDbLine
 10
43.24556749062464
 20
72.21527590091708
 11
43.54311987171464
 21
72.21527590091708
  0
LINE
  5
1D2
100
AcDbEntity
  8
MILL
  6
ByLayer
 62
  256
100
AcDbLine
 10
43.54311987171464
 20
72.21527590091708
 11
43.84067225280462
 21
72.21527590091708
  0
LINE
  5
1D3
100
AcDbEntity
  8
MILL
  6
ByLayer
 62
  256
100
AcDbLine
 10
43.84067225280462
 20
72.21527590091708
 11
44.13822463389462
 21
72.21527590091708
  0
LINE
  5
1D4
100
AcDbEntity
  8
MILL
  6
ByLayer
 62
  256
100
AcDbLine
 10
44.13822463389462
 20
72.21527590091708
 11
44.38425279315094
 21
72.0864653463329
  0
LINE
  5
1D5
100
AcDbEntity
  8
MILL
  6
ByLayer
 62
  256
100
AcDbLine
 10
44.38425279315094
 20
72.0864653463329
 11
44.5967902082152
 21
71.87392793126863
  0
LINE
  5
1D6
100
AcDbEntity
  8
MILL
  6
ByLayer
 62
  256
100
AcDbLine
 10
44.5967902082152
 20
71.87392793126863
 11
44.80932762327949
 21
71.66139051620435
  0
LINE
  5
1D7
100
AcDbEntity
  8
MILL
  6
ByLayer
 62
  256
100
AcDbLine
 10
44.80932762327949
 20
71.66139051620435
 11
45.02186503834377
 21
71.44885310114007
  0
LINE
  5
1D8
100
AcDbEntity
  8
MILL
  6
ByLayer
 62
  256
100
AcDbLine
 10
45.02186503834377
 20
71.44885310114007
 11
45.23440245340804
 21
71.2363156860758
  0
LINE
  5
1D9
100
AcDbEntity
  8
MILL
  6
ByLayer
 62
  256
100
AcDbLine
 10
45.23440245340804
 20
71.2363156860758
 11
45.44693986847232
 21
71.02377827101152
  0
LINE
  5
1DA
100
AcDbEntity
  8
MILL
  6
ByLayer
 62
  256
100
AcDbLine
 10
45.44693986847232
 20
71.02377827101152
 11
45.6594772835366
 21
70.81124085594725
  0
LINE
  5
1DB
100
AcDbEntity
  8
MILL
  6
ByLayer
 62
  256
100
AcDbLine
 10
45.6594772835366
 20
70.81124085594725
 11
45.87201469860088
 21
70.59870344088297
  0
LINE
  5
1DC
100
AcDbEntity
  8
MILL
  6
ByLayer
 62
  256
100
AcDbLine
 10
45.87201469860088
 20
70.59870344088297
 11
45.95939119146093
 21
70.27238336926939
  0
LINE
  5
1DD
100
AcDbEntity
  8
MILL
  6
ByLayer
 62
  256
100
AcDbLine
 10
45.95939119146093
 20
70.27238336926939
 11
45.9381374499545
 21
69.84730853914084
  0
LINE
  5
1DE
100
AcDbEntity
  8
MILL
  6
ByLayer
 62
  256
100
AcDbLine
 10
45.9381374499545
 20
69.84730853914084
 11
45.91688370844808
 21
69.42223370901227
  0
LINE
  5
1DF
100
AcDbEntity
  8
MILL
  6
ByLayer
 62
  256
100
AcDbLine
 10
45.91688370844808
 20
69.42223370901227
 11
45.89562996694166
 21
68.99715887888372
  0
LINE
  5
1E0
100
AcDbEntity
  8
MILL
  6
ByLayer
 62
  256
100
AcDbLine
 10
45.89562996694166
 20
68.99715887888372
 11
45.87437622543522
 21
68.57208404875517
  0
LINE
  5
1E1
100
AcDbEntity
  8
MILL
  6
ByLayer
 62
  256
100
AcDbLine
 10
45.87437622543522
 20
68.57208404875517
 11
45.85312248392881
 21
68.14700921862662
  0
LINE
  5
1E2
100
AcDbEntity
  8
MILL
  6
ByLayer
 62
  256
100
AcDbLine
 10
45.85312248392881
 20
68.14700921862662
 11
45.83186874242238
 21
67.72193438849807
  0
LINE
  5
1E3
100
AcDbEntity
  8
MILL
  6
ByLayer
 62
  256
100
AcDbLine
 10
45.83186874242238
 20
67.72193438849807
 11
45.81061500091594
 21
67.29685955836952
  0
LINE
  5
1E4
100
AcDbEntity
  8
MILL
  6
ByLayer
 62
  256
100
AcDbLine
 10
45.81061500091594
 20
67.29685955836952
 11
45.69060650089511
 21
66.92116210749816
  0
LINE
  5
1E5
100
AcDbEntity
  8
MILL
  6
ByLayer
 62
  256
100
AcDbLine
 10
45.69060650089511
 20
66.92116210749816
 11
45.45681534432439
 21
66.60235598490173
  0
LINE
  5
1E6
100
AcDbEntity
  8
MILL
  6
ByLayer
 62
  256
100
AcDbLine
 10
45.45681534432439
 20
66.60235598490173
 11
45.22302418775369
 21
66.28354986230532
  0
LINE
  5
1E7
100
AcDbEntity
  8
MILL
  6
ByLayer
 62
  256
100
AcDbLine
 10
45.22302418775369
 20
66.28354986230532
 11
44.98923303118298
 21
65.96474373970891
  0
LINE
  5
1E8
100
AcDbEntity
  8
MILL
  6
ByLayer
 62
  256
100
AcDbLine
 10
44.98923303118298
 20
65.96474373970891
 11
44.75544187461228
 21
65.64593761711249
  0
LINE
  5
1E9
100
AcDbEntity
  8
MILL
  6
ByLayer
 62
  256
100
AcDbLine
 10
44.75544187461228
 20
65.64593761711249
 11
44.52165071804158
 21
65.32713149451607
  0
LINE
  5
1EA
100
AcDbEntity
  8
MILL
  6
ByLayer
 62
  256
100
AcDbLine
 10
44.52165071804158
 20
65.32713149451607
 11
44.28785956147087
 21
65.00832537191967
  0
LINE
  5
1EB
100
AcDbEntity
  8
MILL
  6
ByLayer
 62
  256
100
AcDbLine
 10
44.28785956147087
 20
65.00832537191967
 11
44.05406840490016
 21
64.68951924932324
  0
LINE
  5
1EC
100
AcDbEntity
  8
MILL
  6
ByLayer
 62
  256
100
AcDbLine
 10
44.05406840490016
 20
64.68951924932324
 11
43.72817770180197
 21
64.38745849882274
  0
LINE
  5
1ED
100
AcDbEntity
  8
MILL
  6
ByLayer
 62
  256
100
AcDbLine
 10
43.72817770180197
 20
64.38745849882274
 11
43.26059538866056
 21
64.11115985923918
  0
LINE
  5
1EE
100
AcDbEntity
  8
MILL
  6
ByLayer
 62
  256
100
AcDbLine
 10
43.26059538866056
 20
64.11115985923918
 11
42.79301307551916
 21
63.83486121965561
  0
LINE
  5
1EF
100
AcDbEntity
  8
MILL
  6
ByLayer
 62
  256
100
AcDbLine
 10
42.79301307551916
 20
63.83486121965561
 11
42.32543076237775
 21
63.55856258007205
  0
LINE
  5
1F0
100
AcDbEntity
  8
MILL
  6
ByLayer
 62
  256
100
AcDbLine
 10
42.32543076237775
 20
63.55856258007205
 11
41.85784844923633
 21
63.2822639404885
  0
LINE
  5
1F1
100
AcDbEntity
  8
MILL
  6
ByLayer
 62
  256
100
AcDbLine
 10
41.85784844923633
 20
63.2822639404885
 11
41.39026613609491
 21
63.00596530090493
  0
LINE
  5
1F2
100
AcDbEntity
  8
MILL
  6
ByLayer
 62
  256
100
AcDbLine
 10
41.39026613609491
 20
63.00596530090493
 11
40.9226838229535
 21
62.72966666132136
  0
LINE
  5
1F3
100
AcDbEntity
  8
MILL
  6
ByLayer
 62
  256
100
AcDbLine
 10
40.9226838229535
 20
62.72966666132136
 11
40.45510150981209
 21
62.45336802173782
  0
LINE
  5
1F4
100
AcDbEntity
  8
MILL
  6
ByLayer
 62
  256
100
AcDbLine
 10
40.45510150981209
 20
62.45336802173782
 11
40.00125898915962
 21
62.21141886337657
  0
LINE
  5
1F5
100
AcDbEntity
  8
MILL
  6
ByLayer
 62
  256
100
AcDbLine
 10
40.00125898915962
 20
62.21141886337657
 11
39.57618415903105
 21
62.04138893132515
  0
LINE
  5
1F6
100
AcDbEntity
  8
MILL
  6
ByLayer
 62
  256
100
AcDbLine
 10
39.57618415903105
 20
62.04138893132515
 11
39.1511093289025
 21
61.87135899927373
  0
LINE
  5
1F7
100
AcDbEntity
  8
MILL
  6
ByLayer
 62
  256
100
AcDbLine
 10
39.1511093289025
 20
61.87135899927373
 11
38.72603449877395
 21
61.70132906722231
  0
LINE
  5
1F8
100
AcDbEntity
  8
MILL
  6
ByLayer
 62
  256
100
AcDbLine
 10
38.72603449877395
 20
61.70132906722231
 11
38.30095966864538
 21
61.53129913517089
  0
LINE
  5
1F9
100
AcDbEntity
  8
MILL
  6
ByLayer
 62
  256
100
AcDbLine
 10
38.30095966864538
 20
61.53129913517089
 11
37.87588483851683
 21
61.36126920311947
  0
LINE
  5
1FA
100
AcDbEntity
  8
MILL
  6
ByLayer
 62
  256
100
AcDbLine
 10
37.87588483851683
 20
61.36126920311947
 11
37.45081000838828
 21
61.19123927106805
  0
LINE
  5
1FB
100
AcDbEntity
  8
MILL
  6
ByLayer
 62
  256
100
AcDbLine
 10
37.45081000838828
 20
61.19123927106805
 11
37.02573517825973
 21
61.02120933901663
  0
LINE
  5
1FC
100
AcDbEntity
  8
MILL
  6
ByLayer
 62
  256
100
AcDbLine
 10
37.02573517825973
 20
61.02120933901663
 11
36.61139456101313
 21
60.87264783272911
  0
LINE
  5
1FD
100
AcDbEntity
  8
MILL
  6
ByLayer
 62
  256
100
AcDbLine
 10
36.61139456101313
 20
60.87264783272911
 11
36.22882721389743
 21
60.7876328667034
  0
LINE
  5
1FE
100
AcDbEntity
  8
MILL
  6
ByLayer
 62
  256
100
AcDbLine
 10
36.22882721389743
 20
60.7876328667034
 11
35.84625986678173
 21
60.70261790067769
  0
LINE
  5
1FF
100
AcDbEntity
  8
MILL
  6
ByLayer
 62
  256
100
AcDbLine
 10
35.84625986678173
 20
60.70261790067769
 11
35.46369251966603
 21
60.61760293465198
  0
LINE
  5
200
100
AcDbEntity
  8
MILL
  6
ByLayer
 62
  256
100
AcDbLine
 10
35.46369251966603
 20
60.61760293465198
 11
35.08112517255032
 21
60.53258796862627
  0
LINE
  5
201
100
AcDbEntity
  8
MILL
  6
ByLayer
 62
  256
100
AcDbLine
 10
35.08112517255032
 20
60.53258796862627
 11
34.69855782543463
 21
60.44757300260056
  0
LINE
  5
202
100
AcDbEntity
  8
MILL
  6
ByLayer
 62
  256
100
AcDbLine
 10
34.69855782543463
 20
60.44757300260056
 11
34.31599047831893
 21
60.36255803657485
  0
LINE
  5
203
100
AcDbEntity
  8
MILL
  6
ByLayer
 62
  256
100
AcDbLine
 10
34.31599047831893
 20
60.36255803657485
 11
33.93342313120323
 21
60.27754307054914
  0
LINE
  5
204
100
AcDbEntity
  8
MILL
  6
ByLayer
 62
  256
100
AcDbLine
 10
33.93342313120323
 20
60.27754307054914
 11
33.56631305063748
 21
60.17320652133598
  0
LINE
  5
205
100
AcDbEntity
  8
MILL
  6
ByLayer
 62
  256
100
AcDbLine
 10
33.56631305063748
 20
60.17320652133598
 11
33.2687606695475
 21
59.98192284777813
  0
LINE
  5
206
100
AcDbEntity
  8
MILL
  6
ByLayer
 62
  256
100
AcDbLine
 10
33.2687606695475
 20
59.98192284777813
 11
32.97120828845751
 21
59.79063917422027
  0
LINE
  5
207
100
AcDbEntity
  8
MILL
  6
ByLayer
 62
  256
100
AcDbLine
 10
32.97120828845751
 20
59.79063917422027
 11
32.67365590736752
 21
59.59935550066243
  0
LINE
  5
208
100
AcDbEntity
  8
MILL
  6
ByLayer
 62
  256
100
AcDbLine
 10
32.67365590736752
 20
59.59935550066243
 11
32.37610352627753
 21
59.40807182710458
  0
LINE
  5
209
100
AcDbEntity
  8
MILL
  6
ByLayer
 62
  256
100
AcDbLine
 10
32.37610352627753
 20
59.40807182710458
 11
32.07855114518753
 21
59.21678815354673
  0
LINE
  5
20A
100
AcDbEntity
  8
MILL
  6
ByLayer
 62
  256
100
AcDbLine
 10
32.07855114518753
 20
59.21678815354673
 11
31.78099876409755
 21
59.02550447998888
  0
LINE
  5
20B
100
AcDbEntity
  8
MILL
  6
ByLayer
 62
  256
100
AcDbLine
 10
31.78099876409755
 20
59.02550447998888
 11
31.48344638300756
 21
58.83422080643103
  0
LINE
  5
20C
100
AcDbEntity
  8
MILL
  6
ByLayer
 62
  256
100
AcDbLine
 10
31.48344638300756
 20
58.83422080643103
 11
31.23076301176361
 21
58.64057560603919
  0
LINE
  5
20D
100
AcDbEntity
  8
MILL
  6
ByLayer
 62
  256
100
AcDbLine
 10
31.23076301176361
 20
58.64057560603919
 11
31.33703171929575
 21
58.42803819097491
  0
LINE
  5
20E
100
AcDbEntity
  8
MILL
  6
ByLayer
 62
  256
100
AcDbLine
 10
31.33703171929575
 20
58.42803819097491
 11
31.4433004268279
 21
58.21550077591062
  0
LINE
  5
20F
100
AcDbEntity
  8
MILL
  6
ByLayer
 62
  256
100
AcDbLine
 10
31.4433004268279
 20
58.21550077591062
 11
31.54956913436004
 21
58.00296336084634
  0
LINE
  5
210
100
AcDbEntity
  8
MILL
  6
ByLayer
 62
  256
100
AcDbLine
 10
31.54956913436004
 20
58.00296336084634
 11
31.65583784189218
 21
57.79042594578207
  0
LINE
  5
211
100
AcDbEntity
  8
MILL
  6
ByLayer
 62
  256
100
AcDbLine
 10
31.65583784189218
 20
57.79042594578207
 11
31.76210654942431
 21
57.57788853071779
  0
LINE
  5
212
100
AcDbEntity
  8
MILL
  6
ByLayer
 62
  256
100
AcDbLine
 10
31.76210654942431
 20
57.57788853071779
 11
31.86837525695645
 21
57.36535111565351
  0
LINE
  5
213
100
AcDbEntity
  8
MILL
  6
ByLayer
 62
  256
100
AcDbLine
 10
31.86837525695645
 20
57.36535111565351
 11
31.97464396448859
 21
57.15281370058923
  0
LINE
  5
214
100
AcDbEntity
  8
MILL
  6
ByLayer
 62
  256
100
AcDbLine
 10
31.97464396448859
 20
57.15281370058923
 11
32.09894614966153
 21
56.94972239286061
  0
LINE
  5
215
100
AcDbEntity
  8
MILL
  6
ByLayer
 62
  256
100
AcDbLine
 10
32.09894614966153
 20
56.94972239286061
 11
32.65154342882865
 21
56.97097613436704
  0
LINE
  5
216
100
AcDbEntity
  8
MILL
  6
ByLayer
 62
  256
100
AcDbLine
 10
32.65154342882865
 20
56.97097613436704
 11
33.20414070799577
 21
56.99222987587347
  0
LINE
  5
217
100
AcDbEntity
  8
MILL
  6
ByLayer
 62
  256
100
AcDbLine
 10
33.20414070799577
 20
56.99222987587347
 11
33.7567379871629
 21
57.0134836173799
  0
LINE
  5
218
100
AcDbEntity
  8
MILL
  6
ByLayer
 62
  256
100
AcDbLine
 10
33.7567379871629
 20
57.0134836173799
 11
34.30933526633002
 21
57.03473735888632
  0
LINE
  5
219
100
AcDbEntity
  8
MILL
  6
ByLayer
 62
  256
100
AcDbLine
 10
34.30933526633002
 20
57.03473735888632
 11
34.86193254549715
 21
57.05599110039276
  0
LINE
  5
21A
100
AcDbEntity
  8
MILL
  6
ByLayer
 62
  256
100
AcDbLine
 10
34.86193254549715
 20
57.05599110039276
 11
35.41452982466426
 21
57.07724484189918
  0
LINE
  5
21B
100
AcDbEntity
  8
MILL
  6
ByLayer
 62
  256
100
AcDbLine
 10
35.41452982466426
 20
57.07724484189918
 11
35.96712710383139
 21
57.09849858340561
  0
LINE
  5
21C
100
AcDbEntity
  8
MILL
  6
ByLayer
 62
  256
100
AcDbLine
 10
35.96712710383139
 20
57.09849858340561
 11
36.5197243829985
 21
57.11975232491204
  0
LINE
  5
21D
100
AcDbEntity
  8
MILL
  6
ByLayer
 62
  256
100
AcDbLine
 10
36.5197243829985
 20
57.11975232491204
 11
37.05171197343217
 21
57.26466419881919
  0
LINE
  5
21E
100
AcDbEntity
  8
MILL
  6
ByLayer
 62
  256
100
AcDbLine
 10
37.05171197343217
 20
57.26466419881919
 11
37.58305551109287
 21
57.41344038936418
  0
LINE
  5
21F
100
AcDbEntity
  8
MILL
  6
ByLayer
 62
  256
100
AcDbLine
 10
37.58305551109287
 20
57.41344038936418
 11
38.11439904875357
 21
57.56221657990918
  0
LINE
  5
220
100
AcDbEntity
  8
MILL
  6
ByLayer
 62
  256
100
AcDbLine
 10
38.11439904875357
 20
57.56221657990918
 11
38.64574258641426
 21
57.71099277045418
  0
LINE
  5
221
100
AcDbEntity
  8
MILL
  6
ByLayer
 62
  256
100
AcDbLine
 10
38.64574258641426
 20
57.71099277045418
 11
39.17708612407495
 21
57.85976896099916
  0
LINE
  5
222
100
AcDbEntity
  8
MILL
  6
ByLayer
 62
  256
100
AcDbLine
 10
39.17708612407495
 20
57.85976896099916
 11
39.70842966173565
 21
58.00854515154416
  0
LINE
  5
223
100
AcDbEntity
  8
MILL
  6
ByLayer
 62
  256
100
AcDbLine
 10
39.70842966173565
 20
58.00854515154416
 11
40.23977319939635
 21
58.15732134208915
  0
LINE
  5
224
100
AcDbEntity
  8
MILL
  6
ByLayer
 62
  256
100
AcDbLine
 10
40.23977319939635
 20
58.15732134208915
 11
40.77111673705704
 21
58.30609753263414
  0
LINE
  5
225
100
AcDbEntity
  8
MILL
  6
ByLayer
 62
  256
100
AcDbLine
 10
40.77111673705704
 20
58.30609753263414
 11
41.39799476936756
 21
58.43576682424918
  0
LINE
  5
226
100
AcDbEntity
  8
MILL
  6
ByLayer
 62
  256
100
AcDbLine
 10
41.39799476936756
 20
58.43576682424918
 11
42.03560701456039
 21
58.56328927328774
  0
LINE
  5
227
100
AcDbEntity
  8
MILL
  6
ByLayer
 62
  256
100
AcDbLine
 10
42.03560701456039
 20
58.56328927328774
 11
42.67321925975324
 21
58.69081172232631
  0
LINE
  5
228
100
AcDbEntity
  8
MILL
  6
ByLayer
 62
  256
100
AcDbLine
 10
42.67321925975324
 20
58.69081172232631
 11
43.31083150494607
 21
58.81833417136487
  0
LINE
  5
229
100
AcDbEntity
  8
MILL
  6
ByLayer
 62
  256
100
AcDbLine
 10
43.31083150494607
 20
58.81833417136487
 11
43.94844375013889
 21
58.94585662040344
  0
LINE
  5
22A
100
AcDbEntity
  8
MILL
  6
ByLayer
 62
  256
100
AcDbLine
 10
43.94844375013889
 20
58.94585662040344
 11
44.58605599533172
 21
59.07337906944201
  0
LINE
  5
22B
100
AcDbEntity
  8
MILL
  6
ByLayer
 62
  256
100
AcDbLine
 10
44.58605599533172
 20
59.07337906944201
 11
45.22366824052457
 21
59.20090151848058
  0
LINE
  5
22C
100
AcDbEntity
  8
MILL
  6
ByLayer
 62
  256
100
AcDbLine
 10
45.22366824052457
 20
59.20090151848058
 11
45.8612804857174
 21
59.32842396751914
  0
LINE
  5
22D
100
AcDbEntity
  8
MILL
  6
ByLayer
 62
  256
100
AcDbLine
 10
45.8612804857174
 20
59.32842396751914
 11
46.53410094916319
 21
59.15667656140756
  0
LINE
  5
22E
100
AcDbEntity
  8
MILL
  6
ByLayer
 62
  256
100
AcDbLine
 10
46.53410094916319
 20
59.15667656140756
 11
47.21422067736887
 21
58.92288540483686
  0
LINE
  5
22F
100
AcDbEntity
  8
MILL
  6
ByLayer
 62
  256
100
AcDbLine
 10
47.21422067736887
 20
58.92288540483686
 11
47.89434040557457
 21
58.68909424826616
  0
LINE
  5
230
100
AcDbEntity
  8
MILL
  6
ByLayer
 62
  256
100
AcDbLine
 10
47.89434040557457
 20
58.68909424826616
 11
48.57446013378025
 21
58.45530309169546
  0
LINE
  5
231
100
AcDbEntity
  8
MILL
  6
ByLayer
 62
  256
100
AcDbLine
 10
48.57446013378025
 20
58.45530309169546
 11
49.25457986198595
 21
58.22151193512474
  0
LINE
  5
232
100
AcDbEntity
  8
MILL
  6
ByLayer
 62
  256
100
AcDbLine
 10
49.25457986198595
 20
58.22151193512474
 11
49.93469959019163
 21
57.98772077855403
  0
LINE
  5
233
100
AcDbEntity
  8
MILL
  6
ByLayer
 62
  256
100
AcDbLine
 10
49.93469959019163
 20
57.98772077855403
 11
50.61481931839732
 21
57.75392962198333
  0
LINE
  5
234
100
AcDbEntity
  8
MILL
  6
ByLayer
 62
  256
100
AcDbLine
 10
50.61481931839732
 20
57.75392962198333
 11
51.29493904660301
 21
57.52013846541263
  0
LINE
  5
235
100
AcDbEntity
  8
MILL
  6
ByLayer
 62
  256
100
AcDbLine
 10
51.29493904660301
 20
57.52013846541263
 11
51.91065349751673
 21
57.28634730884193
  0
LINE
  5
236
100
AcDbEntity
  8
MILL
  6
ByLayer
 62
  256
100
AcDbLine
 10
51.91065349751673
 20
57.28634730884193
 11
52.50575825969671
 21
57.05255615227122
  0
LINE
  5
237
100
AcDbEntity
  8
MILL
  6
ByLayer
 62
  256
100
AcDbLine
 10
52.50575825969671
 20
57.05255615227122
 11
53.10086302187668
 21
56.81876499570052
  0
LINE
  5
238
100
AcDbEntity
  8
MILL
  6
ByLayer
 62
  256
100
AcDbLine
 10
53.10086302187668
 20
56.81876499570052
 11
53.69596778405667
 21
56.58497383912981
  0
LINE
  5
239
100
AcDbEntity
  8
MILL
  6
ByLayer
 62
  256
100
AcDbLine
 10
53.69596778405667
 20
56.58497383912981
 11
54.29107254623664
 21
56.35118268255911
  0
LINE
  5
23A
100
AcDbEntity
  8
MILL
  6
ByLayer
 62
  256
100
AcDbLine
 10
54.29107254623664
 20
56.35118268255911
 11
54.88617730841663
 21
56.1173915259884
  0
LINE
  5
23B
100
AcDbEntity
  8
MILL
  6
ByLayer
 62
  256
100
AcDbLine
 10
54.88617730841663
 20
56.1173915259884
 11
55.48128207059661
 21
55.8836003694177
  0
LINE
  5
23C
100
AcDbEntity
  8
MILL
  6
ByLayer
 62
  256
100
AcDbLine
 10
55.48128207059661
 20
55.8836003694177
 11
56.07638683277658
 21
55.64980921284698
  0
LINE
  5
23D
100
AcDbEntity
  8
MILL
  6
ByLayer
 62
  256
100
AcDbLine
 10
56.07638683277658
 20
55.64980921284698
 11
56.72988571303456
 21
55.5182077629128
  0
LINE
  5
23E
100
AcDbEntity
  8
MILL
  6
ByLayer
 62
  256
100
AcDbLine
 10
56.72988571303456
 20
55.5182077629128
 11
57.41000544124024
 21
55.43319279688709
  0
LINE
  5
23F
100
AcDbEntity
  8
MILL
  6
ByLayer
 62
  256
100
AcDbLine
 10
57.41000544124024
 20
55.43319279688709
 11
58.09012516944595
 21
55.34817783086138
  0
LINE
  5
240
100
AcDbEntity
  8
MILL
  6
ByLayer
 62
  256
100
AcDbLine
 10
58.09012516944595
 20
55.34817783086138
 11
58.77024489765163
 21
55.26316286483567
  0
LINE
  5
241
100
AcDbEntity
  8
MILL
  6
ByLayer
 62
  256
100
AcDbLine
 10
58.77024489765163
 20
55.26316286483567
 11
59.45036462585733
 21
55.17814789880996
  0
LINE
  5
242
100
AcDbEntity
  8
MILL
  6
ByLayer
 62
  256
100
AcDbLine
 10
59.45036462585733
 20
55.17814789880996
 11
60.13048435406301
 21
55.09313293278425
  0
LINE
  5
243
100
AcDbEntity
  8
MILL
  6
ByLayer
 62
  256
100
AcDbLine
 10
60.13048435406301
 20
55.09313293278425
 11
60.8106040822687
 21
55.00811796675854
  0
LINE
  5
244
100
AcDbEntity
  8
MILL
  6
ByLayer
 62
  256
100
AcDbLine
 10
60.8106040822687
 20
55.00811796675854
 11
61.49072381047438
 21
54.92310300073283
  0
LINE
  5
245
100
AcDbEntity
  8
MILL
  6
ByLayer
 62
  256
100
AcDbLine
 10
61.49072381047438
 20
54.92310300073283
 11
62.26251371669218
 21
54.98214117158329
  0
LINE
  5
246
100
AcDbEntity
  8
MILL
  6
ByLayer
 62
  256
100
AcDbLine
 10
62.26251371669218
 20
54.98214117158329
 11
63.09140963544287
 21
55.13091736212829
  0
LINE
  5
247
100
AcDbEntity
  8
MILL
  6
ByLayer
 62
  256
100
AcDbLine
 10
63.09140963544287
 20
55.13091736212829
 11
63.92030555419356
 21
55.27969355267328
  0
LINE
  5
248
100
AcDbEntity
  8
MILL
  6
ByLayer
 62
  256
100
AcDbLine
 10
63.92030555419356
 20
55.27969355267328
 11
64.74920147294425
 21
55.42846974321827
  0
LINE
  5
249
100
AcDbEntity
  8
MILL
  6
ByLayer
 62
  256
100
AcDbLine
 10
64.74920147294425
 20
55.42846974321827
 11
65.57809739169493
 21
55.57724593376327
  0
LINE
  5
24A
100
AcDbEntity
  8
MILL
  6
ByLayer
 62
  256
100
AcDbLine
 10
65.57809739169493
 20
55.57724593376327
 11
66.40699331044561
 21
55.72602212430826
  0
LINE
  5
24B
100
AcDbEntity
  8
MILL
  6
ByLayer
 62
  256
100
AcDbLine
 10
66.40699331044561
 20
55.72602212430826
 11
67.23588922919627
 21
55.87479831485325
  0
LINE
  5
24C
100
AcDbEntity
  8
MILL
  6
ByLayer
 62
  256
100
AcDbLine
 10
67.23588922919627
 20
55.87479831485325
 11
68.06478514794696
 21
56.02357450539824
  0
LINE
  5
24D
100
AcDbEntity
  8
MILL
  6
ByLayer
 62
  256
100
AcDbLine
 10
68.06478514794696
 20
56.02357450539824
 11
68.8704951668726
 21
56.04482824690544
  0
LINE
  5
24E
100
AcDbEntity
  8
MILL
  6
ByLayer
 62
  256
100
AcDbLine
 10
68.8704951668726
 20
56.04482824690544
 11
69.65688360261042
 21
55.95981328087973
  0
LINE
  5
24F
100
AcDbEntity
  8
MILL
  6
ByLayer
 62
  256
100
AcDbLine
 10
69.65688360261042
 20
55.95981328087973
 11
70.44327203834825
 21
55.87479831485402
  0
LINE
  5
250
100
AcDbEntity
  8
MILL
  6
ByLayer
 62
  256
100
AcDbLine
 10
70.44327203834825
 20
55.87479831485402
 11
71.22966047408609
 21
55.78978334882831
  0
LINE
  5
251
100
AcDbEntity
  8
MILL
  6
ByLayer
 62
  256
100
AcDbLine
 10
71.22966047408609
 20
55.78978334882831
 11
72.01604890982389
 21
55.7047683828026
  0
LINE
  5
252
100
AcDbEntity
  8
MILL
  6
ByLayer
 62
  256
100
AcDbLine
 10
72.01604890982389
 20
55.7047683828026
 11
72.80243734556173
 21
55.61975341677689
  0
LINE
  5
253
100
AcDbEntity
  8
MILL
  6
ByLayer
 62
  256
100
AcDbLine
 10
72.80243734556173
 20
55.61975341677689
 11
73.58882578129956
 21
55.53473845075118
  0
LINE
  5
254
100
AcDbEntity
  8
MILL
  6
ByLayer
 62
  256
100
AcDbLine
 10
73.58882578129956
 20
55.53473845075118
 11
74.3752142170374
 21
55.44972348472545
  0
LINE
  5
255
100
AcDbEntity
  8
MILL
  6
ByLayer
 62
  256
100
AcDbLine
 10
74.3752142170374
 20
55.44972348472545
 11
75.15151249266617
 21
55.21335611706414
  0
LINE
  5
256
100
AcDbEntity
  8
MILL
  6
ByLayer
 62
  256
100
AcDbLine
 10
75.15151249266617
 20
55.21335611706414
 11
75.91664718689763
 21
54.809535028442
  0
LINE
  5
257
100
AcDbEntity
  8
MILL
  6
ByLayer
 62
  256
100
AcDbLine
 10
75.91664718689763
 20
54.809535028442
 11
76.68178188112907
 21
54.40571393981985
  0
LINE
  5
258
100
AcDbEntity
  8
MILL
  6
ByLayer
 62
  256
100
AcDbLine
 10
76.68178188112907
 20
54.40571393981985
 11
77.4469165753605
 21
54.0018928511977
  0
LINE
  5
259
100
AcDbEntity
  8
MILL
  6
ByLayer
 62
  256
100
AcDbLine
 10
77.4469165753605
 20
54.0018928511977
 11
78.21205126959194
 21
53.59807176257555
  0
LINE
  5
25A
100
AcDbEntity
  8
MILL
  6
ByLayer
 62
  256
100
AcDbLine
 10
78.21205126959194
 20
53.59807176257555
 11
78.97718596382339
 21
53.19425067395339
  0
LINE
  5
25B
100
AcDbEntity
  8
MILL
  6
ByLayer
 62
  256
100
AcDbLine
 10
78.97718596382339
 20
53.19425067395339
 11
79.74232065805484
 21
52.79042958533125
  0
LINE
  5
25C
100
AcDbEntity
  8
MILL
  6
ByLayer
 62
  256
100
AcDbLine
 10
79.74232065805484
 20
52.79042958533125
 11
80.50745535228629
 21
52.38660849670909
  0
LINE
  5
25D
100
AcDbEntity
  8
MILL
  6
ByLayer
 62
  256
100
AcDbLine
 10
80.50745535228629
 20
52.38660849670909
 11
81.10943001071206
 21
51.92267581594802
  0
LINE
  5
25E
100
AcDbEntity
  8
MILL
  6
ByLayer
 62
  256
100
AcDbLine
 10
81.10943001071206
 20
51.92267581594802
 11
81.47074361632133
 21
51.37007853678085
  0
LINE
  5
25F
100
AcDbEntity
  8
MILL
  6
ByLayer
 62
  256
100
AcDbLine
 10
81.47074361632133
 20
51.37007853678085
 11
81.83205722193064
 21
50.81748125761371
  0
LINE
  5
260
100
AcDbEntity
  8
MILL
  6
ByLayer
 62
  256
100
AcDbLine
 10
81.83205722193064
 20
50.81748125761371
 11
82.19337082753994
 21
50.26488397844656
  0
LINE
  5
261
100
AcDbEntity
  8
MILL
  6
ByLayer
 62
  256
100
AcDbLine
 10
82.19337082753994
 20
50.26488397844656
 11
82.55468443314922
 21
49.7122866992794
  0
LINE
  5
262
100
AcDbEntity
  8
MILL
  6
ByLayer
 62
  256
100
AcDbLine
 10
82.55468443314922
 20
49.7122866992794
 11
82.91599803875852
 21
49.15968942011225
  0
LINE
  5
263
100
AcDbEntity
  8
MILL
  6
ByLayer
 62
  256
100
AcDbLine
 10
82.91599803875852
 20
49.15968942011225
 11
83.2773116443678
 21
48.60709214094509
  0
LINE
  5
264
100
AcDbEntity
  8
MILL
  6
ByLayer
 62
  256
100
AcDbLine
 10
83.2773116443678
 20
48.60709214094509
 11
83.63862524997708
 21
48.05449486177794
  0
LINE
  5
265
100
AcDbEntity
  8
MILL
  6
ByLayer
 62
  256
100
AcDbLine
 10
83.63862524997708
 20
48.05449486177794
 11
83.93617763106764
 21
47.46647468010038
  0
LINE
  5
266
100
AcDbEntity
  8
MILL
  6
ByLayer
 62
  256
100
AcDbLine
 10
83.93617763106764
 20
47.46647468010038
 11
84.10620756311906
 21
46.80760869340108
  0
LINE
  5
267
100
AcDbEntity
  8
MILL
  6
ByLayer
 62
  256
100
AcDbLine
 10
84.10620756311906
 20
46.80760869340108
 11
84.27623749517051
 21
46.14874270670177
  0
LINE
  5
268
100
AcDbEntity
  8
MILL
  6
ByLayer
 62
  256
100
AcDbLine
 10
84.27623749517051
 20
46.14874270670177
 11
84.44626742722193
 21
45.48987672000248
  0
LINE
  5
269
100
AcDbEntity
  8
MILL
  6
ByLayer
 62
  256
100
AcDbLine
 10
84.44626742722193
 20
45.48987672000248
 11
84.61629735927336
 21
44.83101073330317
  0
LINE
  5
26A
100
AcDbEntity
  8
MILL
  6
ByLayer
 62
  256
100
AcDbLine
 10
84.61629735927336
 20
44.83101073330317
 11
84.78632729132478
 21
44.17214474660388
  0
LINE
  5
26B
100
AcDbEntity
  8
MILL
  6
ByLayer
 62
  256
100
AcDbLine
 10
84.78632729132478
 20
44.17214474660388
 11
84.95635722337623
 21
43.51327875990458
  0
LINE
  5
26C
100
AcDbEntity
  8
MILL
  6
ByLayer
 62
  256
100
AcDbLine
 10
84.95635722337623
 20
43.51327875990458
 11
85.12638715542766
 21
42.85441277320528
  0
LINE
  5
26D
100
AcDbEntity
  8
MILL
  6
ByLayer
 62
  256
100
AcDbLine
 10
85.12638715542766
 20
42.85441277320528
 11
85.20710843630141
 21
42.17880141441017
  0
LINE
  5
26E
100
AcDbEntity
  8
MILL
  6
ByLayer
 62
  256
100
AcDbLine
 10
85.20710843630141
 20
42.17880141441017
 11
85.03707850424996
 21
41.45617420319158
  0
LINE
  5
26F
100
AcDbEntity
  8
MILL
  6
ByLayer
 62
  256
100
AcDbLine
 10
85.03707850424996
 20
41.45617420319158
 11
84.86704857219854
 21
40.73354699197299
  0
LINE
  5
270
100
AcDbEntity
  8
MILL
  6
ByLayer
 62
  256
100
AcDbLine
 10
84.86704857219854
 20
40.73354699197299
 11
84.69701864014711
 21
40.0109197807544
  0
LINE
  5
271
100
AcDbEntity
  8
MILL
  6
ByLayer
 62
  256
100
AcDbLine
 10
84.69701864014711
 20
40.0109197807544
 11
84.52698870809569
 21
39.28829256953582
  0
LINE
  5
272
100
AcDbEntity
  8
MILL
  6
ByLayer
 62
  256
100
AcDbLine
 10
84.52698870809569
 20
39.28829256953582
 11
84.35695877604424
 21
38.56566535831723
  0
LINE
  5
273
100
AcDbEntity
  8
MILL
  6
ByLayer
 62
  256
100
AcDbLine
 10
84.35695877604424
 20
38.56566535831723
 11
84.18692884399282
 21
37.84303814709865
  0
LINE
  5
274
100
AcDbEntity
  8
MILL
  6
ByLayer
 62
  256
100
AcDbLine
 10
84.18692884399282
 20
37.84303814709865
 11
84.01689891194138
 21
37.12041093588006
  0
LINE
  5
275
100
AcDbEntity
  8
MILL
  6
ByLayer
 62
  256
100
AcDbLine
 10
84.01689891194138
 20
37.12041093588006
 11
83.8101579718338
 21
36.4018627255566
  0
LINE
  5
276
100
AcDbEntity
  8
MILL
  6
ByLayer
 62
  256
100
AcDbLine
 10
83.8101579718338
 20
36.4018627255566
 11
83.44884436622449
 21
35.70048925584445
  0
LINE
  5
277
100
AcDbEntity
  8
MILL
  6
ByLayer
 62
  256
100
AcDbLine
 10
83.44884436622449
 20
35.70048925584445
 11
83.08753076061521
 21
34.99911578613229
  0
LINE
  5
278
100
AcDbEntity
  8
MILL
  6
ByLayer
 62
  256
100
AcDbLine
 10
83.08753076061521
 20
34.99911578613229
 11
82.72621715500591
 21
34.29774231642013
  0
LINE
  5
279
100
AcDbEntity
  8
MILL
  6
ByLayer
 62
  256
100
AcDbLine
 10
82.72621715500591
 20
34.29774231642013
 11
82.36490354939662
 21
33.59636884670798
  0
LINE
  5
27A
100
AcDbEntity
  8
MILL
  6
ByLayer
 62
  256
100
AcDbLine
 10
82.36490354939662
 20
33.59636884670798
 11
82.00358994378733
 21
32.89499537699582
  0
LINE
  5
27B
100
AcDbEntity
  8
MILL
  6
ByLayer
 62
  256
100
AcDbLine
 10
82.00358994378733
 20
32.89499537699582
 11
81.64227633817805
 21
32.19362190728366
  0
LINE
  5
27C
100
AcDbEntity
  8
MILL
  6
ByLayer
 62
  256
100
AcDbLine
 10
81.64227633817805
 20
32.19362190728366
 11
81.28096273256875
 21
31.49224843757151
  0
LINE
  5
27D
100
AcDbEntity
  8
MILL
  6
ByLayer
 62
  256
100
AcDbLine
 10
81.28096273256875
 20
31.49224843757151
 11
80.96086850442585
 21
30.793451178951
  0
LINE
  5
27E
100
AcDbEntity
  8
MILL
  6
ByLayer
 62
  256
100
AcDbLine
 10
80.96086850442585
 20
30.793451178951
 11
80.93961476291943
 21
30.11333145074528
  0
LINE
  5
27F
100
AcDbEntity
  8
MILL
  6
ByLayer
 62
  256
100
AcDbLine
 10
80.93961476291943
 20
30.11333145074528
 11
80.91836102141299
 21
29.43321172253955
  0
LINE
  5
280
100
AcDbEntity
  8
MILL
  6
ByLayer
 62
  256
100
AcDbLine
 10
80.91836102141299
 20
29.43321172253955
 11
80.89710727990658
 21
28.75309199433382
  0
LINE
  5
281
100
AcDbEntity
  8
MILL
  6
ByLayer
 62
  256
100
AcDbLine
 10
80.89710727990658
 20
28.75309199433382
 11
80.87585353840014
 21
28.07297226612809
  0
LINE
  5
282
100
AcDbEntity
  8
MILL
  6
ByLayer
 62
  256
100
AcDbLine
 10
80.87585353840014
 20
28.07297226612809
 11
80.85459979689372
 21
27.39285253792237
  0
LINE
  5
283
100
AcDbEntity
  8
MILL
  6
ByLayer
 62
  256
100
AcDbLine
 10
80.85459979689372
 20
27.39285253792237
 11
80.83334605538728
 21
26.71273280971664
  0
LINE
  5
284
100
AcDbEntity
  8
MILL
  6
ByLayer
 62
  256
100
AcDbLine
 10
80.83334605538728
 20
26.71273280971664
 11
80.81209231388084
 21
26.03261308151091
  0
LINE
  5
285
100
AcDbEntity
  8
MILL
  6
ByLayer
 62
  256
100
AcDbLine
 10
80.81209231388084
 20
26.03261308151091
 11
80.80479304912068
 21
25.36644783005141
  0
LINE
  5
286
100
AcDbEntity
  8
MILL
  6
ByLayer
 62
  256
100
AcDbLine
 10
80.80479304912068
 20
25.36644783005141
 11
81.05983794719781
 21
24.96262674142926
  0
LINE
  5
287
100
AcDbEntity
  8
MILL
  6
ByLayer
 62
  256
100
AcDbLine
 10
81.05983794719781
 20
24.96262674142926
 11
81.31488284527495
 21
24.55880565280711
  0
LINE
  5
288
100
AcDbEntity
  8
MILL
  6
ByLayer
 62
  256
100
AcDbLine
 10
81.31488284527495
 20
24.55880565280711
 11
81.56992774335211
 21
24.15498456418496
  0
LINE
  5
289
100
AcDbEntity
  8
MILL
  6
ByLayer
 62
  256
100
AcDbLine
 10
81.56992774335211
 20
24.15498456418496
 11
81.82497264142927
 21
23.75116347556281
  0
LINE
  5
28A
100
AcDbEntity
  8
MILL
  6
ByLayer
 62
  256
100
AcDbLine
 10
81.82497264142927
 20
23.75116347556281
 11
82.0800175395064
 21
23.34734238694065
  0
LINE
  5
28B
100
AcDbEntity
  8
MILL
  6
ByLayer
 62
  256
100
AcDbLine
 10
82.0800175395064
 20
23.34734238694065
 11
82.33506243758355
 21
22.9435212983185
  0
LINE
  5
28C
100
AcDbEntity
  8
MILL
  6
ByLayer
 62
  256
100
AcDbLine
 10
82.33506243758355
 20
22.9435212983185
 11
82.5901073356607
 21
22.53970020969635
  0
LINE
  5
28D
100
AcDbEntity
  8
MILL
  6
ByLayer
 62
  256
100
AcDbLine
 10
82.5901073356607
 20
22.53970020969635
 11
82.84515223373783
 21
22.1358791210742
  0
LINE
  5
28E
100
AcDbEntity
  8
MILL
  6
ByLayer
 62
  256
100
AcDbLine
 10
82.84515223373783
 20
22.1358791210742
 11
82.70453404498367
 21
21.25309745365624
  0
LINE
  5
28F
100
AcDbEntity
  8
MILL
  6
ByLayer
 62
  256
100
AcDbLine
 10
82.70453404498367
 20
21.25309745365624
 11
82.55575785443867
 21
20.36044031038622
  0
LINE
  5
290
100
AcDbEntity
  8
MILL
  6
ByLayer
 62
  256
100
AcDbLine
 10
82.55575785443867
 20
20.36044031038622
 11
82.40698166389366
 21
19.46778316711621
  0
LINE
  5
291
100
AcDbEntity
  8
MILL
  6
ByLayer
 62
  256
100
AcDbLine
 10
82.40698166389366
 20
19.46778316711621
 11
82.25820547334865
 21
18.57512602384618
  0
LINE
  5
292
100
AcDbEntity
  8
MILL
  6
ByLayer
 62
  256
100
AcDbLine
 10
82.25820547334865
 20
18.57512602384618
 11
82.10942928280366
 21
17.68246888057617
  0
LINE
  5
293
100
AcDbEntity
  8
MILL
  6
ByLayer
 62
  256
100
AcDbLine
 10
82.10942928280366
 20
17.68246888057617
 11
81.96065309225865
 21
16.78981173730615
  0
LINE
  5
294
100
AcDbEntity
  8
MILL
  6
ByLayer
 62
  256
100
AcDbLine
 10
81.96065309225865
 20
16.78981173730615
 11
81.81187690171365
 21
15.89715459403614
  0
LINE
  5
295
100
AcDbEntity
  8
MILL
  6
ByLayer
 62
  256
100
AcDbLine
 10
81.81187690171365
 20
15.89715459403614
 11
81.66310071116864
 21
15.00449745076612
  0
LINE
  5
296
100
AcDbEntity
  8
MILL
  6
ByLayer
 62
  256
100
AcDbLine
 10
81.66310071116864
 20
15.00449745076612
 11
81.43703818787306
 21
14.18912664024668
  0
LINE
  5
297
100
AcDbEntity
  8
MILL
  6
ByLayer
 62
  256
100
AcDbLine
 10
81.43703818787306
 20
14.18912664024668
 11
81.20324703130234
 21
13.38148446300237
  0
LINE
  5
298
100
AcDbEntity
  8
MILL
  6
ByLayer
 62
  256
100
AcDbLine
 10
81.20324703130234
 20
13.38148446300237
 11
80.96945587473164
 21
12.57384228575808
  0
LINE
  5
299
100
AcDbEntity
  8
MILL
  6
ByLayer
 62
  256
100
AcDbLine
 10
80.96945587473164
 20
12.57384228575808
 11
80.73566471816089
 21
11.76620010851377
  0
LINE
  5
29A
100
AcDbEntity
  8
MILL
  6
ByLayer
 62
  256
100
AcDbLine
 10
80.73566471816089
 20
11.76620010851377
 11
80.50187356159017
 21
10.95855793126947
  0
LINE
  5
29B
100
AcDbEntity
  8
MILL
  6
ByLayer
 62
  256
100
AcDbLine
 10
80.50187356159017
 20
10.95855793126947
 11
80.26808240501947
 21
10.15091575402517
  0
LINE
  5
29C
100
AcDbEntity
  8
MILL
  6
ByLayer
 62
  256
100
AcDbLine
 10
80.26808240501947
 20
10.15091575402517
 11
80.03429124844875
 21
9.343273576780868
  0
LINE
  5
29D
100
AcDbEntity
  8
MILL
  6
ByLayer
 62
  256
100
AcDbLine
 10
80.03429124844875
 20
9.343273576780868
 11
79.80050009187801
 21
8.535631399536568
  0
LINE
  5
29E
100
AcDbEntity
  8
MILL
  6
ByLayer
 62
  256
100
AcDbLine
 10
79.80050009187801
 20
8.535631399536568
 11
79.58452772869146
 21
7.906177156133928
  0
LINE
  5
29F
100
AcDbEntity
  8
MILL
  6
ByLayer
 62
  256
100
AcDbLine
 10
79.58452772869146
 20
7.906177156133928
 11
79.37199031362718
 21
7.311072393953919
  0
LINE
  5
2A0
100
AcDbEntity
  8
MILL
  6
ByLayer
 62
  256
100
AcDbLine
 10
79.37199031362718
 20
7.311072393953919
 11
79.15945289856289
 21
6.715967631773904
  0
LINE
  5
2A1
100
AcDbEntity
  8
MILL
  6
ByLayer
 62
  256
100
AcDbLine
 10
79.15945289856289
 20
6.715967631773904
 11
78.94691548349861
 21
6.120862869593893
  0
LINE
  5
2A2
100
AcDbEntity
  8
MILL
  6
ByLayer
 62
  256
100
AcDbLine
 10
78.94691548349861
 20
6.120862869593893
 11
78.73437806843431
 21
5.525758107413885
  0
LINE
  5
2A3
100
AcDbEntity
  8
MILL
  6
ByLayer
 62
  256
100
AcDbLine
 10
78.73437806843431
 20
5.525758107413885
 11
78.52184065337002
 21
4.93065334523387
  0
LINE
  5
2A4
100
AcDbEntity
  8
MILL
  6
ByLayer
 62
  256
100
AcDbLine
 10
78.52184065337002
 20
4.93065334523387
 11
78.30930323830572
 21
4.335548583053859
  0
LINE
  5
2A5
100
AcDbEntity
  8
MILL
  6
ByLayer
 62
  256
100
AcDbLine
 10
78.30930323830572
 20
4.335548583053859
 11
78.09676582324144
 21
3.740443820873848
  0
LINE
  5
2A6
100
AcDbEntity
  8
MILL
  6
ByLayer
 62
  256
100
AcDbLine
 10
78.09676582324144
 20
3.740443820873848
 11
77.4110643043372
 21
3.634819166114482
  0
LINE
  5
2A7
100
AcDbEntity
  8
MILL
  6
ByLayer
 62
  256
100
AcDbLine
 10
77.4110643043372
 20
3.634819166114482
 11
76.58216838558647
 21
3.677326649127341
  0
LINE
  5
2A8
100
AcDbEntity
  8
MILL
  6
ByLayer
 62
  256
100
AcDbLine
 10
76.58216838558647
 20
3.677326649127341
 11
75.75327246683571
 21
3.719834132140198
  0
LINE
  5
2A9
100
AcDbEntity
  8
MILL
  6
ByLayer
 62
  256
100
AcDbLine
 10
75.75327246683571
 20
3.719834132140198
 11
74.92437654808501
 21
3.762341615153057
  0
LINE
  5
2AA
100
AcDbEntity
  8
MILL
  6
ByLayer
 62
  256
100
AcDbLine
 10
74.92437654808501
 20
3.762341615153057
 11
74.09548062933428
 21
3.804849098165914
  0
LINE
  5
2AB
100
AcDbEntity
  8
MILL
  6
ByLayer
 62
  256
100
AcDbLine
 10
74.09548062933428
 20
3.804849098165914
 11
73.26658471058354
 21
3.847356581178772
  0
LINE
  5
2AC
100
AcDbEntity
  8
MILL
  6
ByLayer
 62
  256
100
AcDbLine
 10
73.26658471058354
 20
3.847356581178772
 11
72.43768879183281
 21
3.88986406419163
  0
LINE
  5
2AD
100
AcDbEntity
  8
MILL
  6
ByLayer
 62
  256
100
AcDbLine
 10
72.43768879183281
 20
3.88986406419163
 11
71.60879287308208
 21
3.932371547204488
  0
LINE
  5
2AE
100
AcDbEntity
  8
MILL
  6
ByLayer
 62
  256
100
AcDbLine
 10
71.60879287308208
 20
3.932371547204488
 11
71.41686514675136
 21
4.315582947093179
  0
LINE
  5
2AF
100
AcDbEntity
  8
MILL
  6
ByLayer
 62
  256
100
AcDbLine
 10
71.41686514675136
 20
4.315582947093179
 11
71.5018801127771
 21
4.846926484753904
  0
LINE
  5
2B0
100
AcDbEntity
  8
MILL
  6
ByLayer
 62
  256
100
AcDbLine
 10
71.5018801127771
 20
4.846926484753904
 11
71.58689507880281
 21
5.378270022414629
  0
LINE
  5
2B1
100
AcDbEntity
  8
MILL
  6
ByLayer
 62
  256
100
AcDbLine
 10
71.58689507880281
 20
5.378270022414629
 11
71.67191004482855
 21
5.909613560075354
  0
LINE
  5
2B2
100
AcDbEntity
  8
MILL
  6
ByLayer
 62
  256
100
AcDbLine
 10
71.67191004482855
 20
5.909613560075354
 11
71.75692501085426
 21
6.440957097736078
  0
LINE
  5
2B3
100
AcDbEntity
  8
MILL
  6
ByLayer
 62
  256
100
AcDbLine
 10
71.75692501085426
 20
6.440957097736078
 11
71.84193997687997
 21
6.972300635396801
  0
LINE
  5
2B4
100
AcDbEntity
  8
MILL
  6
ByLayer
 62
  256
100
AcDbLine
 10
71.84193997687997
 20
6.972300635396801
 11
71.92695494290568
 21
7.503644173057523
  0
LINE
  5
2B5
100
AcDbEntity
  8
MILL
  6
ByLayer
 62
  256
100
AcDbLine
 10
71.92695494290568
 20
7.503644173057523
 11
72.01196990893141
 21
8.034987710718253
  0
LINE
  5
2B6
100
AcDbEntity
  8
MILL
  6
ByLayer
 62
  256
100
AcDbLine
 10
72.01196990893141
 20
8.034987710718253
 11
72.09698487495712
 21
8.632883368247636
  0
LINE
  5
2B7
100
AcDbEntity
  8
MILL
  6
ByLayer
 62
  256
100
AcDbLine
 10
72.09698487495712
 20
8.632883368247636
 11
72.18199984098283
 21
9.270495613440506
  0
LINE
  5
2B8
100
AcDbEntity
  8
MILL
  6
ByLayer
 62
  256
100
AcDbLine
 10
72.18199984098283
 20
9.270495613440506
 11
72.26701480700854
 21
9.908107858633375
  0
LINE
  5
2B9
100
AcDbEntity
  8
MILL
  6
ByLayer
 62
  256
100
AcDbLine
 10
72.26701480700854
 20
9.908107858633375
 11
72.35202977303425
 21
10.54572010382624
  0
LINE
  5
2BA
100
AcDbEntity
  8
MILL
  6
ByLayer
 62
  256
100
AcDbLine
 10
72.35202977303425
 20
10.54572010382624
 11
72.43704473905998
 21
11.18333234901912
  0
LINE
  5
2BB
100
AcDbEntity
  8
MILL
  6
ByLayer
 62
  256
100
AcDbLine
 10
72.43704473905998
 20
11.18333234901912
 11
72.5220597050857
 21
11.82094459421198
  0
LINE
  5
2BC
100
AcDbEntity
  8
MILL
  6
ByLayer
 62
  256
100
AcDbLine
 10
72.5220597050857
 20
11.82094459421198
 11
72.60707467111141
 21
12.45855683940486
  0
LINE
  5
2BD
100
AcDbEntity
  8
MILL
  6
ByLayer
 62
  256
100
AcDbLine
 10
72.60707467111141
 20
12.45855683940486
 11
72.69208963713712
 21
13.09616908459773
  0
LINE
  5
2BE
100
AcDbEntity
  8
MILL
  6
ByLayer
 62
  256
100
AcDbLine
 10
72.69208963713712
 20
13.09616908459773
 11
72.72987406648181
 21
13.67474315893932
  0
LINE
  5
2BF
100
AcDbEntity
  8
MILL
  6
ByLayer
 62
  256
100
AcDbLine
 10
72.72987406648181
 20
13.67474315893932
 11
72.72987406648181
 21
14.20608669660005
  0
LINE
  5
2C0
100
AcDbEntity
  8
MILL
  6
ByLayer
 62
  256
100
AcDbLine
 10
72.72987406648181
 20
14.20608669660005
 11
72.72987406648183
 21
14.73743023426077
  0
LINE
  5
2C1
100
AcDbEntity
  8
MILL
  6
ByLayer
 62
  256
100
AcDbLine
 10
72.72987406648183
 20
14.73743023426077
 11
72.72987406648181
 21
15.2687737719215
  0
LINE
  5
2C2
100
AcDbEntity
  8
MILL
  6
ByLayer
 62
  256
100
AcDbLine
 10
72.72987406648181
 20
15.2687737719215
 11
72.72987406648183
 21
15.80011730958222
  0
LINE
  5
2C3
100
AcDbEntity
  8
MILL
  6
ByLayer
 62
  256
100
AcDbLine
 10
72.72987406648183
 20
15.80011730958222
 11
72.72987406648181
 21
16.33146084724295
  0
LINE
  5
2C4
100
AcDbEntity
  8
MILL
  6
ByLayer
 62
  256
100
AcDbLine
 10
72.72987406648181
 20
16.33146084724295
 11
72.72987406648181
 21
16.86280438490367
  0
LINE
  5
2C5
100
AcDbEntity
  8
MILL
  6
ByLayer
 62
  256
100
AcDbLine
 10
72.72987406648181
 20
16.86280438490367
 11
72.72987406648181
 21
17.3941479225644
  0
LINE
  5
2C6
100
AcDbEntity
  8
MILL
  6
ByLayer
 62
  256
100
AcDbLine
 10
72.72987406648181
 20
17.3941479225644
 11
72.67834984464794
 21
17.86366239402447
  0
LINE
  5
2C7
100
AcDbEntity
  8
MILL
  6
ByLayer
 62
  256
100
AcDbLine
 10
72.67834984464794
 20
17.86366239402447
 11
72.57208113711579
 21
18.26748348264662
  0
LINE
  5
2C8
100
AcDbEntity
  8
MILL
  6
ByLayer
 62
  256
100
AcDbLine
 10
72.57208113711579
 20
18.26748348264662
 11
72.46581242958364
 21
18.67130457126876
  0
LINE
  5
2C9
100
AcDbEntity
  8
MILL
  6
ByLayer
 62
  256
100
AcDbLine
 10
72.46581242958364
 20
18.67130457126876
 11
72.3595437220515
 21
19.07512565989092
  0
LINE
  5
2CA
100
AcDbEntity
  8
MILL
  6
ByLayer
 62
  256
100
AcDbLine
 10
72.3595437220515
 20
19.07512565989092
 11
72.25327501451936
 21
19.47894674851307
  0
LINE
  5
2CB
100
AcDbEntity
  8
MILL
  6
ByLayer
 62
  256
100
AcDbLine
 10
72.25327501451936
 20
19.47894674851307
 11
72.14700630698722
 21
19.88276783713522
  0
LINE
  5
2CC
100
AcDbEntity
  8
MILL
  6
ByLayer
 62
  256
100
AcDbLine
 10
72.14700630698722
 20
19.88276783713522
 11
72.04073759945507
 21
20.28658892575737
  0
LINE
  5
2CD
100
AcDbEntity
  8
MILL
  6
ByLayer
 62
  256
100
AcDbLine
 10
72.04073759945507
 20
20.28658892575737
 11
71.93446889192292
 21
20.69041001437952
  0
LINE
  5
2CE
100
AcDbEntity
  8
MILL
  6
ByLayer
 62
  256
100
AcDbLine
 10
71.93446889192292
 20
20.69041001437952
 11
71.7489816933211
 21
21.03261672105858
  0
LINE
  5
2CF
100
AcDbEntity
  8
MILL
  6
ByLayer
 62
  256
100
AcDbLine
 10
71.7489816933211
 20
21.03261672105858
 11
71.45142931223108
 21
21.28766161913574
  0
LINE
  5
2D0
100
AcDbEntity
  8
MILL
  6
ByLayer
 62
  256
100
AcDbLine
 10
71.45142931223108
 20
21.28766161913574
 11
71.15387693114108
 21
21.54270651721288
  0
LINE
  5
2D1
100
AcDbEntity
  8
MILL
  6
ByLayer
 62
  256
100
AcDbLine
 10
71.15387693114108
 20
21.54270651721288
 11
70.85632455005107
 21
21.79775141529003
  0
LINE
  5
2D2
100
AcDbEntity
  8
MILL
  6
ByLayer
 62
  256
100
AcDbLine
 10
70.85632455005107
 20
21.79775141529003
 11
70.55877216896108
 21
22.05279631336717
  0
LINE
  5
2D3
100
AcDbEntity
  8
MILL
  6
ByLayer
 62
  256
100
AcDbLine
 10
70.55877216896108
 20
22.05279631336717
 11
70.26121978787107
 21
22.30784121144432
  0
LINE
  5
2D4
100
AcDbEntity
  8
MILL
  6
ByLayer
 62
  256
100
AcDbLine
 10
70.26121978787107
 20
22.30784121144432
 11
69.96366740678107
 21
22.56288610952147
  0
LINE
  5
2D5
100
AcDbEntity
  8
MILL
  6
ByLayer
 62
  256
100
AcDbLine
 10
69.96366740678107
 20
22.56288610952147
 11
69.66611502569106
 21
22.81793100759862
  0
LINE
  5
2D6
100
AcDbEntity
  8
MILL
  6
ByLayer
 62
  256
100
AcDbLine
 10
69.66611502569106
 20
22.81793100759862
 11
69.33206632080196
 21
23.08757443519541
  0
LINE
  5
2D7
100
AcDbEntity
  8
MILL
  6
ByLayer
 62
  256
100
AcDbLine
 10
69.33206632080196
 20
23.08757443519541
 11
68.9282452321798
 21
23.38512681628541
  0
LINE
  5
2D8
100
AcDbEntity
  8
MILL
  6
ByLayer
 62
  256
100
AcDbLine
 10
68.9282452321798
 20
23.38512681628541
 11
68.52442414355765
 21
23.68267919737542
  0
LINE
  5
2D9
100
AcDbEntity
  8
MILL
  6
ByLayer
 62
  256
100
AcDbLine
 10
68.52442414355765
 20
23.68267919737542
 11
68.12060305493551
 21
23.98023157846542
  0
LINE
  5
2DA
100
AcDbEntity
  8
MILL
  6
ByLayer
 62
  256
100
AcDbLine
 10
68.12060305493551
 20
23.98023157846542
 11
67.71678196631335
 21
24.27778395955543
  0
LINE
  5
2DB
100
AcDbEntity
  8
MILL
  6
ByLayer
 62
  256
100
AcDbLine
 10
67.71678196631335
 20
24.27778395955543
 11
67.31296087769122
 21
24.57533634064544
  0
LINE
  5
2DC
100
AcDbEntity
  8
MILL
  6
ByLayer
 62
  256
100
AcDbLine
 10
67.31296087769122
 20
24.57533634064544
 11
66.90913978906906
 21
24.87288872173545
  0
LINE
  5
2DD
100
AcDbEntity
  8
MILL
  6
ByLayer
 62
  256
100
AcDbLine
 10
66.90913978906906
 20
24.87288872173545
 11
66.50531870044691
 21
25.17044110282545
  0
LINE
  5
2DE
100
AcDbEntity
  8
MILL
  6
ByLayer
 62
  256
100
AcDbLine
 10
66.50531870044691
 20
25.17044110282545
 11
66.20003768608255
 21
25.48538290878448
  0
LINE
  5
2DF
100
AcDbEntity
  8
MILL
  6
ByLayer
 62
  256
100
AcDbLine
 10
66.20003768608255
 20
25.48538290878448
 11
66.1575302030697
 21
25.84669651439377
  0
LINE
  5
2E0
100
AcDbEntity
  8
MILL
  6
ByLayer
 62
  256
100
AcDbLine
 10
66.1575302030697
 20
25.84669651439377
 11
66.11502272005684
 21
26.20801012000307
  0
LINE
  5
2E1
100
AcDbEntity
  8
MILL
  6
ByLayer
 62
  256
100
AcDbLine
 10
66.11502272005684
 20
26.20801012000307
 11
66.07251523704399
 21
26.56932372561236
  0
LINE
  5
2E2
100
AcDbEntity
  8
MILL
  6
ByLayer
 62
  256
100
AcDbLine
 10
66.07251523704399
 20
26.56932372561236
 11
66.03000775403113
 21
26.93063733122165
  0
LINE
  5
2E3
100
AcDbEntity
  8
MILL
  6
ByLayer
 62
  256
100
AcDbLine
 10
66.03000775403113
 20
26.93063733122165
 11
65.98750027101826
 21
27.29195093683094
  0
LINE
  5
2E4
100
AcDbEntity
  8
MILL
  6
ByLayer
 62
  256
100
AcDbLine
 10
65.98750027101826
 20
27.29195093683094
 11
65.94499278800542
 21
27.65326454244024
  0
LINE
  5
2E5
100
AcDbEntity
  8
MILL
  6
ByLayer
 62
  256
100
AcDbLine
 10
65.94499278800542
 20
27.65326454244024
 11
65.90248530499255
 21
28.01457814804953
  0
LINE
  5
2E6
100
AcDbEntity
  8
MILL
  6
ByLayer
 62
  256
100
AcDbLine
 10
65.90248530499255
 20
28.01457814804953
 11
65.82992202590965
 21
28.36730438335309
  0
LINE
  5
2E7
100
AcDbEntity
  8
MILL
  6
ByLayer
 62
  256
100
AcDbLine
 10
65.82992202590965
 20
28.36730438335309
 11
65.63863835235179
 21
28.68611050594953
  0
LINE
  5
2E8
100
AcDbEntity
  8
MILL
  6
ByLayer
 62
  256
100
AcDbLine
 10
65.63863835235179
 20
28.68611050594953
 11
65.44735467879393
 21
29.00491662854597
  0
LINE
  5
2E9
100
AcDbEntity
  8
MILL
  6
ByLayer
 62
  256
100
AcDbLine
 10
65.44735467879393
 20
29.00491662854597
 11
65.25607100523608
 21
29.3237227511424
  0
LINE
  5
2EA
100
AcDbEntity
  8
MILL
  6
ByLayer
 62
  256
100
AcDbLine
 10
65.25607100523608
 20
29.3237227511424
 11
65.06478733167822
 21
29.64252887373883
  0
LINE
  5
2EB
100
AcDbEntity
  8
MILL
  6
ByLayer
 62
  256
100
AcDbLine
 10
65.06478733167822
 20
29.64252887373883
 11
64.87350365812036
 21
29.96133499633527
  0
LINE
  5
2EC
100
AcDbEntity
  8
MILL
  6
ByLayer
 62
  256
100
AcDbLine
 10
64.87350365812036
 20
29.96133499633527
 11
64.68221998456249
 21
30.28014111893171
  0
LINE
  5
2ED
100
AcDbEntity
  8
MILL
  6
ByLayer
 62
  256
100
AcDbLine
 10
64.68221998456249
 20
30.28014111893171
 11
64.49093631100462
 21
30.59894724152814
  0
LINE
  5
2EE
100
AcDbEntity
  8
MILL
  6
ByLayer
 62
  256
100
AcDbLine
 10
64.49093631100462
 20
30.59894724152814
 11
64.26337099790474
 21
30.87588993388379
  0
LINE
  5
2EF
100
AcDbEntity
  8
MILL
  6
ByLayer
 62
  256
100
AcDbLine
 10
64.26337099790474
 20
30.87588993388379
 11
63.79578868476331
 21
30.87588993388379
  0
LINE
  5
2F0
100
AcDbEntity
  8
MILL
  6
ByLayer
 62
  256
100
AcDbLine
 10
63.79578868476331
 20
30.87588993388379
 11
63.32820637162188
 21
30.87588993388379
  0
LINE
  5
2F1
100
AcDbEntity
  8
MILL
  6
ByLayer
 62
  256
100
AcDbLine
 10
63.32820637162188
 20
30.87588993388379
 11
62.86062405848045
 21
30.87588993388379
  0
LINE
  5
2F2
100
AcDbEntity
  8
MILL
  6
ByLayer
 62
  256
100
AcDbLine
 10
62.86062405848045
 20
30.87588993388379
 11
62.393041745339
 21
30.87588993388379
  0
LINE
  5
2F3
100
AcDbEntity
  8
MILL
  6
ByLayer
 62
  256
100
AcDbLine
 10
62.393041745339
 20
30.87588993388379
 11
61.92545943219757
 21
30.87588993388379
  0
LINE
  5
2F4
100
AcDbEntity
  8
MILL
  6
ByLayer
 62
  256
100
AcDbLine
 10
61.92545943219757
 20
30.87588993388379
 11
61.45787711905612
 21
30.87588993388379
  0
LINE
  5
2F5
100
AcDbEntity
  8
MILL
  6
ByLayer
 62
  256
100
AcDbLine
 10
61.45787711905612
 20
30.87588993388379
 11
60.99029480591469
 21
30.87588993388379
  0
LINE
  5
2F6
100
AcDbEntity
  8
MILL
  6
ByLayer
 62
  256
100
AcDbLine
 10
60.99029480591469
 20
30.87588993388379
 11
60.50467901513055
 21
30.87331372279197
  0
LINE
  5
2F7
100
AcDbEntity
  8
MILL
  6
ByLayer
 62
  256
100
AcDbLine
 10
60.50467901513055
 20
30.87331372279197
 11
59.73954432089911
 21
30.83080623977912
  0
LINE
  5
2F8
100
AcDbEntity
  8
MILL
  6
ByLayer
 62
  256
100
AcDbLine
 10
59.73954432089911
 20
30.83080623977912
 11
58.97440962666765
 21
30.78829875676626
  0
LINE
  5
2F9
100
AcDbEntity
  8
MILL
  6
ByLayer
 62
  256
100
AcDbLine
 10
58.97440962666765
 20
30.78829875676626
 11
58.20927493243622
 21
30.7457912737534
  0
LINE
  5
2FA
100
AcDbEntity
  8
MILL
  6
ByLayer
 62
  256
100
AcDbLine
 10
58.20927493243622
 20
30.7457912737534
 11
57.44414023820477
 21
30.70328379074054
  0
LINE
  5
2FB
100
AcDbEntity
  8
MILL
  6
ByLayer
 62
  256
100
AcDbLine
 10
57.44414023820477
 20
30.70328379074054
 11
56.67900554397332
 21
30.66077630772768
  0
LINE
  5
2FC
100
AcDbEntity
  8
MILL
  6
ByLayer
 62
  256
100
AcDbLine
 10
56.67900554397332
 20
30.66077630772768
 11
55.91387084974188
 21
30.61826882471482
  0
LINE
  5
2FD
100
AcDbEntity
  8
MILL
  6
ByLayer
 62
  256
100
AcDbLine
 10
55.91387084974188
 20
30.61826882471482
 11
55.14873615551044
 21
30.57576134170197
  0
LINE
  5
2FE
100
AcDbEntity
  8
MILL
  6
ByLayer
 62
  256
100
AcDbLine
 10
55.14873615551044
 20
30.57576134170197
 11
54.38360146127898
 21
30.53325385868911
  0
LINE
  5
2FF
100
AcDbEntity
  8
MILL
  6
ByLayer
 62
  256
100
AcDbLine
 10
54.38360146127898
 20
30.53325385868911
 11
53.97613074027814
 21
30.7221760054137
  0
LINE
  5
300
100
AcDbEntity
  8
MILL
  6
ByLayer
 62
  256
100
AcDbLine
 10
53.97613074027814
 20
30.7221760054137
 11
53.572309651656
 21
30.91345967897156
  0
LINE
  5
301
100
AcDbEntity
  8
MILL
  6
ByLayer
 62
  256
100
AcDbLine
 10
53.572309651656
 20
30.91345967897156
 11
53.16848856303383
 21
31.10474335252941
  0
LINE
  5
302
100
AcDbEntity
  8
MILL
  6
ByLayer
 62
  256
100
AcDbLine
 10
53.16848856303383
 20
31.10474335252941
 11
52.76466747441168
 21
31.29602702608728
  0
LINE
  5
303
100
AcDbEntity
  8
MILL
  6
ByLayer
 62
  256
100
AcDbLine
 10
52.76466747441168
 20
31.29602702608728
 11
52.36084638578954
 21
31.48731069964514
  0
LINE
  5
304
100
AcDbEntity
  8
MILL
  6
ByLayer
 62
  256
100
AcDbLine
 10
52.36084638578954
 20
31.48731069964514
 11
51.95702529716738
 21
31.678594373203
  0
LINE
  5
305
100
AcDbEntity
  8
MILL
  6
ByLayer
 62
  256
100
AcDbLine
 10
51.95702529716738
 20
31.678594373203
 11
51.55320420854523
 21
31.86987804676086
  0
LINE
  5
306
100
AcDbEntity
  8
MILL
  6
ByLayer
 62
  256
100
AcDbLine
 10
51.55320420854523
 20
31.86987804676086
 11
51.14938311992307
 21
32.06116172031872
  0
LINE
  5
307
100
AcDbEntity
  8
MILL
  6
ByLayer
 62
  256
100
AcDbLine
 10
51.14938311992307
 20
32.06116172031872
 11
50.74556203130093
 21
31.80311124263283
  0
LINE
  5
308
100
AcDbEntity
  8
MILL
  6
ByLayer
 62
  256
100
AcDbLine
 10
50.74556203130093
 20
31.80311124263283
 11
50.34174094267877
 21
31.50555886154282
  0
LINE
  5
309
100
AcDbEntity
  8
MILL
  6
ByLayer
 62
  256
100
AcDbLine
 10
50.34174094267877
 20
31.50555886154282
 11
49.93791985405664
 21
31.20800648045282
  0
LINE
  5
30A
100
AcDbEntity
  8
MILL
  6
ByLayer
 62
  256
100
AcDbLine
 10
49.93791985405664
 20
31.20800648045282
 11
49.53409876543448
 21
30.91045409936281
  0
LINE
  5
30B
100
AcDbEntity
  8
MILL
  6
ByLayer
 62
  256
100
AcDbLine
 10
49.53409876543448
 20
30.91045409936281
 11
49.13027767681232
 21
30.61290171827281
  0
LINE
  5
30C
100
AcDbEntity
  8
MILL
  6
ByLayer
 62
  256
100
AcDbLine
 10
49.13027767681232
 20
30.61290171827281
 11
48.72645658819019
 21
30.3153493371828
  0
LINE
  5
30D
100
AcDbEntity
  8
MILL
  6
ByLayer
 62
  256
100
AcDbLine
 10
48.72645658819019
 20
30.3153493371828
 11
48.32263549956803
 21
30.01779695609279
  0
LINE
  5
30E
100
AcDbEntity
  8
MILL
  6
ByLayer
 62
  256
100
AcDbLine
 10
48.32263549956803
 20
30.01779695609279
 11
47.91881441094588
 21
29.72024457500279
  0
LINE
  5
30F
100
AcDbEntity
  8
MILL
  6
ByLayer
 62
  256
100
AcDbLine
 10
47.91881441094588
 20
29.72024457500279
 11
47.83959591987797
 21
28.95382177522332
  0
LINE
  5
310
100
AcDbEntity
  8
MILL
  6
ByLayer
 62
  256
100
AcDbLine
 10
47.83959591987797
 20
28.95382177522332
 11
47.81834217837154
 21
28.10367211496616
  0
LINE
  5
311
100
AcDbEntity
  8
MILL
  6
ByLayer
 62
  256
100
AcDbLine
 10
47.81834217837154
 20
28.10367211496616
 11
47.79708843686512
 21
27.253522454709
  0
LINE
  5
312
100
AcDbEntity
  8
MILL
  6
ByLayer
 62
  256
100
AcDbLine
 10
47.79708843686512
 20
27.253522454709
 11
47.77583469535869
 21
26.40337279445184
  0
LINE
  5
313
100
AcDbEntity
  8
MILL
  6
ByLayer
 62
  256
100
AcDbLine
 10
47.77583469535869
 20
26.40337279445184
 11
47.75458095385226
 21
25.55322313419468
  0
LINE
  5
314
100
AcDbEntity
  8
MILL
  6
ByLayer
 62
  256
100
AcDbLine
 10
47.75458095385226
 20
25.55322313419468
 11
47.73332721234583
 21
24.70307347393753
  0
LINE
  5
315
100
AcDbEntity
  8
MILL
  6
ByLayer
 62
  256
100
AcDbLine
 10
47.73332721234583
 20
24.70307347393753
 11
47.71207347083941
 21
23.85292381368036
  0
LINE
  5
316
100
AcDbEntity
  8
MILL
  6
ByLayer
 62
  256
100
AcDbLine
 10
47.71207347083941
 20
23.85292381368036
 11
47.69081972933298
 21
23.0027741534232
  0
LINE
  5
317
100
AcDbEntity
  8
MILL
  6
ByLayer
 62
  256
100
AcDbLine
 10
47.69081972933298
 20
23.0027741534232
 11
47.65303529998811
 21
21.83854142423598
  0
LINE
  5
318
100
AcDbEntity
  8
MILL
  6
ByLayer
 62
  256
100
AcDbLine
 10
47.65303529998811
 20
21.83854142423598
 11
47.61052781697526
 21
20.58457067535667
  0
LINE
  5
319
100
AcDbEntity
  8
MILL
  6
ByLayer
 62
  256
100
AcDbLine
 10
47.61052781697526
 20
20.58457067535667
 11
47.5680203339624
 21
19.33059992647736
  0
LINE
  5
31A
100
AcDbEntity
  8
MILL
  6
ByLayer
 62
  256
100
AcDbLine
 10
47.5680203339624
 20
19.33059992647736
 11
47.52551285094955
 21
18.07662917759805
  0
LINE
  5
31B
100
AcDbEntity
  8
MILL
  6
ByLayer
 62
  256
100
AcDbLine
 10
47.52551285094955
 20
18.07662917759805
 11
47.48300536793669
 21
16.82265842871874
  0
LINE
  5
31C
100
AcDbEntity
  8
MILL
  6
ByLayer
 62
  256
100
AcDbLine
 10
47.48300536793669
 20
16.82265842871874
 11
47.44049788492384
 21
15.56868767983943
  0
LINE
  5
31D
100
AcDbEntity
  8
MILL
  6
ByLayer
 62
  256
100
AcDbLine
 10
47.44049788492384
 20
15.56868767983943
 11
47.39799040191096
 21
14.31471693096012
  0
LINE
  5
31E
100
AcDbEntity
  8
MILL
  6
ByLayer
 62
  256
100
AcDbLine
 10
47.39799040191096
 20
14.31471693096012
 11
47.35548291889811
 21
13.06074618208081
  0
LINE
  5
31F
100
AcDbEntity
  8
MILL
  6
ByLayer
 62
  256
100
AcDbLine
 10
47.35548291889811
 20
13.06074618208081
 11
47.25286384374547
 21
11.97208231158591
  0
LINE
  5
320
100
AcDbEntity
  8
MILL
  6
ByLayer
 62
  256
100
AcDbLine
 10
47.25286384374547
 20
11.97208231158591
 11
47.12534139470689
 21
10.95190271927732
  0
LINE
  5
321
100
AcDbEntity
  8
MILL
  6
ByLayer
 62
  256
100
AcDbLine
 10
47.12534139470689
 20
10.95190271927732
 11
46.99781894566831
 21
9.931723126968727
  0
LINE
  5
322
100
AcDbEntity
  8
MILL
  6
ByLayer
 62
  256
100
AcDbLine
 10
46.99781894566831
 20
9.931723126968727
 11
46.87029649662974
 21
8.911543534660131
  0
LINE
  5
323
100
AcDbEntity
  8
MILL
  6
ByLayer
 62
  256
100
AcDbLine
 10
46.87029649662974
 20
8.911543534660131
 11
46.74277404759118
 21
7.891363942351541
  0
LINE
  5
324
100
AcDbEntity
  8
MILL
  6
ByLayer
 62
  256
100
AcDbLine
 10
46.74277404759118
 20
7.891363942351541
 11
46.6152515985526
 21
6.871184350042952
  0
LINE
  5
325
100
AcDbEntity
  8
MILL
  6
ByLayer
 62
  256
100
AcDbLine
 10
46.6152515985526
 20
6.871184350042952
 11
46.48772914951402
 21
5.851004757734362
  0
LINE
  5
326
100
AcDbEntity
  8
MILL
  6
ByLayer
 62
  256
100
AcDbLine
 10
46.48772914951402
 20
5.851004757734362
 11
46.36020670047544
 21
4.830825165425769
  0
LINE
  5
327
100
AcDbEntity
  8
MILL
  6
ByLayer
 62
  256
100
AcDbLine
 10
46.36020670047544
 20
4.830825165425769
 11
45.78635567979842
 21
4.459850768227655
  0
LINE
  5
328
100
AcDbEntity
  8
MILL
  6
ByLayer
 62
  256
100
AcDbLine
 10
45.78635567979842
 20
4.459850768227655
 11
44.95745976104769
 21
4.459850768227655
  0
LINE
  5
329
100
AcDbEntity
  8
MILL
  6
ByLayer
 62
  256
100
AcDbLine
 10
44.95745976104769
 20
4.459850768227655
 11
44.12856384229696
 21
4.459850768227656
  0
LINE
  5
32A
100
AcDbEntity
  8
MILL
  6
ByLayer
 62
  256
100
AcDbLine
 10
44.12856384229696
 20
4.459850768227656
 11
43.29966792354622
 21
4.459850768227653
  0
LINE
  5
32B
100
AcDbEntity
  8
MILL
  6
ByLayer
 62
  256
100
AcDbLine
 10
43.29966792354622
 20
4.459850768227653
 11
42.47077200479549
 21
4.459850768227655
  0
LINE
  5
32C
100
AcDbEntity
  8
MILL
  6
ByLayer
 62
  256
100
AcDbLine
 10
42.47077200479549
 20
4.459850768227655
 11
41.64187608604476
 21
4.459850768227655
  0
LINE
  5
32D
100
AcDbEntity
  8
MILL
  6
ByLayer
 62
  256
100
AcDbLine
 10
41.64187608604476
 20
4.459850768227655
 11
40.81298016729403
 21
4.459850768227655
  0
LINE
  5
32E
100
AcDbEntity
  8
MILL
  6
ByLayer
 62
  256
100
AcDbLine
 10
40.81298016729403
 20
4.459850768227655
 11
39.98408424854331
 21
4.459850768227655
  0
LINE
  5
32F
100
AcDbEntity
  8
MILL
  6
ByLayer
 62
  256
100
AcDbLine
 10
39.98408424854331
 20
4.459850768227655
 11
39.58799179320023
 21
4.82052032106736
  0
LINE
  5
330
100
AcDbEntity
  8
MILL
  6
ByLayer
 62
  256
100
AcDbLine
 10
39.58799179320023
 20
4.82052032106736
 11
39.52423056868095
 21
5.45813256626023
  0
LINE
  5
331
100
AcDbEntity
  8
MILL
  6
ByLayer
 62
  256
100
AcDbLine
 10
39.52423056868095
 20
5.45813256626023
 11
39.46046934416165
 21
6.095744811453102
  0
LINE
  5
332
100
AcDbEntity
  8
MILL
  6
ByLayer
 62
  256
100
AcDbLine
 10
39.46046934416165
 20
6.095744811453102
 11
39.39670811964237
 21
6.733357056645971
  0
LINE
  5
333
100
AcDbEntity
  8
MILL
  6
ByLayer
 62
  256
100
AcDbLine
 10
39.39670811964237
 20
6.733357056645971
 11
39.33294689512308
 21
7.370969301838841
  0
LINE
  5
334
100
AcDbEntity
  8
MILL
  6
ByLayer
 62
  256
100
AcDbLine
 10
39.33294689512308
 20
7.370969301838841
 11
39.2691856706038
 21
8.00858154703171
  0
LINE
  5
335
100
AcDbEntity
  8
MILL
  6
ByLayer
 62
  256
100
AcDbLine
 10
39.2691856706038
 20
8.00858154703171
 11
39.2054244460845
 21
8.646193792224583
  0
LINE
  5
336
100
AcDbEntity
  8
MILL
  6
ByLayer
 62
  256
100
AcDbLine
 10
39.2054244460845
 20
8.646193792224583
 11
39.14166322156522
 21
9.283806037417452
  0
LINE
  5
337
100
AcDbEntity
  8
MILL
  6
ByLayer
 62
  256
100
AcDbLine
 10
39.14166322156522
 20
9.283806037417452
 11
39.11998011154398
 21
10.03713309747996
  0
LINE
  5
338
100
AcDbEntity
  8
MILL
  6
ByLayer
 62
  256
100
AcDbLine
 10
39.11998011154398
 20
10.03713309747996
 11
39.14123385305041
 21
10.90853649924354
  0
LINE
  5
339
100
AcDbEntity
  8
MILL
  6
ByLayer
 62
  256
100
AcDbLine
 10
39.14123385305041
 20
10.90853649924354
 11
39.16248759455684
 21
11.77993990100713
  0
LINE
  5
33A
100
AcDbEntity
  8
MILL
  6
ByLayer
 62
  256
100
AcDbLine
 10
39.16248759455684
 20
11.77993990100713
 11
39.18374133606326
 21
12.65134330277072
  0
LINE
  5
33B
100
AcDbEntity
  8
MILL
  6
ByLayer
 62
  256
100
AcDbLine
 10
39.18374133606326
 20
12.65134330277072
 11
39.20499507756969
 21
13.52274670453431
  0
LINE
  5
33C
100
AcDbEntity
  8
MILL
  6
ByLayer
 62
  256
100
AcDbLine
 10
39.20499507756969
 20
13.52274670453431
 11
39.22624881907612
 21
14.39415010629789
  0
LINE
  5
33D
100
AcDbEntity
  8
MILL
  6
ByLayer
 62
  256
100
AcDbLine
 10
39.22624881907612
 20
14.39415010629789
 11
39.24750256058255
 21
15.26555350806148
  0
LINE
  5
33E
100
AcDbEntity
  8
MILL
  6
ByLayer
 62
  256
100
AcDbLine
 10
39.24750256058255
 20
15.26555350806148
 11
39.26875630208897
 21
16.13695690982507
  0
LINE
  5
33F
100
AcDbEntity
  8
MILL
  6
ByLayer
 62
  256
100
AcDbLine
 10
39.26875630208897
 20
16.13695690982507
 11
39.2359096106692
 21
16.90917618455729
  0
LINE
  5
340
100
AcDbEntity
  8
MILL
  6
ByLayer
 62
  256
100
AcDbLine
 10
39.2359096106692
 20
16.90917618455729
 11
39.12964090313704
 21
17.54678842975015
  0
LINE
  5
341
100
AcDbEntity
  8
MILL
  6
ByLayer
 62
  256
100
AcDbLine
 10
39.12964090313704
 20
17.54678842975015
 11
39.02337219560491
 21
18.18440067494303
  0
LINE
  5
342
100
AcDbEntity
  8
MILL
  6
ByLayer
 62
  256
100
AcDbLine
 10
39.02337219560491
 20
18.18440067494303
 11
38.91710348807277
 21
18.82201292013589
  0
LINE
  5
343
100
AcDbEntity
  8
MILL
  6
ByLayer
 62
  256
100
AcDbLine
 10
38.91710348807277
 20
18.82201292013589
 11
38.81083478054062
 21
19.45962516532876
  0
LINE
  5
344
100
AcDbEntity
  8
MILL
  6
ByLayer
 62
  256
100
AcDbLine
 10
38.81083478054062
 20
19.45962516532876
 11
38.70456607300847
 21
20.09723741052163
  0
LINE
  5
345
100
AcDbEntity
  8
MILL
  6
ByLayer
 62
  256
100
AcDbLine
 10
38.70456607300847
 20
20.09723741052163
 11
38.59829736547633
 21
20.73484965571451
  0
LINE
  5
346
100
AcDbEntity
  8
MILL
  6
ByLayer
 62
  256
100
AcDbLine
 10
38.59829736547633
 20
20.73484965571451
 11
38.49202865794419
 21
21.37246190090737
  0
LINE
  5
347
100
AcDbEntity
  8
MILL
  6
ByLayer
 62
  256
100
AcDbLine
 10
38.49202865794419
 20
21.37246190090737
 11
38.37073205237694
 21
22.02510204413536
  0
LINE
  5
348
100
AcDbEntity
  8
MILL
  6
ByLayer
 62
  256
100
AcDbLine
 10
38.37073205237694
 20
22.02510204413536
 11
38.22195586183193
 21
22.70522177234108
  0
LINE
  5
349
100
AcDbEntity
  8
MILL
  6
ByLayer
 62
  256
100
AcDbLine
 10
38.22195586183193
 20
22.70522177234108
 11
38.07317967128693
 21
23.38534150054681
  0
LINE
  5
34A
100
AcDbEntity
  8
MILL
  6
ByLayer
 62
  256
100
AcDbLine
 10
38.07317967128693
 20
23.38534150054681
 11
37.92440348074192
 21
24.06546122875254
  0
LINE
  5
34B
100
AcDbEntity
  8
MILL
  6
ByLayer
 62
  256
100
AcDbLine
 10
37.92440348074192
 20
24.06546122875254
 11
37.77562729019692
 21
24.74558095695826
  0
LINE
  5
34C
100
AcDbEntity
  8
MILL
  6
ByLayer
 62
  256
100
AcDbLine
 10
37.77562729019692
 20
24.74558095695826
 11
37.62685109965192
 21
25.42570068516399
  0
LINE
  5
34D
100
AcDbEntity
  8
MILL
  6
ByLayer
 62
  256
100
AcDbLine
 10
37.62685109965192
 20
25.42570068516399
 11
37.47807490910691
 21
26.10582041336972
  0
LINE
  5
34E
100
AcDbEntity
  8
MILL
  6
ByLayer
 62
  256
100
AcDbLine
 10
37.47807490910691
 20
26.10582041336972
 11
37.32929871856191
 21
26.78594014157545
  0
LINE
  5
34F
100
AcDbEntity
  8
MILL
  6
ByLayer
 62
  256
100
AcDbLine
 10
37.32929871856191
 20
26.78594014157545
 11
37.07833282137758
 21
27.43600407371079
  0
LINE
  5
350
100
AcDbEntity
  8
MILL
  6
ByLayer
 62
  256
100
AcDbLine
 10
37.07833282137758
 20
27.43600407371079
 11
36.56824302522329
 21
28.00985509438436
  0
LINE
  5
351
100
AcDbEntity
  8
MILL
  6
ByLayer
 62
  256
100
AcDbLine
 10
36.56824302522329
 20
28.00985509438436
 11
36.058153229069
 21
28.58370611505795
  0
LINE
  5
352
100
AcDbEntity
  8
MILL
  6
ByLayer
 62
  256
100
AcDbLine
 10
36.058153229069
 20
28.58370611505795
 11
35.5480634329147
 21
29.15755713573153
  0
LINE
  5
353
100
AcDbEntity
  8
MILL
  6
ByLayer
 62
  256
100
AcDbLine
 10
35.5480634329147
 20
29.15755713573153
 11
35.0379736367604
 21
29.73140815640511
  0
LINE
  5
354
100
AcDbEntity
  8
MILL
  6
ByLayer
 62
  256
100
AcDbLine
 10
35.0379736367604
 20
29.73140815640511
 11
34.5278838406061
 21
30.3052591770787
  0
LINE
  5
355
100
AcDbEntity
  8
MILL
  6
ByLayer
 62
  256
100
AcDbLine
 10
34.5278838406061
 20
30.3052591770787
 11
34.01779404445182
 21
30.87911019775228
  0
LINE
  5
356
100
AcDbEntity
  8
MILL
  6
ByLayer
 62
  256
100
AcDbLine
 10
34.01779404445182
 20
30.87911019775228
 11
33.50770424829751
 21
31.45296121842586
  0
LINE
  5
357
100
AcDbEntity
  8
MILL
  6
ByLayer
 62
  256
100
AcDbLine
 10
33.10581531799762
 20
32.07661898686816
 11
33.50770424829751
 21
31.45296121842586
  0
ENDSEC
  0
SECTION
  2
OBJECTS
  0
DICTIONARY
  5
C
100
AcDbDictionary
281
    1
  3
ACAD_GROUP
350
D
  3
ACAD_IMAGE_DICT
350
358
  0
DICTIONARY
  5
D
330
C
100
AcDbDictionary
281
    1
  0
IMAGEDEF_REACTOR
  5
4F
330
50
100
AcDbRasterImageDefReactor
 90
    2
330
50
  0
DICTIONARY
  5
358
330
C
100
AcDbDictionary
281
    1
  3
il_1588xN.2671884497_718q
350
4E
  0
IMAGEDEF
  5
4E
102
{ACAD_REACTORS
330
4F
102
}
100
AcDbRasterImageDef
 90
    0
  1
/Users/hugomeiland/Downloads/il_1588xN.2671884497_718q.jpg
 10
1588
 20
1057
 11
1
 21
1
280
    1
281
    0
  0
ENDSEC
  0
EOF
